<svg id="Capa_1" data-name="Capa 1" xmlns="http://www.w3.org/2000/svg" viewBox="0 0 100.73 125.46"><defs><style>.cls-1{fill:#3e5e72;}.cls-2{fill:#edcbbf;}.cls-3{fill:#508ec1;}.cls-4{fill:#a9a5c5;}.cls-5{fill:#747474;}</style></defs><polyline class="cls-1" points="28.45 28.28 34.07 25.41 44.33 22.88 51.69 22.03 59.64 22.28 65.96 22.67 69.83 23.83 71.58 26.8 73.94 31.08 74.18 32.48 72.58 34.12 56.68 33.12 39.66 34.1 34.48 33.79 27.77 32.77 27.14 28.91"/><polygon class="cls-2" points="33.11 41.79 32.22 46.92 31.78 49.69 32.78 54.02 34.8 57.46 35.06 58.7 36.06 58.58 37.19 59.53 38.62 60.22 40.25 61.17 41.54 61.07 42.54 61.02 44.24 62.23 45.15 63.62 46.72 60.51 47.89 58.27 49.45 60.61 52.53 61.44 56.53 61.57 59.47 60.33 62.36 60.25 63.63 60.63 66.27 59.52 67.41 57.19 68.34 55.72 69.37 53.8 71.09 52.38 71.37 48.75 71.09 41.87 69.8 40.01 61.52 41.69 50.51 42.01 36.73 41.25 33.11 41.79"/><path class="cls-3" d="M.09,105.83s-.2-5.85.53-7.61c.59-1.41,4-4.57,4-4.57s2.43-2,3.3-2.53c2.43-1.59,10.18-5.66,10.18-5.66l7-5.78a5.17,5.17,0,0,0,1.36,3.55c1.33,1.51,4.34,2.87,4.43,3.56.33,2.31,1.9,1,3.61,3.33,1,1.28,0,4.89.55,6.37.73,1.77,3.59,4.34,5.59,5.24.62.28,3.45,2.66,4.11,2.48,1.63-.45,3.56,4.27,5,3.41,1-.59,3.61-1.08,4.7-.61,2.32,1,5.91,8.22,5.91,8.22L62.89,123c-8.44.46-20,.23-31-3-1.3-.39-8.3-4.48-9.6-4.86-4.64-1.38-8.3-4.59-12.94-6C5.3,108,4.12,107,.09,105.83Z"/><path class="cls-3" d="M78.32,116.92c-4,2.52-15.43,6.1-15.43,6.1s-2.38-5.23-3.15-6.62c-1.27-2.33-4.17-5.91-4.17-8.55a72,72,0,0,0,8-.53c.83-.18,3.14-2.72,3.14-2.72s2.82.87,3.54.26c1.82-1.55,5.09-8.1,5.09-8.1S77.43,92,80,92.39c.82.13-.63-5.6,0-6.15s-1.43-5.32-1.43-6.11a36,36,0,0,0-.22-4.84,1.81,1.81,0,0,0-.11-2.18h0a13.72,13.72,0,0,0,2.07,1.6,27,27,0,0,0,4.92.85l4.47,1.62L94,78.46a48.76,48.76,0,0,1,4,3.13,11,11,0,0,1,2.3,3.12c.91,3.15.15,12,.15,12a5.33,5.33,0,0,0-2.17,1.09c-1.14,1-4.45,4.13-5.56,5.12"/><path class="cls-4" d="M27.74,28.73c-1.19.59-.72-5.25-.72-5.25l1.21-10,2.36-4.5,5.15-4.21,4.43-2.28L46,1.62l5.85.58,5.7.44,6.22,3.58L68,10.58l.35,3.12L70.59,22l0,2.64L59.69,22.73l-12-.37S41,22.17,27.74,28.73Z"/><path class="cls-4" d="M13.11,32.1l0,6.46L16.52,43l2.12.91,3,.67h0c.95-.07,6.82-3.59,6.82-3.59l12.89-.25,12.49.88,5.34.57,9.38-2.3,7.56-.06,5.05-2.17,2.72-1.44L85.13,32l-.64-3.64-.19-2.23L74,28.77,72.78,33.2,39.23,34.55,26.46,32Z"/><path class="cls-5" d="M73.27,40.5c.16.33.46.64.47,1a3,3,0,0,0,1.1,1.92c.68.75,1.63.6,2.5.65a8.46,8.46,0,0,1,1.42,0l-3.05.4a1.88,1.88,0,0,0,2.48,1.36c.25-.07.59.21.89.46H77L76.66,46a4.94,4.94,0,0,1-1-1c-.49-.84-1.49-.77-2.12-1.34a8.09,8.09,0,0,0-1.32-.79v2.49l-.43-.75c.11,1.53.22,3,.34,4.66l.41-.72a3.79,3.79,0,0,0,.71,3.39l0,0-.91-.64c-.37.94-1.42,1.61-1.38,2.86l-.72-.8a2,2,0,0,0,.32-2.09c-.14-.28-.14-.28-1.12-.19a10,10,0,0,0,1-.86c.4-.47.41-.9-.32-1.07l.35-.56-.14-.16-1.35,1-.11-.14,1.12-1.11L69.78,48l.75.11,0-.12a1.59,1.59,0,0,0-.23-.14,5.23,5.23,0,0,0,.12-1.09c0-.58-.15-1.16-.24-1.76l-.59.15.66-1.35.21,1.63.28,0c-.08-.91-.16-1.83-.25-2.94l-.38.85-.33.44-.29-.54-.65.55-.11-.08.83-1.59-.65.16c0-.13.08-.26.19-.58l-1.38,1-.12-.08.65-.91c-.15,0-.37-.12-.43-.06-.49.48-.94,1-1.41,1.5.53.45,1,.62,1.43,0,0,0,.14,0,.21,0l-1,1.33h0l-.89.05,1.11.72s0,.09-.07.13c-.34-.15-.67-.33-1-.45s-.74-.2-1.32-.35a10.28,10.28,0,0,1,1.46,1.12A3.11,3.11,0,0,1,67,47.05c-1-.44-1.2-1.74-2.41-1.76l0,0-1.09-.88c1-.27,2.21.74,3-.61l-.94.29.56-.73-.52,0c.11-.29.19-.54.28-.78L65,42.53l1.5-1.47a11.76,11.76,0,0,0-2.71.47l-1.46.16h-.76l-.46.57,0,0c.07-.52-.25-.51-.61-.43s-.87.25-1.31.35-.86.13-1.29.2a4.56,4.56,0,0,1-.91-.12,7.2,7.2,0,0,0-1-.11c-1.07,0-2.15-.07-3.22,0-.31,0-.58.17-.94,0A1.77,1.77,0,0,0,50.51,42a7.21,7.21,0,0,0-1.43,1.07,1.1,1.1,0,0,0,.28.25c.45.22.91.41,1.42.63l-.44.31.11.16c.35-.25.7-.5,1.12-.78a2.55,2.55,0,0,0-.14.52,3,3,0,0,0,.11.57c-.87-.33-1.14-.21-1.41.52a4,4,0,0,1-.22.47,1.19,1.19,0,0,0-.26-.11c-.13,0-.38,0-.39-.06a.89.89,0,0,1,0-.51c.09-.19.11-.54.49-.37,0-.16.15-.38.08-.47a1.52,1.52,0,0,0-.42-.31c-.48,0-.6.83-1.13.35l.64-.4-1.13-.62-.68.25c0-.08.15-.16.15-.24a3.05,3.05,0,0,0-.06-.6l-.85.14.14.54-.31.36,1.22.52-.3.65c-.58-.64-1.06-.73-1.45-.21l2.38,1c0-.06,0-.12.08-.19l-1-.59,2.06.87-.38.79-.25-.27-.22.08.27,1.12.68-.92c0,.17,0,.46,0,.48a.83.83,0,0,0,.58,0c.55-.24.76-.12.73.48a2.87,2.87,0,0,1-.14.56l-.77.38c0-.41.08-.69.13-1.17-.39.39-.78.62-.91,1-.22.61-.74.68-1.2.89a.94.94,0,0,0-.43.35c-.4.72-.38.71-1.26.63-.12,0-.24.37-.4.4-.69.16-1.39.27-2.09.39l0-.21,1.86-.15.08-.32c-2.19.07-4.05-.51-5.07-2.37l.84-.51v-.2L42.85,46c-.54.13-1.29-.44-1.55.63-.14-.62-.24-1.1-.34-1.57l1.16-.62-.55.7c1.3.77,2.18,0,3-.89a6.75,6.75,0,0,0-1.27-.3,3.41,3.41,0,0,0-1,.29l.27-.37-2.85-.19,0,.21,2,.34,0,.12-2.19.1,1.06.77a2.48,2.48,0,0,1-1.86-1.74l-.5.32c.27-.4.44-.77-.22-1l-.46.58a2.57,2.57,0,0,0-.38-.72c-.15-.13-.54.06-.57-.34l-1,.6.54-.72c-.63-.17-1.08-.48-1.71.3A9.34,9.34,0,0,0,33,46,8.09,8.09,0,0,0,32.91,48a1.66,1.66,0,0,1-.14.74A3.7,3.7,0,0,0,33,52.14c0-.55,0-1,.06-1.38h.1v1.41l1.27.34,0,.1-1.38-.07c.08.92-.41,2,1,2.5,0-.26,0-.44,0-.62,0,0,.08,0,.05,0l.81,1,.33-.62c.17,1,.33,1.9.44,2.76a5.07,5.07,0,0,1-.08,1h0c-.12.65-.25,1.29-.38,2V58.75l-.13,0c-.22.37-.44.74-.67,1.11l.1,0c.13-1,.28-2,.37-2.94,0-.57,0-.59-.63-.82,0,0,0,0-.06,0,.1-.75-.63-.87-1-1.25-.52-.54-.41-1.22-.56-1.84,0-.11,0-.24-.07-.55L32,53l-.58-2.08.2-.07.24.38c.11-.78.21-1.41.3-2l-.27,0-.09.56h-.06c-.06-1-.13-2.08-.17-3.13a2.43,2.43,0,0,1,.17-.61c.06-.3.11-.61.16-.92L31.62,45l-.15.5-.1,0c.06-.41.13-.82.22-1.42l-.82.19L31,43.4l.66.63V42.27h.27a5.43,5.43,0,0,0-.07,1.33,6.6,6.6,0,0,0,.57,1.3c.67-.32.26-1.12.57-1.65l-.45.24-.15-.09c.25-.55.49-1.11.71-1.61H31v1.54h-.19l.1-1.07-.1,0L30.09,44,30,44c.1-.45.2-.89.31-1.35-.85-.35-.51.38-.64.71l-.26-.43c-.06-.11-.13-.22-.2-.33.08-.25.15-.49.22-.73l1.71-1a15.49,15.49,0,0,0-1.81,0c-.53,0-.46.3-.39.63l-.44-.6c-.67.24-1.38.45-2.05.76-.34.15-.57.52-.9.73-.17.11-.22.64-.64.23-.08-.07-.54.11-.71.29a3.22,3.22,0,0,0-1,2.91,15.46,15.46,0,0,1,.12,2c-.32-1-.71-1.95-.22-2.86a3.62,3.62,0,0,1-1.09.27,18.33,18.33,0,0,1-3.24-.46A3.9,3.9,0,0,1,16.52,43a21.71,21.71,0,0,0-1.42-1.78,10.23,10.23,0,0,1-2-2.67,30.54,30.54,0,0,1-1-5.25c-.09-.59.27-1,.93-1.21a19.17,19.17,0,0,1,4.63-.78,27.77,27.77,0,0,1,6.7.48c.92.13,1.87.1,3,.16-.85-.76,0-1.93-1.05-2.6.93-.2.76-.9.74-1.51,0-1.46-.15-2.92-.12-4.37a50.81,50.81,0,0,1,.3-5.24c.19-1.62.57-3.21.91-4.81a3.34,3.34,0,0,1,.54-.87c0-.09-.17-.39-.08-.55.59-1,.83-2.27,1.9-3.08s2-2,3.08-2.88a11.78,11.78,0,0,1,2.07-1.33,43.11,43.11,0,0,1,4.43-2.28,12.84,12.84,0,0,1,3.11-.56c.89-.12,1.79-.16,2.68-.26a28.53,28.53,0,0,1,4.23.1c1.15.05,2.3.22,3.44.17a11.11,11.11,0,0,1,5.92,1.75c1.43.78,2.71,1.87,4.18,2.58,2,1,2.88,2.88,4.26,4.36.83.9.88,2.16,1.11,3.32.09.48.26,1,.35,1.44.39,2.21.84,4.41,1.14,6.63a16.81,16.81,0,0,0,1.33,5.28c.24.49.51.95.72,1.33a7,7,0,0,0,.76.19,1.35,1.35,0,0,0,.6,0c1.36-.45,2.7-.94,4.07-1.39.51-.17,1.07-.22,1.58-.38a7.8,7.8,0,0,0,.85-.46,7.7,7.7,0,0,1,3.8-.42c.29,0,.58.45.84.71,1,.92.15,2,.25,3a12.61,12.61,0,0,1-.13,2.94,6.11,6.11,0,0,1-1.39,3.45,5.19,5.19,0,0,0-.42.59,2.05,2.05,0,0,1-1.12,1c-1.56.47-3.06,1.1-4.61,1.58a17,17,0,0,1-2.06.29,3.26,3.26,0,0,0-.73.31,1,1,0,0,1-.32.15c-1,.07-2,.1-3,.19-.59,0-.5.56-.35.86a3.82,3.82,0,0,0,.9,1.18,14.15,14.15,0,0,0,1.53,1.1l.16-.16-.56-.65.41-.17c-.47-.55.13-1.64-1-2h.53ZM45.35,41.93l-.08.8,1.11-.36L46.32,42l-1-.07a3.58,3.58,0,0,0-2.56-.08c1.06.85,1.23.86,2.3.15A1.33,1.33,0,0,1,45.35,41.93ZM58.12,39c3.51,0,7,.46,10.36-.28H63.59c-1.16,0-2.33.11-3.49,0a3.06,3.06,0,0,0-2,.28c-.19-.13-.38-.37-.59-.39-1.8-.17-3.61-.27-5.41-.48-1.62-.19-3.22-.52-4.83-.76A11,11,0,0,0,46,37.35a7.48,7.48,0,0,0-1.56-.81c-2.58-.63-5.17-1.21-7.76-1.78-.92-.2-1.85-.31-2.77-.52a13.58,13.58,0,0,1-3.14-.84,11.89,11.89,0,0,0-3-.63,28,28,0,0,0-3.32-.3c-1.76-.16-3.52-.35-5.29-.47-.51,0-1,.15-1.56.12a7.53,7.53,0,0,0-4.3.87,2,2,0,0,0-.44.51l.14.19c.74,0,1.49.06,2.22,0,1.37-.12,2.73-.41,4.1-.46a21.62,21.62,0,0,1,3.3.28c1.9.23,3.81.46,5.7.76,3,.47,6,1,9,1.51A36.32,36.32,0,0,1,43.6,37a12.62,12.62,0,0,0,2.41.38c1.13.25,2.25.56,3.4.75,1.92.33,3.86.6,5.8.83C56.17,39,57.15,39,58.12,39ZM35,40l.47,0a3.23,3.23,0,0,0,.67.29c.35,0,.71,0,1.06,0,1.37.15,2.74.35,4.12.46,1,.07,2,0,3,0,1.8.11,3.6.28,5.4.43l.45,0c1.65.09,3.3.26,5,.27a40.81,40.81,0,0,0,4.27-.28c.5,0,1-.36,1.49-.44.88-.15,1.77-.21,2.65-.29s1.82-.09,2.72-.19,1.52-.27,2.28-.4a.82.82,0,0,0-.61-.19,22.06,22.06,0,0,1-2.55.27c-1.62,0-3.24-.17-4.87-.28a9.83,9.83,0,0,1-1.65.06A14.46,14.46,0,0,0,55,39.59c-.93.08-1.71-.49-2.67-.32A6.13,6.13,0,0,1,50.42,39c-1.34-.24-2.69-.43-4-.68s-3-.64-4.44-.94-2.81-.53-4.22-.8c-.54-.1-1.07-.22-1.6-.31-1.62-.27-3.23-.52-4.84-.8-1.29-.22-2.57-.52-3.87-.7-1.53-.21-3.09-.21-4.6-.5a27.55,27.55,0,0,0-7.48,0c-.8.06-1.6.1-2.42.15a13,13,0,0,1,.43,1.91,6.58,6.58,0,0,0,2,4.06c.81.88,1.58,1.8,2.32,2.74a2.08,2.08,0,0,0,2.44.84l0-.74-.5-.14c.12-.14.18-.26.25-.27,1-.13,2-.24,3-.38a4.89,4.89,0,0,0,1.43-.33,22.06,22.06,0,0,0,2.06-1.24l-3,.38A18.32,18.32,0,0,1,31,39.17l-5.29,1.44,0,.18c2.53-.17,4.91-1.25,7.43-1.51l0,.19-1.71.41a21,21,0,0,0,2.77.26A3.08,3.08,0,0,0,35,40Zm35.27-9.65L69.92,30l-.2.51-.19,0A3.17,3.17,0,0,0,68.82,28a1.42,1.42,0,0,1,.25-2.12l-.14-1c-.57-.19-1.22-.43-1.89-.6-1.4-.36-2.79-.75-4.21-1a35.79,35.79,0,0,0-4.13-.49c-1.36-.08-2.74,0-4.11,0-1.52,0-3,0-4.56,0-1.21,0-2.42.17-3.63.29a24.15,24.15,0,0,0-2.4.28,30.32,30.32,0,0,0-3.27.74c-3.13.92-6.31,1.67-9.16,3.35-1.21.72-2.48,1.33-3.66,1.95a18.37,18.37,0,0,1,.21,2.15c0,.43.06.58.49.61.64.06,1.28.14,1.91.26,1.64.32,3.15,1.2,4.86,1.25a2.08,2.08,0,0,0,.81-.15,18.9,18.9,0,0,1,2.63-1c2.5-.54,5-.95,7.53-1.45a50,50,0,0,1,7.8-1c.38,0,.75,0,1.12,0,1-.11,2.08-.51,2.76.33A4.77,4.77,0,0,1,59.1,30a17,17,0,0,1,4.69.64c1.8.42,3.62.75,5.4,1.24,1.23.34,2.41.89,3.59,1.34a6.46,6.46,0,0,0,.22-1c0-.89.38-1.82-.14-2.65-.21-.33-.65-.51-.86-.84-.51-.8-.94-1.65-1.45-2.56-.1,1.43-.19,2.83-.29,4.23ZM27.74,28.73c1.27-.71,2.69-1.26,4-2a26.62,26.62,0,0,1,4.43-1.87A54.42,54.42,0,0,1,41.93,23a31.29,31.29,0,0,1,4.66-.64c2.16-.18,4.34-.3,6.51-.37,1.08,0,2.16.15,3.23.11a19.73,19.73,0,0,1,4.54.15c1.75.34,3.54.5,5.29.85a24.26,24.26,0,0,1,2.69.9c.41.12.83.17,1.27.26a9.63,9.63,0,0,0,0-1.53c-.41-2.31-.86-4.61-1.31-6.92-.14-.71-.29-1.43-.46-2.14a8.38,8.38,0,0,0-.61-2.14,17.87,17.87,0,0,0-2.06-2.84,9.25,9.25,0,0,0-1.9-1.56c-1.07-.72-2.28-1.24-3.27-2a11.51,11.51,0,0,0-5.41-2.46,33.85,33.85,0,0,0-5.51-.45A70.8,70.8,0,0,0,42,2.58a6.45,6.45,0,0,0-3.57,1.33,7,7,0,0,1-1.15.74,29.22,29.22,0,0,0-2.73,1.56,31.79,31.79,0,0,0-2.78,2.41,10.27,10.27,0,0,0-1.72,1.84,9.26,9.26,0,0,0-1,2.47c-.43,1.57-.83,3.16-1.1,4.76a21.34,21.34,0,0,0-.17,3.3C27.72,23.56,27.74,26.14,27.74,28.73Zm29.94,9.53,0,.21c.2-.09.38-.26.58-.27,1-.06,2-.09,3-.1,2,0,3.91,0,5.86-.08a9.26,9.26,0,0,0,1.67-.14c1.09-.22,2.16-.48,3.23-.78.24-.07.59-.34.6-.54.07-.84,0-1.7,0-2.44-.53-.21-1-.35-1.35-.54a13.08,13.08,0,0,0-1.85-1c-1.46-.43-2.95-.79-4.45-1.09s-3-.53-4.44-.73a18.71,18.71,0,0,0-2.6-.15c-1.09,0-2.18.05-3.27.08-.93,0-1.86,0-2.78.1-1.67.19-3.32.47-5,.71-.91.13-1.83.22-2.73.39-1.64.3-3.28.59-4.88,1A17,17,0,0,0,36.73,34c.41.12.65.19.89.24,3.1.71,6.21,1.41,9.31,2.13.56.13,1.07.49,1.63.58,2.4.38,4.81.69,7.21,1Zm17.07-2.49c4.14-1.17,7.69-3.17,9.74-7.42a4.51,4.51,0,0,0-1.27-.28,14.79,14.79,0,0,0-3.2.56c-1.72.6-3.38,1.4-5.07,2.11-.38.15-.78.26-1,.34C74.22,32.68,74.48,34.19,74.75,35.77Zm9.51-5.23a2.35,2.35,0,0,0-.47.53A8.71,8.71,0,0,1,81.18,34a39.32,39.32,0,0,1-4.6,2.86c-.94.56-1.91,1.07-2.9,1.63l.62.09-4,.69a27.61,27.61,0,0,0,3.76-.2c.67-.07,1.35-.09,2-.21a18.52,18.52,0,0,0,3.24-.71,8.34,8.34,0,0,0,3.57-2C84.45,34.53,84.22,32.55,84.26,30.54ZM42.7,47.3c.86-.36,1.53-.66,2.22-.93a.58.58,0,0,1,.52,0c.46.46.84.3,1.42-.18a9.42,9.42,0,0,0-1.51-.45A2.75,2.75,0,0,0,42.7,47.3ZM73.78,29.63c.35.46.61.49,1.21.22l2.3-1,1.29-.59L78.5,28Zm6.44-2.11v.17l4.24-.43a.76.76,0,0,0-1-.55c-.41.07-.81.18-1.22.28ZM36.15,41.45c.51.12,1-.16,1.35.35a.79.79,0,0,0,.73.13c.52-.53,1-.15,1.53-.07.19,0,.39.09.71.16a5.22,5.22,0,0,0-2.76-.75A2.67,2.67,0,0,0,36.15,41.45Zm9.68,5.35A2,2,0,0,1,45,49c.52.36,1.75-.11,1.83-.65h-.61L46.44,47Zm29.6-10.44-5.18,2.1A10.18,10.18,0,0,0,75.43,36.36ZM21.62,44.59c1.13-.18,1.05-1.15,1.64-1.62l-2,.44.84.81ZM47,42.26l1.57.49.66-.52A1.82,1.82,0,0,0,47,42.26ZM41,42.93a8.85,8.85,0,0,0-1-.2.59.59,0,0,0-.41.24c0,.07,0,.28.12.37A.84.84,0,0,0,41,42.93Zm1.19,5.82L42,49l1.92.9.15-.31Zm-9.77,2.31L32.14,51c-.1.27-.31.56-.27.81s.34.46.52.68l.19-.13Zm13.94-5.92c-.54.1-1.15-.21-1.74.33l1.86.21Zm24.1-4.32-.13-.11-1.11.59.81.34Z"/><path class="cls-5" d="M56.57,62.38l-.35.4.69,1.71-.09,0-1.67-2.24v1.37l-.45-.77c-.14.24-.35.44-.33.61.06.46.27.9.32,1.36a1.75,1.75,0,0,1-.29,1.05c.41-.79-.06-1.43-.28-2.12A2.76,2.76,0,0,0,53,61.93l.23-.5c-.22,0-.44,0-.65,0a7.46,7.46,0,0,1-.95-.1.54.54,0,0,0-.69.49,2.86,2.86,0,0,1-1.48,2.1c.3-.38.62-.75.9-1.15s.54-.75-.22-.92c.66-.81-.44-.69-.4-1.16l-.25-.09-.1.55-.59-1.7a3.36,3.36,0,0,0-1.08.59c-.39.46-1,.75-.92,1.63A3,3,0,0,1,46,63.34c-.48.74-1.07,1.4-1.62,2.1-.89-.51-1.42.19-2,.51l-.1-.19a7.77,7.77,0,0,0,1-.63,13.13,13.13,0,0,0,1.05-1.06.39.39,0,0,0,0-.28c-1-.42.24-1.61-.9-2l.25-.12.49.54.55-1a4.23,4.23,0,0,1,0,.82,3.15,3.15,0,0,0-.18.82l1-1.26.21.15c-.65.6-.9,1.14-.63,1.82l.62-1.83c.15-.38.3-.76.48-1.12,0-.07.19-.07.47-.16L47,60l-.62-.1c.35-.38.65-.67.93-1a2.84,2.84,0,0,0,.55-.66c.15-.34.08-.8.71-.75a2.54,2.54,0,0,0,.32-1,7.37,7.37,0,0,1,1.47-2.93l-.23.74.15.07a2.56,2.56,0,0,1,.36-.43c.13-.11.25-.79.48-.06l.62-.54C51.1,53,51.1,53,51.62,51L52,52a6.15,6.15,0,0,1,.22-1.43A7.22,7.22,0,0,1,53,49.35c.57.69,1,3.7.61,4.27l-.65-3.27-.19,0c.07,2.37-1.14,4.29-2.16,6.38l.62-.43.19.15c-.27.35-.46.82-.81,1-.65.39-.44,1-.45,1.47a5.3,5.3,0,0,0,.29,1.39l.15-.13.07.67.17.11,1-1.16-.48-1.35.18-.09.62,1.08.39-.66.28,0c-.63.92-.09,1.37.45,1.88l-1.11-.54-.55.75a6.75,6.75,0,0,1,3.56.45c.22.12.75-.24,1.08-.47.6-.41,1.17-.88,1.73-1.31l.4-1.55c0-.15.24-.64.08-.82-.36-.44.12-1.32-.78-1.44a11.71,11.71,0,0,1-1.44-3.52c-.15-1-.62-2-.73-3a33.84,33.84,0,0,1,0-3.63l-.53.2,1.53-1.93L57,45c.14-.09.29-.26.46-.28a3.43,3.43,0,0,0,2.66-1.93c.15-.27.64-.34,1-.5l0,0-1.14,2.06c.21.07.54.27.62.19.53-.48,1-1,1.5-1.55l-.13-.09.91-.23-.38-.36,1.8-.2-.94,1.53a.67.67,0,0,1,.18.11s.05.09.09.18c-.51-.12-1-.61-1.39.12.35.28,1-.34,1.28.45l-2.24.2,0,.22.24.18A2.07,2.07,0,0,0,58.91,47a1.3,1.3,0,0,0,.48-.48c.14-.24.19-.61.39-.72a14.1,14.1,0,0,1,1.66-.68,1.72,1.72,0,0,1,.44-.06c.9.09,1.79.2,2.68.3l0,0L65.67,47H64.14l-.82.9.06.16,1.25-.3.05.11-1,.65H61.15v-.22h1.1a3.68,3.68,0,0,1-2.51-1.73l-.11,1c-.55-.43-1-.35-1.59.36.84-.28,1.4-.13,1.7.56l-.61.48c-1-.4-1-.4-.87-.71l-.86-.1,2.19,3.13-.09.1-1.14-1.11-.14.12.31.37c-1.15.12-1.49-.95-2.34-1.34l.33.59a1.72,1.72,0,0,0,.76,1.53c.4.34.81.68,1.2,1a5.6,5.6,0,0,1,.47.59l-.78-.21v.59L58,53.6l-1.12-1.42a5.16,5.16,0,0,0,1.88,2.64c.46.41,1.18.6,1.24,1.38.06.16.07.37.18.47.53.46,1.08.89,1.62,1.33.08.15.11.36.24.45a2.29,2.29,0,0,1,.85,1.66c0,.25.56.42.71.52l2.42-3,.3.23c-.15.2-.3.41-.44.62s-.45.7-.67,1.05a3.49,3.49,0,0,0-.14.46c1-.59,1.62-1.12,1.68-2.14l.16,0a4.75,4.75,0,0,0,0,.54c.11.69-.31,1.51.47,2.05l0,0,1.39,1.8-2.37-1c-.58-.25-1,.19-1.45.4a4.72,4.72,0,0,1-1.12.16l-.1-.82a9.37,9.37,0,0,1-2.29-.57,3.07,3.07,0,0,0-2,0c-.41.14-.66.79-1,1.21l.14.14.62-.38L60.36,64c-.37-.76-.77-1.43-1.79-1.5l.33.79-1.16-.61C57.42,62.35,57.14,61.88,56.57,62.38Zm9.62-1.57.08-1.29-1.89,1.19C64.75,61,65.1,61,66.19,60.81Zm1.22.47-.89-1.89-.18,1.55a5.67,5.67,0,0,0,.55.22Zm-5.89-2.51-.18.12c.22.42.43.84.67,1.24.05.08.23.11.35.12s.13-.21.1-.25C62.15,59.58,61.83,59.18,61.52,58.77Z"/><path class="cls-5" d="M49.94,107.88l-.52.44c-.68.6-1.4,1.17-2,1.83a4.54,4.54,0,0,1-3.73,1.73c-.91-.08-1.82-.16-2.71-.32a2.6,2.6,0,0,1-1-.55,42.46,42.46,0,0,1-3.58-2.8,12.62,12.62,0,0,1-1.94-2.52c-1.5-2.33-3-4.66-4.38-7.07-.81-1.42-1.36-3-2.06-4.49-.46-1-1-1.93-1.43-2.92-.8-1.86-1.6-3.72-2.29-5.62a8.1,8.1,0,0,1-.17-2.16c0-.33,0-.65,0-1s0-.92,0-1.38c.11-2,1.42-3.38,2.31-5,.54-1,1.22-1.86,1.86-2.78a3.06,3.06,0,0,1,.46-.42l.2.11a1.73,1.73,0,0,1-.14.52c-.31.45-.67.87-1,1.31a2.31,2.31,0,0,0-.47.83c-.29,1.61-1.37,2.76-2.27,4a3.16,3.16,0,0,0-.73,2.62,5.7,5.7,0,0,1,.05,1.89,6,6,0,0,0,.89,3c1,2.5,2.07,5,3.25,7.46,1.26,2.59,2.57,5.18,4.07,7.64a36.12,36.12,0,0,0,4.21,5.75,13.61,13.61,0,0,0,4.3,3.11,5,5,0,0,0,4.14.14,8.8,8.8,0,0,0,2.51-2c.62-.62,1.32-1.14,2-1.71Z"/><path class="cls-5" d="M61.16,68.8a4.15,4.15,0,0,0-2.34-.16,2.49,2.49,0,0,1-.64-.16v1.28h-.12v-1.3l-1.86.13.11,2.25h-.25V69.12l-1.47-.44-1.37,1.18v1.72h-.15l-.22-2.07c-.32-.22-.74-.4-1,.31l-1.05-.4-.57,2.43-.2,0,.52-2.39c-.62-.21-.83.25-1.06.65-.43.78-.84,1.57-1.27,2.34a1.55,1.55,0,0,1-.55.56l1.77-3.19-.15-.11-.4.31c-.24-.86-.17-.93,1.21-1.12l.27-1.7.13,0-.13,1.64h1.31l-.5-1,.34.22a2.63,2.63,0,0,0,1.54.53c.81.15.72-.25.76-.7.45.6,1.12.56,1.76.54.1,0,.19-.29.3-.48,1.07.29.7-.62.88-1.14,0,.2,0,.4,0,.61,0,.44.23.54.65.48a9,9,0,0,1,1.17,0V66.72h.12L59,68.06l2.85-.21-.56-.92.13-.1.81.9.79-.5.26,1.07h.16l.08-.58.92.49a1.65,1.65,0,0,0-.14.55,3.65,3.65,0,0,1,.16.79,1.74,1.74,0,0,0-1.66-.93l-1.24.71-.43-.53Z"/><path class="cls-5" d="M100,96.27a4.33,4.33,0,0,0,.22-2.31,34,34,0,0,1-.32-4c0-1.4-.07-2.79,0-4.19A5.36,5.36,0,0,0,98,81.59c-1-1-2.13-1.61-3.15-2.47-.27-.23-.54-.44-.81-.66l.21-.2c1.42,1.1,2.87,2.16,4.23,3.32a9.35,9.35,0,0,1,1.62,2,2.43,2.43,0,0,1,.2,1.16c.11,3,.23,5.92.3,8.88a30.38,30.38,0,0,1-.15,3.16"/><path class="cls-5" d="M13.89,88.06c-.09.15-.14.37-.28.45-1,.54-2,1.08-3,1.58-1.27.64-2.67,1-3.63,2.19a2.56,2.56,0,0,1-.86.71c-2,.93-3,2.81-4.42,4.34a3,3,0,0,0-.79,2.81,5.67,5.67,0,0,1,0,2,22.78,22.78,0,0,1-.82,3.72c0-.5,0-1,0-1.5,0-.35-.11-.7-.09-1,0-.53.14-1.06.2-1.59.09-.73.16-1.47.23-2.2a3.28,3.28,0,0,1,.81-2c1.16-1.26,2.2-2.63,3.39-3.86.55-.59,1.44-.85,2-1.45,1.31-1.43,3.12-1.9,4.75-2.72.58-.29,1.07-.76,1.63-1.11a4.34,4.34,0,0,1,.9-.31Z"/><path class="cls-5" d="M86.13,86.53c.23.55.5,1.09.68,1.65A39.69,39.69,0,0,1,88,92.3c.39,2,.67,4,.88,6,.12,1.16-1.17,2.26-2.24,2.62a7.29,7.29,0,0,1-3.51-.09,6.76,6.76,0,0,1-1.69-.73,12.76,12.76,0,0,1-3.26-1.56,22.86,22.86,0,0,0-2.84-1.75.42.42,0,0,1-.1-.47l2.59,1.52a22,22,0,0,0,2.79,1.65,25.82,25.82,0,0,0,4.18,1.36,3.15,3.15,0,0,0,3.69-2,5.22,5.22,0,0,0-.06-2.51c-.38-2-.85-4.07-1.33-6.09-.29-1.24-.66-2.46-1-3.7Z"/><path class="cls-5" d="M50.46,48l.7-.34.34,1.15.78-1.71.3-.43.52.16-.25,1.34-.22.74L52,48.42l-1,1.35a1.8,1.8,0,0,1-1.63,1c-.31,0-1.21.91-1.27,1.29-.12.76-.79,1.19-1.2.91.28-.46.55-.93.84-1.37a6.3,6.3,0,0,1,.58-.68l1.18-1.29a9.06,9.06,0,0,0,.88-1A1.59,1.59,0,0,0,50.46,48Z"/><path class="cls-5" d="M73.64,44c.43.86.87,1.61,1.19,2.41a2,2,0,0,0,2,1.5,2.28,2.28,0,0,1,1.06.29c-.31,0-.62,0-.94,0s-.58-.07-.92-.11l.16.46L75.41,48l.47,1.27,0,0-2-3.4a3,3,0,0,0,.36,2.81c.44.52.74,1.16,1.14,1.71s.66.8.88,1.19l1.06,2.48-.1.06c-.42-.75-.81-1.52-1.26-2.24-.31-.5-.72-.92-1.05-1.4A5.89,5.89,0,0,1,73.46,46c.07-.42,0-.86.05-1.28C73.53,44.49,73.59,44.24,73.64,44Z"/><path class="cls-5" d="M77.09,72.75l1.12.36c.42.13.85.27,1.28.37a.42.42,0,0,0,.28,0l3,.64a3.6,3.6,0,0,0-.35.29s0,.09,0,.17l2.47,1a3.65,3.65,0,0,1-2.72-.33c-.17-.1-.48,0-.61.06-.44-.2-.86-.35-1.25-.56-1-.51-1.93-1-2.89-1.57L77.07,73Z"/><path class="cls-5" d="M67.21,62.5c.8.72,1.11.69,2.14-.1l-.82.74,2.88,5c.82.16,1.1.56,1.17,1.84,0,.63.13,1.27.21,2.06a4.45,4.45,0,0,1-.29-.75c-.1-.54-.13-1.09-.23-1.62-.22-1.25-.45-1.4-1.69-1l.52-.6C69.71,66.24,69.12,63.93,67.21,62.5Z"/><path class="cls-5" d="M66.94,57.86l-.16,0,.11-.85,1.31.5c-.12-1.53-.08-3,1.2-4.1-.15.29.88.67-.07.9h0l0-.49a2.81,2.81,0,0,0-.73,2.84l-.3-.92c0,1.07-.22,1.93.53,2.68a1.84,1.84,0,0,1,.34,1.26c0,.58.32.71.7.9a3.21,3.21,0,0,1,1,.69,5.29,5.29,0,0,0-3.46-.82l0,0a2.78,2.78,0,0,1,.6-.19c.34,0,.69,0,1,0a3.17,3.17,0,0,0-1-2.36C67.68,57.4,67.18,57.41,66.94,57.86Z"/><path class="cls-5" d="M67.47,105.52l-.73-.92c-.08.36-.12.73-.23,1.09a4.07,4.07,0,0,1-.5,1c1-2.56,0-4.71-1.2-6.81.32,0,.32,0,1.26,1.8l.78-3.14.12,0a23.66,23.66,0,0,0-.54,3.51,4.94,4.94,0,0,0,1.17,3.29Z"/><path class="cls-5" d="M75.54,87.4,75,85.55l.09,0c.07.16.13.32.21.48a2.8,2.8,0,0,0,1.86,1.71A2.38,2.38,0,0,1,78.67,91c.12-.76-.27-1.13-.88-1.47a6.22,6.22,0,0,1-1.08-1Zm1.22.75,1.56,1.53A1.39,1.39,0,0,0,76.76,88.15Z"/><path class="cls-5" d="M77.26,67.39h-1l-.06.13,1.42,1-.09.15-2.85-1.76a2.51,2.51,0,0,0-.31-.61c-.49-.53-1-1-1.48-1.62L75.25,66a.19.19,0,0,1,.1.1C75.55,67.13,76.47,67.13,77.26,67.39Z"/><path class="cls-5" d="M66.69,65.37c1.58.9,2.15,2.44,2.58,4.07l-.18-.37a1.31,1.31,0,0,0-.25-.43c.07,2.18,1.76,3.5,2.71,5.26-.21-.23-.42-.44-.62-.67a7.25,7.25,0,0,1-.61-.76c-.56-.92-1.06-1.88-1.65-2.78a18.11,18.11,0,0,0-1.28-1.55l1.19.7C68.83,67.19,67.48,66.43,66.69,65.37Z"/><path class="cls-5" d="M38.22,98.05a2.07,2.07,0,0,1,2.41-1.82c.74.09,1.49.16,2.24.21a1.45,1.45,0,0,0,.49-.11,5.24,5.24,0,0,1-4.17,3.58,20.11,20.11,0,0,0,2.21-1.3,16.74,16.74,0,0,0,1.71-1.76l-.15-.2a23.28,23.28,0,0,0-2.88-.16,2.35,2.35,0,0,0-1.15.66A6.57,6.57,0,0,0,38.22,98.05Z"/><path class="cls-5" d="M76.3,74.59,74.17,72.4c0-.25-.13-.68-.24-1.1s-.24-.81-.37-1.22l.22-.06c0,.14.12.29.16.44.14.61.11,1.32,1.1,1.26.45,0,.92.4.67.84-.45.82.08,1.16.53,1.59l.27.23Z"/><path class="cls-5" d="M31.57,69c.08.15.26.35.22.43a6,6,0,0,1-1,1.76,4.45,4.45,0,0,0-1.36,2.54c0,.21-.12.41-.18.62L29,74.29l1.08-3H27.32v2.09h-.1c-.07-.22-.14-.44-.19-.67-.25-1.22.07-1.58,1.28-1.56A12.09,12.09,0,0,0,30.39,71C31,70.89,31.38,70.23,31.57,69Z"/><path class="cls-5" d="M79.69,84.51l-1-1.3-.4.49c.52-1-.13-1.54-.84-1.92a1.72,1.72,0,0,0-2.18.39c-.06-.7.07-.76,2-.89-.11-.19-.19-.36-.29-.52a1.7,1.7,0,0,1-.26-.38C78.29,81.31,78.85,83,79.69,84.51Z"/><path class="cls-5" d="M30.68,80.94l-1.61,2.57-.13-.07c.29-.55.57-1.11.88-1.65s.61-.91.88-1.38.61-.53.92-.32a4.9,4.9,0,0,0-.64,1c-.51,1.41-1,2.84-1.46,4.27,0,.06-.11.1-.28.1L30.83,81Z"/><path class="cls-5" d="M73.27,40.51a9.83,9.83,0,0,1,5.55.31,8.45,8.45,0,0,0,2.33.21,4.21,4.21,0,0,1-.64.18,15,15,0,0,1-2.12,0c-.5-.07-1-.41-1.46-.5-.77-.13-1.57-.15-2.35-.22l0,.22.89.28,0,.19-2.12-.66Z"/><path class="cls-5" d="M73.2,51.93a5.27,5.27,0,0,1,.72.93,1.14,1.14,0,0,0,1.77.62l-1.39-2,.15-.1,2.25,3.06-.1.08-.55-.62.13.74c-.33-.39-.39-1.21-1.3-.62l.73,1-.06.06L74.26,54a2.86,2.86,0,0,0-.15-.4c-.29-.56-.59-1.1-.89-1.65Z"/><path class="cls-5" d="M82.5,42.62c-2,1.17-3.32.3-4.85-.65-.5-.32-1-.67-1.45-1a.84.84,0,0,1,1.09.17,4.59,4.59,0,0,0,4.91,1.42C82.27,42.56,82.35,42.6,82.5,42.62Z"/><path class="cls-5" d="M62.76,99.22c-.25.93-.4,1.67-.66,2.38a3,3,0,0,0,.38,2.41c.37.75.75,1.5,1.06,2.27a3.14,3.14,0,0,1,.06,1,13.7,13.7,0,0,0-.55-1.55c-.37-.81-.88-1.57-1.19-2.4C61.5,102.39,61.92,100.64,62.76,99.22Z"/><path class="cls-5" d="M34.94,90.77a5.1,5.1,0,0,1,.78-.53,1.35,1.35,0,0,1,.8,0c-.81-.11-1,.53-1.18,1,0,.06.24.24.36.36L34.61,94l-.07-.86-.67.56a3.83,3.83,0,0,0,1.07-2.91Z"/><path class="cls-5" d="M76.15,62.92l-3.36-3,0-.07.81.53-.72-2a3.79,3.79,0,0,1,.55.65c.3.6.51,1.25.82,1.85.12.22.41.34.6.54.48.47.94,1,1.4,1.44Z"/><path class="cls-5" d="M62,81.68a4.18,4.18,0,0,1-.78-3.51l.05,1.19.2,0c.08-1,.19-2,.21-3,0-.26-.32-.53-.5-.78,0-.08-.19-.12-.22-.2a.33.33,0,0,1,.09-.24.63.63,0,0,1,.4.11,2.5,2.5,0,0,1,.51,2.13c-.13.83-.37,1.63-.52,2.45a1.58,1.58,0,0,0,.13.63C61.67,80.88,61.83,81.28,62,81.68Z"/><path class="cls-5" d="M86.13,86.53c-.34-1.07-.65-2.17-1-3.23-.32-.88-.76-1.72-1.14-2.58a3.24,3.24,0,0,1-.34-1.18,14.45,14.45,0,0,1,1.34,2.31c.5,1.33.84,2.73,1.23,4.11a1.6,1.6,0,0,1,0,.57Z"/><path class="cls-5" d="M44.72,102a2.71,2.71,0,0,1,.13-.71c.37-.81.78-1.61,1.17-2.4l.1.38c.86-.75.49-1.82.69-2.74a3.57,3.57,0,0,1-.66,3.32c-.49.67-.87,1.41-1.3,2.12Z"/><path class="cls-5" d="M30.75,57.25a21.52,21.52,0,0,0-.47,2.6c-.12,1.63-1,3-1.22,4.62a6.28,6.28,0,0,0-.22,1.08c0,.26.22.51.35.79-.27,0-.59-.08-.52-.63a9.71,9.71,0,0,1,.23-1.31c.31-1.15.68-2.28,1-3.43s.42-2.13.63-3.19a5.18,5.18,0,0,1,.17-.56Z"/><path class="cls-5" d="M26.43,83.23A10.42,10.42,0,0,1,28,81.37a4.15,4.15,0,0,0,1.43-2.74,11.11,11.11,0,0,1,.34-1.53c.53.66-.59,1.46.15,2.24l-3.28,4Z"/><path class="cls-5" d="M29.55,46.92A25.2,25.2,0,0,0,28.32,50a10.5,10.5,0,0,0-.27,2.91,4.52,4.52,0,0,0,.6,1.48l-1.06-.61a3.13,3.13,0,0,0,.15-.83A9.79,9.79,0,0,1,29.55,46.92Z"/><path class="cls-5" d="M75,87.93a5.91,5.91,0,0,0,2.41,6.34C75.66,94.17,73.68,90,75,87.93Z"/><path class="cls-5" d="M75.58,77.73l2,.19A5,5,0,0,0,75.15,76a4.08,4.08,0,0,1,3.39,4.12,2.15,2.15,0,0,0-2.47-2.22c-.15,0-.31-.13-.46-.21Z"/><path class="cls-5" d="M56,81.54c-.77,2.24-.57,4.54-.45,6.84A10.38,10.38,0,0,1,56,81.54Z"/><path class="cls-5" d="M58.27,100.78a30.12,30.12,0,0,1,.4-3.15,17.19,17.19,0,0,1,.91-2.58c0-.1.23-.15.35-.22,0,.13.09.31,0,.38a6.24,6.24,0,0,0-1.16,3.16c-.11.8-.16,1.62-.24,2.43Z"/><path class="cls-5" d="M27.69,64.26c.47-.62,1.21-.93,1-1.74a3.54,3.54,0,0,0-.47-1,2.47,2.47,0,0,1,.76-3.23,2.78,2.78,0,0,0-.3,3.49C29.28,62.92,29,63.55,27.69,64.26Z"/><path class="cls-5" d="M72.31,95.14a2.54,2.54,0,0,1,.16,2c-.24,1.23-.48,2.47-.63,3.71-.06.47.12,1,0,1.48a8.5,8.5,0,0,1-.27-2c.08-1,.39-2,.54-3C72.25,96.67,72.25,96,72.31,95.14Z"/><path class="cls-5" d="M26.46,51.56c.94-1.09.41-2.36.56-3.55a2.58,2.58,0,0,1,.26-.91c.07-.13.38-.12.61-.07-.71.28-.78.61-.32,1.37-.12.2-.26.33-.26.47a11.83,11.83,0,0,1,0,1.58,5.12,5.12,0,0,1-.55,1.19Z"/><path class="cls-5" d="M31.75,86.79c0-1.05-1.47-1.39-1.06-2.72a11.08,11.08,0,0,1,1.21-2.78c-.32,1-.55,1.78-.85,2.55a1.56,1.56,0,0,0,.49,1.8C31.82,86,32.24,86.28,31.75,86.79Z"/><path class="cls-5" d="M69.52,102.35A2,2,0,0,1,69,100.4c.26-1.36.62-2.7.92-4.05a9.48,9.48,0,0,0,.09-1,3.1,3.1,0,0,1-.08,2c-.23,1.18-.49,2.36-.65,3.56A4.51,4.51,0,0,0,69.52,102.35Z"/><path class="cls-5" d="M53,93l-1,6.82c-.3-2.35.79-4.53.78-6.85Z"/><path class="cls-5" d="M78.66,70.77c-.34.51-1,.35-1.35,0-.9-.74-1.7-1.61-2.55-2.42l.23-.25c.3.29.61.58.9.88a9.32,9.32,0,0,0,1.33,1.4A4.42,4.42,0,0,0,78.66,70.77Z"/><path class="cls-5" d="M66.85,64.94c-.66-.72-1.37-1.41-2-2.18A1.94,1.94,0,0,0,63,62.14a4.32,4.32,0,0,1-.62,0,2.45,2.45,0,0,1,2.87.45c.29.39.63.75.93,1.13s.57.72.85,1.08Z"/><path class="cls-5" d="M62.89,123c-.24-.7-.5-1.39-.7-2.09a3.78,3.78,0,0,1,0-1h0"/><path class="cls-5" d="M57.71,84.68c-.21,1.93-.34,3.69.72,5.41C57.19,89.33,57,85.77,57.71,84.68Z"/><path class="cls-5" d="M48.27,101.94l-.64,2.27-.49-4.94.16,0,.49,3.46.34-.82Z"/><path class="cls-5" d="M56.57,62.38c.57-.5.85,0,1.17.34l.44.66-.4.33c-.15-.12-.13-.78-.64-.29,0,0-.38-.13-.44-.26A3.26,3.26,0,0,1,56.57,62.38Z"/><path class="cls-5" d="M64.09,65.86l.29.47-.61-.17.54,1.13-.11,0-2-2.32,1.1.25Z"/><path class="cls-5" d="M71.59,78.35c.46-.48.84,0,1.18.13.77.41,1.51.89,2.26,1.33l.53.34-.13.24Z"/><path class="cls-5" d="M26.67,55.31c-.06.44-.1.88-.19,1.31a2.24,2.24,0,0,0,.36,1.92.66.66,0,0,1,.08.46,19,19,0,0,1-.71,2.17A4.11,4.11,0,0,1,26.4,60c.53-1.06-.23-2-.16-3,0-.59.14-1.17.22-1.75Z"/><path class="cls-5" d="M73,63a7.32,7.32,0,0,1,1.43.37A3.91,3.91,0,0,1,76.78,66c-1-1.38-2.06-2.53-3.89-2.65Z"/><path class="cls-5" d="M59.73,100.86a8.19,8.19,0,0,0-.86,2.63,7.38,7.38,0,0,0,1,2.46A3.38,3.38,0,0,1,59.73,100.86Z"/><path class="cls-5" d="M51.78,79a6.8,6.8,0,0,0-.15-.76c-.36-1.09-.74-2.18-1.09-3.28-.11-.35-.27-.81.31-.87a2.18,2.18,0,0,0,0,.71c.37,1.28.78,2.56,1.16,3.85A1.12,1.12,0,0,1,52,79Z"/><path class="cls-5" d="M63.84,97.88c-.06-.06-.15-.11-.15-.16a3,3,0,0,0-1.32-2.32A1.58,1.58,0,0,1,61.82,94C62.29,95.38,64.19,96.05,63.84,97.88Z"/><path class="cls-5" d="M29.22,42.56l.2.33-1.1,1.2.21,1.18h-.08l-.71-1.85C28.69,43.84,28.59,42.59,29.22,42.56Z"/><path class="cls-5" d="M51.55,68.07l-.34-.22a3,3,0,0,1,1.33-3.36c-.4.64-.75,1.13-1,1.66-.11.2-.21.61-.11.68C51.89,67.22,51.66,67.64,51.55,68.07Z"/><path class="cls-5" d="M85.2,75.56c1.42.49,3,.43,4.37,1.49L85.13,75.8Z"/><path class="cls-5" d="M26.7,80.53A5.48,5.48,0,0,1,29,76.11,8,8,0,0,0,26.7,80.53Z"/><path class="cls-5" d="M37.43,66A15.19,15.19,0,0,1,38,61.36l-.37,5L37.41,66Z"/><path class="cls-5" d="M67.06,44.48c.22.15.44.31.67.45a4,4,0,0,0,.43.22,3,3,0,0,1-.84,2.66c-.06-.64,1.2-1.16.16-1.89.41-.62.07-1.05-.42-1.44Z"/><path class="cls-5" d="M41.93,101.66a5.08,5.08,0,0,1,2.6-3.79A8.35,8.35,0,0,0,41.93,101.66Z"/><path class="cls-5" d="M74.44,69,77,72.25C75.58,71.41,74.16,69.37,74.44,69Z"/><path class="cls-5" d="M29.72,54.53c-.58,1.46-1.07,3-2.57,3.93,0-.14,0-.24.06-.27a8.69,8.69,0,0,0,2.06-3,4,4,0,0,1,.46-.62Z"/><path class="cls-5" d="M63.25,88l.93-5.18.19,0L63.48,88Z"/><path class="cls-5" d="M42.66,62l-.3.06c.39-.72.35-.77-.82-1l1,0,.09-.55a9.54,9.54,0,0,1,.5,1.54,8.82,8.82,0,0,1-.1,1.68Z"/><path class="cls-5" d="M70.82,83.37c.92,1.33,1.75,2.65,3.51,3.08C73.05,86.65,71.09,84.88,70.82,83.37Z"/><path class="cls-5" d="M39,86.18l.35,5.26h-.16l-.43-5.27Z"/><path class="cls-5" d="M35.56,58.52c.74-.11.82.42.84.76l.62-.65.95.61-.78.29-.08-.38-1,1.32c.16-.83.39-1.58-.53-2Z"/><path class="cls-5" d="M58.63,69.76a7.86,7.86,0,0,1-.49,4.64Z"/><path class="cls-5" d="M64.09,65.86l-.76-.6-1.49-1.84.08-.06,3,2.8Z"/><path class="cls-5" d="M67.84,79.34c.08,1.74.15,3.48.23,5.23h-.2l-.24-5.19Z"/><path class="cls-5" d="M18.11,85.46c-1.18.81-2.35,1.63-3.54,2.43a2.06,2.06,0,0,1-.68.17h0c1.3-.86,2.59-1.73,3.89-2.58.08-.06.23,0,.34,0Z"/><path class="cls-5" d="M23.66,55.27l.77-3.81.32.07-.9,3.78Z"/><path class="cls-5" d="M60.11,85.61c.68,1.48-.67,2.6-.74,3.94l-.19,0c.12-.47.24-.94.38-1.41A10.38,10.38,0,0,0,60,86.69a3.7,3.7,0,0,0-.16-1.07Z"/><path class="cls-5" d="M71.25,94.69C68.91,92.1,68.91,92.1,69,91.42Z"/><path class="cls-5" d="M51.11,107.38a6.77,6.77,0,0,1,.85-5A11.61,11.61,0,0,0,51.11,107.38Z"/><path class="cls-5" d="M41.15,70.73c0-.69,0-1.39-.15-2.07s-.26-1.38-.39-2C41.23,67.07,41.56,69.15,41.15,70.73Z"/><path class="cls-5" d="M45.47,91.09V86.63C45.67,88.08,46.05,89.52,45.47,91.09Z"/><path class="cls-5" d="M32.23,88.84c-.24-2,.36-4.31,1.18-4.74A11.21,11.21,0,0,0,32.23,88.84Z"/><path class="cls-5" d="M69.55,87.58c1.14-.12,2.86,1.29,2.83,2.28A5.42,5.42,0,0,0,69.55,87.58Z"/><path class="cls-5" d="M39.23,62.41v4.45l-.28,0,.23-4.47Z"/><path class="cls-5" d="M71.73,80.66l2.21,3.61-.2.11-2.2-3.6Z"/><path class="cls-5" d="M41.09,89.63l1.13-3.85.21.06-1.11,3.9Z"/><path class="cls-5" d="M74.45,93.41c-.48-1.08.26-2.36-.71-3.44,0,0,.27-.14.29-.11a1.34,1.34,0,0,1,.4.68C74.48,91.49,74.45,92.46,74.45,93.41Z"/><path class="cls-5" d="M27.87,58.58l-.78,4.36-.24,0C27.47,61.56,26.93,60,27.87,58.58Z"/><path class="cls-5" d="M61.16,68.79c.12,1,.25,2.07.35,3.11a3.08,3.08,0,0,1-.09.67h-.26V68.8Z"/><path class="cls-5" d="M34.08,73.17v-3.7C34.73,70.73,34.3,71.86,34.08,73.17Z"/><path class="cls-5" d="M34.94,90.77a2.93,2.93,0,0,0-.47-.65c-1.1-.77-1.12-.78-.79-2a2.18,2.18,0,0,1,.57-.95,11.44,11.44,0,0,0-.39,1.26c-.15.64-.12,1.23.64,1.53.36.14.69.34.44.83Z"/><path class="cls-5" d="M80,86.24l-2.51-2.06C78.21,84.14,79.27,85,80,86.24Z"/><path class="cls-5" d="M92.57,78.31l-2.9-1.13.09-.23,2.94,1.12Z"/><path class="cls-5" d="M57.29,51.51A1.72,1.72,0,0,1,56.53,50a2.61,2.61,0,0,1,.57.39c.26.33.46.7.68,1Z"/><path class="cls-5" d="M26.39,46.28a4.68,4.68,0,0,0-2,3.14A3.36,3.36,0,0,1,26.39,46.28Z"/><path class="cls-5" d="M56.39,104.57l-.14-.19-.07.71a3.2,3.2,0,0,1,.47-2.79Z"/><path class="cls-5" d="M31.23,59.53l-.37.12,1.63-3.34.19.09c-.36.74-.73,1.48-1.07,2.23a5.11,5.11,0,0,0-.23.76Z"/><path class="cls-5" d="M81.67,52,80,49.42l.37.13.09-.31,1.27,2.67Z"/><path class="cls-5" d="M67.33,74.82,65.88,71.3c.4.08.42.13.89,1.53.21.63.44,1.26.67,1.89Z"/><path class="cls-5" d="M41.22,47.1v.2c-.36.15-.86-.35-1.13.25a.55.55,0,0,1-.35-.06,3.78,3.78,0,0,1-1.12-.85l.68.3.62.25.24-.7a1.13,1.13,0,0,0,.05-.2C40.41,46.77,40.55,47.3,41.22,47.1Z"/><path class="cls-5" d="M67.65,93.08,65.93,90.2l.2-.12L67.84,93Z"/><path class="cls-5" d="M63.93,52.45l-1.9.71C62.11,52.43,62.11,52.43,63.93,52.45Z"/><path class="cls-5" d="M77.9,84.93c.35,1.78.93,2.31,2.51,2.5A2.1,2.1,0,0,1,77.9,84.93Z"/><path class="cls-5" d="M31.23,59.53l.15-.14a14.17,14.17,0,0,1-.52,1.75,6.58,6.58,0,0,1-1,1.56Z"/><path class="cls-5" d="M20.63,83.26l2.24-2.13.24.28L20.6,83.24Z"/><path class="cls-5" d="M62.19,120c-.16,0-.43-.06-.46-.14-.29-.91-.54-1.83-.79-2.75,0,0,.06-.11.09-.17.39,1,.77,2,1.16,3.07Z"/><path class="cls-5" d="M50.16,89.43c-1.54.59-1.4,2-1.74,3.38C48.36,91,48.84,89.53,50.16,89.43Z"/><path class="cls-5" d="M59.61,78.8c-.15-1.37.17-2.66-.61-3.76C59.66,75,59.93,76.62,59.61,78.8Z"/><path class="cls-5" d="M53.5,48s0-.09-.09-.11l-.48-.11.85-.52.82.51-.08.23Z"/><path class="cls-5" d="M69.33,54.29a15.38,15.38,0,0,0,.38,1.79c.18.54.49,1,.66,1.57-.66-1-1.51-2-1-3.36Z"/><path class="cls-5" d="M54.27,103c-.27,1.36-.56,2.59.18,3.77C53.67,106,53.58,104.14,54.27,103Z"/><path class="cls-5" d="M60.67,115.13l-1.31-3,.2-.08,1.32,3Z"/><path class="cls-5" d="M31.38,45.7c0,.47-.07.94-.09,1.41s0,.7,0,1H31l.15-2.47Z"/><path class="cls-5" d="M72.08,75.87l-1.8-2.52.16-.12,1.86,2.51Z"/><path class="cls-5" d="M36.77,45.25c.64.21,1.36.41,2,.7a4.19,4.19,0,0,1,1,.78c-.87-.64-2-.67-2.88-1.26A.53.53,0,0,1,36.77,45.25Z"/><path class="cls-5" d="M33.85,59.92l-.76,3.33-.19,0,.76-3.33Z"/><path class="cls-5" d="M41.34,60.72l-.4,2-.26,0,.26-2.08Z"/><path class="cls-5" d="M36.42,74.84,38.1,72A5.08,5.08,0,0,1,36.42,74.84Z"/><path class="cls-5" d="M34.19,64.83,33.13,68,33,68l1-3.18Z"/><path class="cls-5" d="M18.12,85.48a3.45,3.45,0,0,1,.61-1.07,18.09,18.09,0,0,1,1.9-1.15l0,0a2.8,2.8,0,0,1-.41.49c-.69.59-1.39,1.16-2.08,1.73Z"/><path class="cls-5" d="M68.49,78.73l-.33-2.82.19,0,.38,2.8Z"/><path class="cls-5" d="M75.61,77.7C74.34,77.43,74,76.59,74.52,75c0,1.08-.16,2.19,1.06,2.77Z"/><path class="cls-5" d="M44.39,68l.2,3h-.2Z"/><path class="cls-5" d="M54.43,97l.84-3.18.21,0L54.59,97Z"/><path class="cls-5" d="M53.51,86.54l1.24,2.6-.16.07-1.26-2.56Z"/><path class="cls-5" d="M35.37,81l-.87,2.75-.16,0,.81-2.76Z"/><path class="cls-5" d="M37.41,66a6.79,6.79,0,0,1-.5,3.67c.17-1.2.35-2.42.52-3.65Z"/><path class="cls-5" d="M46.89,69.18,45.4,71c.27-.94,1.05-1.18,1.67-1.6Z"/><path class="cls-5" d="M67.15,71.67l2,1.85A3.62,3.62,0,0,1,67.15,71.67Z"/><path class="cls-5" d="M60.38,70.55A1.13,1.13,0,0,1,59.59,69Z"/><path class="cls-5" d="M32.35,71.85l-.44,2C31.5,73.8,31.55,73.46,32.35,71.85Z"/><path class="cls-5" d="M71.1,57.46V55.09h.27l-.17,2.37Z"/><path class="cls-5" d="M52.27,61.68l-.46,1.09c-.33-.36-.37-.91-.05-1.11C51.91,61.57,52.18,61.67,52.27,61.68Z"/><path class="cls-5" d="M54.78,79.46l-.33-3.28h.19l.28,3.28Z"/><path class="cls-5" d="M74.07,97.36l.37,2.65-.13,0-.5-2.64Z"/><path class="cls-5" d="M45.74,75.05,46,73l.23,0-.24,2Z"/><path class="cls-5" d="M42.19,56.11l1.8-1,.1.14-1.72,1.13Z"/><path class="cls-5" d="M29.88,75.15l1.18-1.9.21.13-1.22,1.91Z"/><path class="cls-5" d="M36.75,61,35.6,63.35l-.16-.08,1.15-2.42Z"/><path class="cls-5" d="M29.73,54.55a5.12,5.12,0,0,1,.55-2.17l.24.08c-.26.69-.53,1.38-.8,2.07Z"/><path class="cls-5" d="M51.2,51l-.15-1,.34-.26.46.44-.23.26.15-.49C52,50.6,52,50.6,51.2,51Z"/><path class="cls-5" d="M48.45,86.46,48.84,84l.18,0-.34,2.43Z"/><path class="cls-5" d="M35,40c.16-.15.3-.4.48-.43,1.45-.3,2.91-.56,4.38-.82a4.28,4.28,0,0,1,.52,0l0,.21-2.68.52.35.14v.12l-2.6.27Z"/><path class="cls-5" d="M54.22,44.89l.53-.21.06.17-.87.28,0,.09.55-.07-1.58.93-.09,0,1.67-1.87.17.15Z"/><path class="cls-5" d="M52.58,46.69l-.3.43c-.81-.12-.89-.23-1-1.44C52,45.71,51.76,46.85,52.58,46.69Z"/><path class="cls-5" d="M70.26,30.37c.49-.63.89-.19,1.2.17.13.14,0,.48-.06.72l.09.6-1.2-.1c0-.57,0-1,0-1.41Z"/><path class="cls-5" d="M48.32,40H44.91a10.24,10.24,0,0,1,3.4-.22Z"/><path class="cls-5" d="M75.55,38.26l1.78-.37v-.12h-.88l0-.21,3.33-.67.07.3C78.33,37.42,77.22,39,75.55,38.26Z"/><path class="cls-5" d="M36.19,33.5,46.35,31l7.8-1,6.34.78,6.2.47,4.8.6,1.29,1.34.61,2.67-3.14,2.59s-5.71.27-6.66.29S53.1,37.67,53.1,37.67l-5.81-.26L36.68,34.76Z"/></svg>