<svg id="Capa_1" data-name="Capa 1" xmlns="http://www.w3.org/2000/svg" viewBox="0 0 77.11 84.25"><defs><style>.cls-1{fill:#ededeb;}.cls-2{fill:#dfe3e6;}</style></defs><path class="cls-1" d="M39.46,4.6c21,.06,38,16.06,37.64,37-.47,24.88-20.5,38.11-38.19,38C15.79,79.31.42,60.21,1.11,41.6,1.92,19.8,17,4.53,39.46,4.6Zm28.4,36.84C67.81,26,54.7,12.87,39.2,12.77,23.31,12.67,9.56,26,9.45,41.65S23.06,70.75,39,70.7C55.33,70.65,67.92,57.91,67.86,41.44Z"/><path class="cls-1" d="M39.16,45.29c3.3,0,6.62-.18,9.91,0,4.5.3,5.65,2.36,3.91,6.46-2.6,6.15-8.88,9.61-16.17,8.88A14.15,14.15,0,0,1,24.1,49.88c-.7-2.79,0-4.54,3.18-4.54,4,0,7.92,0,11.88,0Z"/><path class="cls-2" d="M27,30.72c2.74.09,4.44,1.06,4.51,3.42.08,2.67-1.38,4.47-4.2,4.29-2.22-.14-3.47-1.75-3.53-4C23.71,32,25.43,31.15,27,30.72Z"/><path class="cls-2" d="M50.22,38.4C48,38.21,46.49,37,46.33,34.76a3.44,3.44,0,0,1,3.52-3.86,3.31,3.31,0,0,1,3.87,3.44C53.86,36.69,52.44,37.9,50.22,38.4Z"/></svg>