<svg id="Capa_1" data-name="Capa 1" xmlns="http://www.w3.org/2000/svg" xmlns:xlink="http://www.w3.org/1999/xlink" viewBox="0 0 64 255.99"><defs><style>.cls-1{fill:none;}.cls-2{opacity:0.69;}.cls-3{clip-path:url(#clip-path);}.cls-4{fill:#747575;}</style><clipPath id="clip-path"><rect class="cls-1" width="64" height="255.99"/></clipPath></defs><g class="cls-2"><g class="cls-3"><path class="cls-4" d="M.15,178.13c.65,7.94,4.36,17.19,9.34,26.42A230.2,230.2,0,0,0,26.83,231.2c6,8.1,11.71,15,15.42,19.36,1.81,2.14,3.26,3.81,3.87,4.53l.34.41,0,0,0-.07a1.16,1.16,0,0,1-.1-.31,1.94,1.94,0,0,1,.09-.57,1.75,1.75,0,0,1,.73-.55,2,2,0,0,1,.46,0l.16.06.12.07,0,0s0,0,0,0l-.12-.12-.53-.52L45.85,255l.56.55.17.17.09.07a.81.81,0,0,0,.2.13L47,256a2.08,2.08,0,0,0,.46,0,1.74,1.74,0,0,0,.74-.56,1.81,1.81,0,0,0,.08-.57.87.87,0,0,0-.1-.32.44.44,0,0,0-.06-.1.93.93,0,0,0-.13-.18l-.38-.46c-.71-.84-2-2.3-3.88-4.53-3.69-4.36-9.36-11.21-15.33-19.26a227,227,0,0,1-17.19-26.42c-4.95-9.15-8.49-18.1-9.1-25.62Zm23.71-68.67-.85-.52h0l0,0-.05.09c-.05.08-.12.19-.21.35s-.46.76-.8,1.34c-.68,1.17-1.65,2.87-2.81,5C16.79,120,13.72,126,10.72,132.8,4.75,146.45-1,163.8.15,178.13l2-.16C1,164.17,6.6,147.22,12.56,133.6c3-6.78,6-12.69,8.3-16.9,1.15-2.11,2.11-3.79,2.79-4.94l.78-1.32c.09-.15.16-.27.21-.34l.05-.09v0h0l-.85-.53m36.85-63c-1.65,14-11,29.51-20,41.65-4.49,6-8.89,11.21-12.16,14.86-1.63,1.82-3,3.27-3.93,4.26l-1.09,1.13-.29.29-.07.07,0,0h0l.71.71.7.71h0l0,0,.07-.07.3-.3,1.11-1.15c.95-1,2.32-2.46,4-4.31,3.3-3.68,7.74-8.89,12.28-15C51.37,77.14,61,61.24,62.69,46.7Zm0-20.55c2.3,7.57.94,12.3,0,20.55l2,.23c1-8,2.41-13.28,0-21.36ZM41.51,2c-.58-.48-1-.84-1.34-1.11L39.81.56a.91.91,0,0,1-.1-.1l0,0,0,0,.07.1a1.12,1.12,0,0,1,.11.43,1,1,0,0,1-.14.54,1,1,0,0,1-.49.42.9.9,0,0,1-.55,0,.48.48,0,0,1-.15,0h0a4.59,4.59,0,0,1,.57.38c1.2.85,3.74,2.84,6.7,5.43a100.22,100.22,0,0,1,9.11,9c2.84,3.27,5,6.48,5.86,9.17l1.92-.58c-.94-3.11-3.4-6.6-6.27-9.9a100.48,100.48,0,0,0-9.3-9.2c-3-2.62-5.59-4.66-6.86-5.56a8,8,0,0,0-.75-.5l-.19-.1a1.13,1.13,0,0,0-.2,0,1,1,0,0,0-.58,0,1.14,1.14,0,0,0-.5.42,1.12,1.12,0,0,0-.14.56A.91.91,0,0,0,38,1.5a1,1,0,0,0,.17.24,6,6,0,0,0,.7.66c.33.28.79.66,1.39,1.14ZM1.15,178.05l1-.08Zm22.71-68.59-.71-.71-.08.08-.06.1ZM61.7,46.59l1,.11Zm0-21-1,.29Z"/></g></g><rect class="cls-1" x="-591.23" y="-384.13" width="1412.37" height="1621.3"/><rect class="cls-1" x="-591.23" y="-384.13" width="1412.37" height="1621.3"/><rect class="cls-1" x="-591.23" y="-384.13" width="1412.37" height="1621.3"/><rect class="cls-1" x="-591.23" y="-384.12" width="1412.37" height="1621.3"/></svg>