<svg id="Capa_1" data-name="Capa 1" xmlns="http://www.w3.org/2000/svg" viewBox="0 0 243.38 243.96"><defs><style>.cls-1{fill:#f6f4ef;}</style></defs><path class="cls-1" d="M243.38,121.76c1.67,63.17-50.71,122-121.17,122.2C58.24,244.19.38,194.72,0,122.66-.37,51.72,56-.48,122.89,0,192.49.5,244.7,58.27,243.38,121.76ZM110,171.33c4.82-.67,8-3.1,10.92-6.64,13-15.93,26.29-31.69,39.47-47.5,4.67-5.62,9.66-11,14-16.87,3.77-5.12,2.73-9.91-2.13-14-4.05-3.43-9.13-3.29-13.44.71A71.79,71.79,0,0,0,153,93.78c-12.77,15.29-25.49,30.62-38.34,45.84-4.32,5.12-4.57,5.09-9.15.69C100,135,94.69,129.49,89.23,124.14a35.05,35.05,0,0,0-6-5.15c-4.59-2.8-9-2-12.55,1.91-3.33,3.61-4.4,7.9-1.32,11.78a259.19,259.19,0,0,0,36.41,36.68C106.94,170.37,108.69,170.73,110,171.33Z"/></svg>