<svg id="Capa_1" data-name="Capa 1" xmlns="http://www.w3.org/2000/svg" viewBox="0 0 253.03 250.59"><defs><style>.cls-1{fill:#f6f4ef;}</style></defs><path class="cls-1" d="M127,2.2A121.44,121.44,0,0,1,248.43,128.41c-2.51,67-57,119.9-127,117.66-63-2-117.79-54.67-116.89-123.7A121.44,121.44,0,0,1,127,2.2Zm-1,166.37h22.91c10,0,19.92,0,29.88-.06,4.07,0,7.35-1.44,7.46-6.14.09-4.37-2.86-6.58-6.69-7.45a32,32,0,0,0-6.94-.37q-45.83,0-91.64,0a44,44,0,0,0-6,.17c-4.26.59-7.75,2.35-8.06,7.26-.25,3.85,2.72,6.13,8.25,6.54,2,.15,4,.06,6,.06Zm52.85-67.64c-.1-7.26-6.74-14-14-14.18-8.17-.19-14.22,5.91-14.31,14.44-.08,7.88,6.58,14.86,14.11,14.77S178.93,108.67,178.82,100.93ZM88.45,86.75c-7.73.2-14.09,7.13-13.85,15.11S81.91,116.42,89.46,116c7.29-.43,13.52-7.17,13.48-14.59C102.89,93.49,96,86.55,88.45,86.75Z"/></svg>