<svg id="Capa_1" data-name="Capa 1" xmlns="http://www.w3.org/2000/svg" viewBox="0 0 75.44 69.84"><defs><style>.cls-1{fill:#f6ebe3;}.cls-2{fill:#f6e9e0;}</style></defs><path class="cls-1" d="M38.16,4.17c18.61.06,32.16,13.59,32,31.94C70,54.26,55.94,68.32,37.93,68.38c-18.44.07-32.46-14.33-32.5-33C5.39,16.05,23,2,38.16,4.17Zm0,6.24a25.93,25.93,0,0,0-25.92,25c-.4,13.7,12.19,26.75,25.7,26.63,13.18-.12,25.42-12.6,25.42-25.91C63.36,22.3,51.89,10.59,38.17,10.41Z"/><path class="cls-2" d="M37.17,48.94c-4.19.24-7.25-2-9.53-5.53-1.08-1.65-2.17-3.65-.35-5.33,2-1.85,3.28,0,4.83,1.28,5.5,4.7,5.89,4.63,11.29.2.5-.41.8-1.05,1.29-1.47a2.62,2.62,0,0,1,3.53-.19c1.27,1,1.11,2.35.72,3.59C47.51,46.06,42.76,49.08,37.17,48.94Z"/><path class="cls-1" d="M53.38,30.18A2.94,2.94,0,0,1,50,32.37a2.68,2.68,0,0,1-2.67-3.16,2.72,2.72,0,0,1,3.36-2.49C52.47,27,53.63,27.86,53.38,30.18Z"/><path class="cls-1" d="M28.2,30.24c-.85,1.84-2.1,2.59-3.87,2s-2.65-1.77-2-3.6a2.83,2.83,0,0,1,3.81-1.77A2.62,2.62,0,0,1,28.2,30.24Z"/></svg>