<svg id="Capa_1" data-name="Capa 1" xmlns="http://www.w3.org/2000/svg" viewBox="0 0 854 1051"><defs><style>.cls-1{fill:none;stroke:#30c4b5;stroke-width:3px;}.cls-2{fill:#a9a5c5;stroke:#a9a5c5;}.cls-3{fill:#edcbbf;}.cls-4{fill:#508ec1;}.cls-5{fill:#737575;}.cls-6{fill:#f1916c;}.cls-7{fill:#30c4b5;}.cls-8{fill:#747474;}</style></defs><path class="cls-1" d="M734,477c-53.06,41.52-104,64.92-140,118-39.67,58.48-64,117.88-68.41,163.22L514.44,874.3s4.17,61-19.26,90.75c-19.81,25.12-40.21,34.81-73.64,46-49.83,16.66-138.93-1-138.93-1s-106-10.7-145.87-50.52c-20.31-20.28,7.89,28-36-60.54S71.45,656.69,71.45,656.69s.93-413.57,10-508.19"/><path class="cls-2" d="M516,885.5s-52.35-33-83.62-51.41c-28.85-17-44.8-28-76.54-38.54-26.66-8.86-42.58-11.18-70.5-14.2-32.85-3.54-52-5.31-84.61,0-20.91,3.41-33,5.54-52.37,14.2-14.18,6.35-34.24,20.29-34.24,20.29L80.43,835.5s9.38,72.57,33.69,110.14c10.93,16.91,18.63,29.83,34.24,42.54,18,14.69,31,15.25,52.37,24.4,25,10.67,40,14.45,66.48,20.28,34,7.48,53.84,12,88.63,10.14,23.9-1.25,38-1.93,60.43-10.14,24.25-8.86,38.08-16.29,56.4-34.48,10-9.91,15.29-16.12,22.16-28.4,8.55-15.29,13.44-24.36,17.17-41.48C515.57,912.11,516,885.5,516,885.5Z"/><path class="cls-3" d="M851.5,337c-16,124.07-239.07,246.91-477.11,246.91-139,0-223-113.1-257.5-204.5C75.56,269.91,28.39,101,148.39,39c155.5-95,208.5,4.77,310,75.5C627.5,232.32,878.72,126,851.5,337Z"/><path class="cls-4" d="M184.79,222.36a6,6,0,0,1,2.4-.45,5.93,5.93,0,0,1,2.35.45,12.31,12.31,0,0,1,2.9,2.25,14.16,14.16,0,0,1,1.47,1.63,1.83,1.83,0,0,1,.33,1.07,1.76,1.76,0,0,1-.7,1.45,2.13,2.13,0,0,1-1.25.55q-.9,0-3-1.95c-1-.93-1.72-1.4-2.25-1.4-.94,0-1.64.79-2.1,2.35a3.52,3.52,0,0,0-.15,1c0,1.2,1.13,2.89,3.4,5.05a19.71,19.71,0,0,1,2.9,3.33,5.48,5.48,0,0,1,.8,2.67q0,3.06-3.45,4.9a6.38,6.38,0,0,1-3.05.75,6.12,6.12,0,0,1-4-1.4,5.31,5.31,0,0,1-1.85-2.9,2,2,0,0,1-.05-.55,2,2,0,0,1,.55-1.42,2.06,2.06,0,0,1,1.4-.63,2.13,2.13,0,0,1,1.27.6c.49.4.73.75.73,1s.22.5.67.78a2.45,2.45,0,0,0,1.28.42,2.92,2.92,0,0,0,1.55-.55c.6-.33.9-.7.9-1.1s-.5-1.15-1.5-2.05a20.81,20.81,0,0,1-4.55-5.1,6.13,6.13,0,0,1-.68-1.62,14.72,14.72,0,0,1-.12-2.33,8.52,8.52,0,0,1,.55-3.65A6.93,6.93,0,0,1,184.79,222.36Z"/><path class="cls-4" d="M204.19,228.51a7.33,7.33,0,0,1,2.9-.5,10.22,10.22,0,0,1,2.85.4,6.42,6.42,0,0,1,2.52,1.78,15.35,15.35,0,0,1,2.38,3.22,8.16,8.16,0,0,1,.85,3.65,8.6,8.6,0,0,1-1.6,5.5,7.09,7.09,0,0,1-2.15,1.5,10,10,0,0,1-4.55.95,8.51,8.51,0,0,1-2.7-.35,7.17,7.17,0,0,1-2.43-1.55,9.21,9.21,0,0,1-2-2.55,6.16,6.16,0,0,1-.65-2.85v-.8a11.49,11.49,0,0,1,.6-3.8,8.78,8.78,0,0,1,1.72-2.72A7.81,7.81,0,0,1,204.19,228.51Zm5.8,4.9a5.47,5.47,0,0,0-1.23-1.07,3.93,3.93,0,0,0-1.47-.18,5.06,5.06,0,0,0-1.4.13,2.47,2.47,0,0,0-.9.72,5.76,5.76,0,0,0-1.45,4.1,4.84,4.84,0,0,0,2.1,3.6,3.37,3.37,0,0,0,1.55.25,6.17,6.17,0,0,0,2.75-.5,3.23,3.23,0,0,0,1.85-3.1A5.29,5.29,0,0,0,210,233.41Z"/><path class="cls-4" d="M221.29,228.86a1.91,1.91,0,0,1,1.4-.6,1.83,1.83,0,0,1,1.4.6,3.44,3.44,0,0,1,.7,1.85l.2,1.2.95-.85a6.19,6.19,0,0,1,4.3-1.95,4.91,4.91,0,0,1,1.85.35,7.53,7.53,0,0,1,3,2.95l.9,1.35,1.1-1a6,6,0,0,1,1.9-1.32,5,5,0,0,1,2.05-.53,4.53,4.53,0,0,1,2.95,1.43,10.34,10.34,0,0,1,2.45,3.47,16.63,16.63,0,0,1,1.35,6.3,2.79,2.79,0,0,1-.65,2.1,1.78,1.78,0,0,1-1.25.6,2.16,2.16,0,0,1-1.5-.75,1.74,1.74,0,0,1-.65-1.1.49.49,0,0,1,.05-.25,2.14,2.14,0,0,0,0-.55,11.47,11.47,0,0,0-.83-3.67,8.25,8.25,0,0,0-1.62-3c-.27-.23-.45-.35-.55-.35a1.84,1.84,0,0,0-.65.3,6.4,6.4,0,0,0-1.75,2.93,11.24,11.24,0,0,0-1,3.87,2.94,2.94,0,0,1-.4,1.3,2,2,0,0,1-.75.9,2.83,2.83,0,0,1-.9.15,1.83,1.83,0,0,1-1.5-.6c-.37-.43-.64-1.66-.8-3.7a22.45,22.45,0,0,0-.63-3.82,6.47,6.47,0,0,0-1.32-2.38c-.47-.53-.87-.8-1.2-.8s-.95.43-1.75,1.28a9.27,9.27,0,0,0-1.75,2.47,13.14,13.14,0,0,0-.85,4.25,22.77,22.77,0,0,1-.28,2.58,1.64,1.64,0,0,1-.62.92,2.21,2.21,0,0,1-1.35.55,1.76,1.76,0,0,1-1.25-.6,1.54,1.54,0,0,1-.55-.87,12.18,12.18,0,0,1-.1-2c0-1.7-.09-3.43-.25-5.2q-.45-5.75-.45-6.5A1.62,1.62,0,0,1,221.29,228.86Z"/><path class="cls-4" d="M257.74,228.51a7.33,7.33,0,0,1,2.9-.5,10.22,10.22,0,0,1,2.85.4,6.49,6.49,0,0,1,2.52,1.78,15.35,15.35,0,0,1,2.38,3.22,8.16,8.16,0,0,1,.85,3.65,8.6,8.6,0,0,1-1.6,5.5,7.09,7.09,0,0,1-2.15,1.5,10,10,0,0,1-4.55.95,8.51,8.51,0,0,1-2.7-.35,7.17,7.17,0,0,1-2.43-1.55,9.21,9.21,0,0,1-2-2.55,6.16,6.16,0,0,1-.65-2.85v-.8a11.49,11.49,0,0,1,.6-3.8,8.6,8.6,0,0,1,1.72-2.72A7.81,7.81,0,0,1,257.74,228.51Zm5.8,4.9a5.47,5.47,0,0,0-1.23-1.07,3.93,3.93,0,0,0-1.47-.18,5.06,5.06,0,0,0-1.4.13,2.47,2.47,0,0,0-.9.72,5.76,5.76,0,0,0-1.45,4.1,4.84,4.84,0,0,0,2.1,3.6,3.37,3.37,0,0,0,1.55.25,6.17,6.17,0,0,0,2.75-.5,3.23,3.23,0,0,0,1.85-3.1A5.29,5.29,0,0,0,263.54,233.41Z"/><path class="cls-4" d="M277.54,227a5.6,5.6,0,0,1,2.65-.75,6.33,6.33,0,0,1,2.85.85c1.86,1,2.8,2,2.8,3.05a2,2,0,0,1-.65,1.4,1.82,1.82,0,0,1-1.25.65,4.17,4.17,0,0,1-2.3-1.2,2.2,2.2,0,0,0-1.5-.65,1.37,1.37,0,0,0-1.08.48,1.94,1.94,0,0,0-.42,1.32,2.93,2.93,0,0,0,2.2,3,16.63,16.63,0,0,1,4.07,1.95,4.51,4.51,0,0,1,1.68,2.25,7.51,7.51,0,0,1,.25,1.65,4.57,4.57,0,0,1-.4,1.7,5.22,5.22,0,0,1-2.08,2.5,5.89,5.89,0,0,1-3.22.9,7.69,7.69,0,0,1-2.75-.5,4.62,4.62,0,0,1-1.83-1,2,2,0,0,1-.52-1.45,1.69,1.69,0,0,1,.62-1.37,2.24,2.24,0,0,1,1.48-.53,2.33,2.33,0,0,1,1.25.35,3,3,0,0,0,1.55.4,2.51,2.51,0,0,0,1.27-.3.88.88,0,0,0,.53-.75c0-.56-.84-1.1-2.5-1.6a7.82,7.82,0,0,1-3.13-1.52,8.23,8.23,0,0,1-2-2.78,6.49,6.49,0,0,1-.65-2.9A5.46,5.46,0,0,1,277.54,227Z"/><path class="cls-5" d="M195,389.34c-.27,0-1.09-.21-1.4-.21l-1.7,0-.46-.24h-.93l-.53-.05a4.1,4.1,0,0,0-.48,0c-1,0-1.06.38-1.08.77l0,.86-.28.63-.15,1.48a3,3,0,0,0,0,.41c0,.84.31,1.08.67,1.08h.1l1.12-.17.63.05.77-.31,1.15.12a1.13,1.13,0,0,1,1,1.08,1,1,0,0,1-.81.82h0l-1.18-.15-2.68.15-.48.12-.17.31-.51.43L187.4,400a7.58,7.58,0,0,0-.24,1.37c0,.7.28,1,.67,1,0,0,1-.12,1.53-.12,1.09,0,2.07-.08,2.07-.08l1-.4.53,0,.93,0h0a1.4,1.4,0,0,1,1.2.81c0,.34-.67.79-.82.77l-.43-.05-.55.31-3.31.12s-3,.72-3.65.72a.91.91,0,0,1-.87-1v-.08l.12-2.78.29-.74.17-2.31.19-.43.07-2.21.48-3.17.12-3a1.22,1.22,0,0,1,1.08-1.3h.05l.77,0,.46-.12,1,.19.79-.12h2l1.34.15,1.3-.05c.19,0,.41.38.41.77a.84.84,0,0,1-.07.33C195.77,389,195.46,389.34,195,389.34Z"/><path class="cls-5" d="M208.71,394.65s.19,1.56.19,2.37a23.86,23.86,0,0,1-.29,2.93l0,2.4-.08,1-.4.43s-.15.43-.34.43-.67-.14-.72-.48l-.19-1.15s-.31-.72-.53-.72a13.13,13.13,0,0,1-3,.62,3.7,3.7,0,0,1-3.65-3.77,14.91,14.91,0,0,1,.22-1.65l.53-1.23.55-.45a8.55,8.55,0,0,1,1.37-1.25,4.54,4.54,0,0,1,2.74-.87h1.1l.89.34a.55.55,0,0,0,.17.05c.21,0,.38-.19.38-.55,0-.12,0-.17,0-.29a3.81,3.81,0,0,0-.14-.87l-.14-.84,0-1.27v0c0-.29,0-3.51,1-3.51.41,0,.51.34.51.7a8.72,8.72,0,0,1-.12.94c0,.81.19,2,.19,4.12C209,392.75,208.71,394.65,208.71,394.65Zm-1.9,1.29-.5-.76a11.29,11.29,0,0,0-1.39-.17,4,4,0,0,0-3.8,3.65,2.28,2.28,0,0,0,2.36,2.37,3.16,3.16,0,0,0,2.42-.93,1.39,1.39,0,0,0,.48-.84l.41-.82.05-.5.38-.58a1.84,1.84,0,0,0,.17-.6v-.05C207.37,396.35,206.81,395.94,206.81,395.94Z"/><path class="cls-5" d="M215.62,389.18h-.12c-.31,0-.62-.08-.72-.27l-.29-.48.12-.67.58-.58.31-.48.5.05c.41.07.63.29.63.82C216.63,388.48,216.1,389.15,215.62,389.18Zm1,5.18.14,2.76-.12.55a7,7,0,0,0-.24,1.44,9.48,9.48,0,0,0,.22,1.61l-.12.51c-.12.48-.46.91-.84.91s-.6-.31-.6-1c0-.17.14-.6.14-1l-.07-1.56S215,397.29,215,396a6.72,6.72,0,0,1,.21-2l.22-.65.24-.69a.82.82,0,0,1,.62-.51c.39,0,.41.63.41.63l.12.38Z"/><path class="cls-5" d="M228.51,392.56c-.17.17-.24.48-.46.48h0l-.51-.05-.6.12-.55-.12-.33.15-.12,2.52-.29,1.27.12,1.7-.07,1.2.14,1.56-.17.75.07.43-.24.43-.38.53-.31-.14h-.41a3.76,3.76,0,0,1-.19-1,5.79,5.79,0,0,1,.17-1.11l-.05-2.28.12-.86-.07-.53.21-1.2,0-1.51.19-1.2-.36-.41-2.07-.34c-.21,0-.36-.21-.36-.5a5,5,0,0,1,.32-1.08,3.65,3.65,0,0,0,1,.19h.07c.67-.05,1.46-.41,1.46-.86l-.07-1.3.14-.6.05-.46.17-.6a1.22,1.22,0,0,1,0-.24,1,1,0,0,1,1-1.1c.33,0,.5.24.5.6,0,.12-.24,1.15-.24,1.15l0,1.13-.1,1.37.65.41,1.15.09a1.2,1.2,0,0,1,.87,1C228.92,392.32,228.65,392.42,228.51,392.56Z"/><path class="cls-5" d="M236.88,401.92a6.85,6.85,0,0,1-3.45-1l-.63-.28-.57-1.06a6.18,6.18,0,0,1-.6-2.26c0-1.89,2-4.63,4.53-4.63a5.67,5.67,0,0,1,.89.14l.48.32.82.38.26.41s2.33,2,2.33,3.55C240.94,399.45,238,401.92,236.88,401.92Zm2.48-5.33-.44-.45-.38-.2-.82-1-1-.27-.63-.24S233,395,233,397.55c0,1.56,2.18,2.52,3.57,2.52,1,0,3-.93,3-2.32a1.23,1.23,0,0,0,0-.27Z"/><path class="cls-5" d="M251.28,393.62a4.36,4.36,0,0,0-2.78,1.6l-.12.72-.5,1.2a3.42,3.42,0,0,0-.1,1,20.82,20.82,0,0,0,.41,2.71c0,.53-.27,1.49-.87,1.49-.24,0-.38-.38-.5-.67l-.22-.63-.26-.5,0-1.44-.1-.46,0-.91-.08-.6.2-1.13-.12-1.8-.27-1.37-.09-1.58v-.05a.68.68,0,0,1,.72-.69c.24,0,.62.28.62.52v.22l.17.58v.43l.07.24c.17.41.48.77.84.77h.1c1.17-.17,1.48-1.54,2.73-1.54.84,0,1.56.31,1.56.77S252.1,393.45,251.28,393.62Z"/><path class="cls-5" d="M258,389.18h-.12c-.31,0-.62-.08-.72-.27l-.29-.48.12-.67.58-.58.31-.48.5.05c.41.07.63.29.63.82C259,388.48,258.46,389.15,258,389.18Zm1,5.18.14,2.76-.12.55a7,7,0,0,0-.24,1.44,9.48,9.48,0,0,0,.22,1.61l-.12.51c-.12.48-.46.91-.84.91s-.6-.31-.6-1c0-.17.14-.6.14-1l-.07-1.56s-.14-1.37-.14-2.69a6.72,6.72,0,0,1,.21-2l.22-.65.24-.69a.82.82,0,0,1,.62-.51c.39,0,.41.63.41.63l.12.38Z"/><path class="cls-5" d="M272.26,402.07a.8.8,0,0,1-.24,0,1.33,1.33,0,0,1-.41-.07l-1-.72-1.92.41a9,9,0,0,1-2,.22c-.89,0-1.3-.77-1.83-1.49a3.54,3.54,0,0,1-.86-1.71,7.28,7.28,0,0,1,1.58-4.1l.58-.87.43-.19a2.43,2.43,0,0,1,1.2-.43c.43,0,1.06.34,1.46.34a.39.39,0,0,0,.29-.1l.46-.48a1.11,1.11,0,0,1,.41-.1c.43,0,1,1.32,1.12,2.33l.12,1,.51,2.26v1.06l.36.86S272.55,402,272.26,402.07Zm-2-4.95-.5-.82-.22-.45a3.56,3.56,0,0,0-1.75-.6,2.86,2.86,0,0,0-2.57,2.73,3.9,3.9,0,0,0,.36,1.2l.65.51.41.36a3.05,3.05,0,0,0,.86.31c1.75,0,2.93-.91,2.93-2.45A2.87,2.87,0,0,0,270.29,397.12Z"/><path class="cls-5" d="M280.11,391.29v.53l-.15,1-.07,3.29-.22,1.68-.09,2.21,0,1.2-.19.6-.12,1c-.1.67-.48,1.51-1.06,1.51-.36,0-.62-.87-.62-1.51s.43-1.76.48-2.36l.07-1.87-.05-.69.41-1.88.07-3.17.22-1.12.05-1a6.2,6.2,0,0,0,.29-1.15c0-.21,0-.6,0-.89v-.52l.22-.77.07-.53a.63.63,0,0,1,.69-.46c.32,0,.36.63.36,1.16s0,.69,0,.69Z"/><path class="cls-6" d="M296,391.29v.53l-.14,1-.07,3.29-.22,1.68-.1,2.21,0,1.2-.19.6-.12,1c-.1.67-.48,1.51-1.06,1.51-.36,0-.62-.87-.62-1.51s.43-1.76.48-2.36l.07-1.87-.05-.69.41-1.88.07-3.17.22-1.12,0-1a6.2,6.2,0,0,0,.29-1.15,8.06,8.06,0,0,0,0-.89v-.52l.21-.77.07-.53a.65.65,0,0,1,.7-.46c.31,0,.36.63.36,1.16s0,.69,0,.69Z"/><path class="cls-6" d="M308.79,396.33l0,.62V397c0,.55-.43.75-.93,2a12.18,12.18,0,0,1-1.06,2l-.65.41-.65.53s-.5,0-.65,0c-1.68,0-3.84-2.67-3.84-5.16v-.07l0-1.11,0-.72.24-.45s0-.89.8-.89c.28,0,.55.14.55.43l-.07,3.34a12.87,12.87,0,0,0,.57,1.51l.31.36.46.62a1.68,1.68,0,0,0,1,.36c1.18,0,1.44-1.39,1.44-1.39L307,398l.34-1.25,0-2.21c0-.14.31-.79.7-.79l.09,0c.29,0,.31.31.48.52s.34.48.34.48l.07.75Z"/><path class="cls-6" d="M322.08,394.65s.2,1.56.2,2.37A23.86,23.86,0,0,1,322,400l-.05,2.4-.07,1-.41.43s-.14.43-.34.43-.67-.14-.72-.48l-.19-1.15s-.31-.72-.53-.72a13,13,0,0,1-3,.62,3.7,3.7,0,0,1-3.65-3.77,15.59,15.59,0,0,1,.21-1.65l.53-1.23.55-.45a8.55,8.55,0,0,1,1.37-1.25,4.54,4.54,0,0,1,2.74-.87h1.1l.89.34a.55.55,0,0,0,.17.05c.22,0,.38-.19.38-.55,0-.12,0-.17,0-.29a4.1,4.1,0,0,0-.15-.87l-.14-.84,0-1.27v0c0-.29,0-3.51,1-3.51.4,0,.5.34.5.7a8.72,8.72,0,0,1-.12.94c0,.81.19,2,.19,4.12C322.32,392.75,322.08,394.65,322.08,394.65Zm-1.89,1.29-.51-.76a11,11,0,0,0-1.39-.17,4,4,0,0,0-3.79,3.65,2.27,2.27,0,0,0,2.35,2.37,3.15,3.15,0,0,0,2.42-.93,1.37,1.37,0,0,0,.49-.84l.4-.82,0-.5.38-.58a1.84,1.84,0,0,0,.17-.6v-.05C320.74,396.35,320.19,395.94,320.19,395.94Z"/><path class="cls-6" d="M329,389.18h-.12c-.31,0-.62-.08-.72-.27l-.28-.48.12-.67.57-.58.31-.48.51.05c.41.07.62.29.62.82C330,388.48,329.47,389.15,329,389.18Zm1,5.18.15,2.76-.12.55a7,7,0,0,0-.24,1.44,9.9,9.9,0,0,0,.21,1.61l-.12.51c-.12.48-.45.91-.84.91s-.6-.31-.6-1c0-.17.15-.6.15-1l-.08-1.56s-.14-1.37-.14-2.69a6.67,6.67,0,0,1,.22-2l.21-.65.24-.69a.85.85,0,0,1,.63-.51c.38,0,.4.63.4.63l.12.38Z"/><path class="cls-6" d="M342.17,395.37l-.65-.82-.91-.53-.62.12-.44,0-.52.24-.63.24a6.35,6.35,0,0,0-1.51,3.67,2.48,2.48,0,0,0,1.42,2.07l3.45-.17h0a1,1,0,0,1,.84.82c0,.31-.48.52-1.13.79a2.9,2.9,0,0,1-1.06.36,12.27,12.27,0,0,1-1.27-.24l-.89,0c-.79,0-1-.43-1.7-1l-.84-.73-.05-.57-.26-1.08.09-.58,0-.6.72-2.37c.14-.53,1.65-1.68,1.65-1.68l.65-.46h.48a3.87,3.87,0,0,1,.74-.12c1.52,0,3.12.86,3.12,1.54v.86Z"/><path class="cls-6" d="M355.32,402.07a.8.8,0,0,1-.24,0,1.41,1.41,0,0,1-.41-.07l-1-.72-1.92.41a9,9,0,0,1-2,.22c-.89,0-1.3-.77-1.83-1.49a3.54,3.54,0,0,1-.86-1.71,7.28,7.28,0,0,1,1.58-4.1l.58-.87.43-.19a2.43,2.43,0,0,1,1.2-.43c.43,0,1.06.34,1.47.34a.37.37,0,0,0,.28-.1l.46-.48a1.19,1.19,0,0,1,.41-.1c.43,0,1,1.32,1.13,2.33l.12,1,.5,2.26v1.06l.36.86S355.61,402,355.32,402.07Zm-2-4.95-.5-.82-.22-.45a3.56,3.56,0,0,0-1.75-.6,2.86,2.86,0,0,0-2.57,2.73,3.9,3.9,0,0,0,.36,1.2l.65.51.41.36a3.05,3.05,0,0,0,.86.31c1.76,0,2.93-.91,2.93-2.45A2.87,2.87,0,0,0,353.35,397.12Z"/><path class="cls-5" d="M376,395.54l-.29,1-1.08,1.85-.21.7-.65,1.18-.1.67-.62,1.34-.19.63a12.55,12.55,0,0,1-1.42,2.73l-.26,1.08-.63.87a6.28,6.28,0,0,0-.79,2c0,.22-.55.51-1,.53h-.08a.55.55,0,0,1-.62-.62,14,14,0,0,1,.79-2l.39-.89.38-.57.82-1.8.5-.55.46-1.06a4.41,4.41,0,0,0,.48-1.85,5,5,0,0,0-2.21-3.24c-.34-.26-.65-.53-.65-.53l-.5-.24-.36-.57a2,2,0,0,1-.29-.75c0-.93.33-1,.62-1h.27c.24,0,1.15,1.18,1.89,1.9s1.08,1.84,2.09,1.84a1.45,1.45,0,0,0,.46-.12l.45-.48.43-.45.05-.36,1.13-2.62c.26-.6.65-.91,1-.91s.58.31.58,1C376.83,394.48,376,395.54,376,395.54Z"/><path class="cls-7" d="M395.83,397.91c-1.32,0-2.9-.48-3.91-.48s-1.54.48-1.54,1a1.06,1.06,0,0,0,.22.6,7.9,7.9,0,0,0,2.52,2l.79.24.63.05.31.31.41.33,0,.8-.24.24-.19.31a1.71,1.71,0,0,1-.45.14,6.34,6.34,0,0,1-2.6-1L391,402l-.19-.4-1.34-1.66a3.09,3.09,0,0,1-.34-1.08,5.54,5.54,0,0,1,.19-1.15l.05-1.44a13.07,13.07,0,0,1,.29-1.47,14.47,14.47,0,0,1,1.85-1.8,5.23,5.23,0,0,1,1.17-.55l.53-.24,1.23-.12c1.82,0,2.88,1.61,2.88,4.18A1.58,1.58,0,0,1,395.83,397.91Zm-1.15-4.27a1.72,1.72,0,0,0-.6-.1,2.33,2.33,0,0,0-.36,0l-.58.41-.72,0s-1,.68-1,1.16a1.1,1.1,0,0,0,.48.79.38.38,0,0,0,.26.09c.22,0,.43-.14.7-.14a.62.62,0,0,1,.19,0l.67.22.65-.07c1.32-.19,1.58-.34,1.58-1.08S395.35,393.88,394.68,393.64Z"/><path class="cls-7" d="M409.54,393.11l-.22.53-.89.84-.55,1.08c-.17.36-.41.58-.41,1,0,.68,1,1.83,1,1.83l.12.46.84.69.1.7v.12c0,.29-.05,1-.63,1s-1.32-.75-1.32-.75l-.14-.57-.82-1.13-.57-.36-.29.09-1.56,2.72c-.24.43-.58.86-.82.86-.53,0-.74-.53-.74-1a1.31,1.31,0,0,1,.12-.55l.57-1,.39-.76.38-.34.46-.84.21-.82.29-.45a21.1,21.1,0,0,1-2.76-3.17.87.87,0,0,1-.05-.22,1.31,1.31,0,0,1,.17-.55s.39-.53.77-.53,1,1,1.42,1.68S405.7,395,406.2,395s1-.76,1.42-1.58c.67-1.2,1.63-2.54,2.35-2.54.36,0,.53.33.53.69a.88.88,0,0,1-.17.55Z"/><path class="cls-7" d="M421.42,402.33a9.38,9.38,0,0,1-1.92-.43l-1-.07a2.31,2.31,0,0,0-1.2-.6c-.32,0-.6.24-.6.45l-.05.65-.17.72a12.32,12.32,0,0,0-.12,1.63v.43l.22,1.92-.15.89,0,.67v0c0,.43-.68.86-1.2.86-.2,0-.41-.29-.41-.29l0-.43-.05-.84s.05-.57.08-1.05c.07-1,.16-2.86.21-3.29l.07-1.3v-1.41l.17-.65v-.63l.24-.91v-1.89l.19-1.16.1-.93.14-.48,0-.77v-.07a.75.75,0,0,1,.57-.7c1,0,.58,1.39,1.35,1.39.45,0,.74-.6,2.28-.6a4.59,4.59,0,0,1,1.7.31l.5.1.68.48.45.19.6,1.35a5,5,0,0,1,.65,2.64A3.7,3.7,0,0,1,421.42,402.33Zm-.75-7c-1.53,0-3.26,1-3.26,2.55a2.77,2.77,0,0,0,1.58,2.4l1.39,0,.68.27a2.34,2.34,0,0,0,2.32-2.33A2.72,2.72,0,0,0,420.67,395.32Z"/><path class="cls-7" d="M436.63,397.91c-1.32,0-2.9-.48-3.91-.48s-1.54.48-1.54,1a1.06,1.06,0,0,0,.22.6,7.9,7.9,0,0,0,2.52,2l.79.24.63.05.31.31.41.33,0,.8-.24.24-.19.31a1.71,1.71,0,0,1-.45.14,6.34,6.34,0,0,1-2.6-1l-.84-.51-.19-.4-1.34-1.66a3.09,3.09,0,0,1-.34-1.08,5.54,5.54,0,0,1,.19-1.15l0-1.44a13.07,13.07,0,0,1,.29-1.47,14.47,14.47,0,0,1,1.85-1.8,5.23,5.23,0,0,1,1.17-.55l.53-.24,1.23-.12c1.82,0,2.88,1.61,2.88,4.18A1.58,1.58,0,0,1,436.63,397.91Zm-1.15-4.27a1.72,1.72,0,0,0-.6-.1,2.33,2.33,0,0,0-.36,0l-.58.41-.72,0s-1,.68-1,1.16a1.1,1.1,0,0,0,.48.79.38.38,0,0,0,.26.09c.22,0,.43-.14.7-.14a.62.62,0,0,1,.19,0l.67.22.65-.07c1.32-.19,1.58-.34,1.58-1.08S436.15,393.88,435.48,393.64Z"/><path class="cls-7" d="M448.85,393.62a4.41,4.41,0,0,0-2.79,1.6l-.12.72-.5,1.2a3.42,3.42,0,0,0-.1,1,20.82,20.82,0,0,0,.41,2.71c0,.53-.26,1.49-.86,1.49-.24,0-.39-.38-.51-.67l-.21-.63-.27-.5.05-1.44-.09-.46,0-.91-.07-.6L444,396l-.12-1.8-.26-1.37-.1-1.58v-.05a.68.68,0,0,1,.72-.69c.24,0,.62.28.62.52v.22l.17.58v.43l.07.24c.17.41.48.77.84.77h.1c1.18-.17,1.49-1.54,2.74-1.54.84,0,1.56.31,1.56.77S449.66,393.45,448.85,393.62Z"/><path class="cls-7" d="M455.54,389.18h-.12c-.31,0-.62-.08-.72-.27l-.28-.48.12-.67.57-.58.31-.48.51.05c.41.07.62.29.62.82C456.55,388.48,456,389.15,455.54,389.18Zm1,5.18.15,2.76-.12.55a7,7,0,0,0-.24,1.44,9.9,9.9,0,0,0,.21,1.61l-.12.51c-.12.48-.45.91-.84.91s-.6-.31-.6-1c0-.17.15-.6.15-1l-.08-1.56s-.14-1.37-.14-2.69a6.67,6.67,0,0,1,.22-2l.21-.65.24-.69a.85.85,0,0,1,.63-.51c.38,0,.4.63.4.63l.12.38Z"/><path class="cls-7" d="M474.05,402.19c-.29,0-.51-.53-.51-1.3,0-.14-.07-.48-.07-.86s.17-1,.17-1.37a13,13,0,0,0-.36-2.62S472.22,395,472,395a1.28,1.28,0,0,0-.86.41l-.22.38-.53.31-.26.29-.19.46-.46.67.07,2.83v.08c0,.67-.34,1.27-.77,1.27a.68.68,0,0,1-.67-.58l0-.84-.24-.81.09-2.09v-.2c0-1.56-.55-2.8-1.44-2.8a.85.85,0,0,0-.76.4L465,395l-.28,1a3.86,3.86,0,0,0-.77,1.76c0,1.13.48,2.25.48,3.26,0,.82-.55,1.75-1,1.75-.17,0-.34-.28-.34-.28l-.41-.29-.07-.55-.09-.72.21-1.3-.14-2.47.21-1,0-1.39.14-.5.17-2c.05-.55.29-1,.77-1s.53.89.53,1.42a2.39,2.39,0,0,1,0,.4A8.06,8.06,0,0,0,466,393c.62-.29.62-.46,1-.46s1.23,1.23,1.56,1.66a1.06,1.06,0,0,0,.75.33.74.74,0,0,0,.53-.19l.93-.86s1.25-.24,1.49-.24c1.08,0,2,1.61,2,1.61l.38.5.14.77.2.86,0,3.63C475.1,400.94,474.55,402.19,474.05,402.19Z"/><path class="cls-7" d="M486.91,397.91c-1.32,0-2.9-.48-3.91-.48s-1.54.48-1.54,1a1,1,0,0,0,.22.6,7.9,7.9,0,0,0,2.52,2l.79.24.62.05.32.31.41.33,0,.8-.24.24-.19.31a1.69,1.69,0,0,1-.46.14,6.27,6.27,0,0,1-2.59-1l-.84-.51-.19-.4-1.34-1.66a3.09,3.09,0,0,1-.34-1.08,5.54,5.54,0,0,1,.19-1.15l.05-1.44a13.07,13.07,0,0,1,.29-1.47,14.47,14.47,0,0,1,1.85-1.8,5.23,5.23,0,0,1,1.17-.55l.53-.24,1.22-.12c1.83,0,2.89,1.61,2.89,4.18A1.58,1.58,0,0,1,486.91,397.91Zm-1.15-4.27a1.72,1.72,0,0,0-.6-.1,2.33,2.33,0,0,0-.36,0l-.58.41-.72,0s-1,.68-1,1.16a1.14,1.14,0,0,0,.48.79.42.42,0,0,0,.27.09c.21,0,.43-.14.69-.14a.68.68,0,0,1,.2,0l.67.22.65-.07c1.32-.19,1.58-.34,1.58-1.08S486.43,393.88,485.76,393.64Z"/><path class="cls-7" d="M502.27,398.68l-.07,1.13V400c0,.44.07,1.13.07,1.13l-.43.39-.31.36s-.92,0-.92-.53v0l.05-.74-.12-.74.15-1.3v-2c0-.26-.39-2-1.76-2a4.1,4.1,0,0,0-2,.84l-.38.48-.87.67s-.31.67-.57,1.11a4.28,4.28,0,0,0-.29,1.73c0,1.2.29,1.08.29,2.08,0,.53-.22,1.4-.87,1.4-.36,0-.74-.6-.74-.6l.1-1.11-.1-.84.17-1.32-.12-4.15.19-.89-.05-.77.22-.26.19-.39s1,.12,1,.39l-.07.93v.1c0,.19.12.41.52.41s1.06-.7,1.06-.7l.58-.26a3.17,3.17,0,0,1,1.82-.65,3,3,0,0,1,2.38,1.58,3.23,3.23,0,0,1,.76,1.52v.55l.17.86Z"/><path class="cls-7" d="M513.6,392.56c-.17.17-.24.48-.46.48h0l-.51-.05-.6.12-.55-.12-.33.15-.12,2.52-.29,1.27.12,1.7-.07,1.2.14,1.56-.17.75.07.43-.24.43-.38.53-.31-.14h-.41a3.76,3.76,0,0,1-.19-1,5.79,5.79,0,0,1,.17-1.11L509.4,399l.12-.86-.07-.53.21-1.2,0-1.51.19-1.2-.36-.41-2.07-.34c-.21,0-.36-.21-.36-.5a5,5,0,0,1,.32-1.08,3.65,3.65,0,0,0,1,.19h.07c.67-.05,1.46-.41,1.46-.86l-.07-1.3.14-.6,0-.46.17-.6a1.22,1.22,0,0,1,0-.24,1,1,0,0,1,1-1.1c.33,0,.5.24.5.6,0,.12-.24,1.15-.24,1.15l.05,1.13-.1,1.37.65.41,1.15.09a1.2,1.2,0,0,1,.87,1C514,392.32,513.74,392.42,513.6,392.56Z"/><path class="cls-7" d="M525,402.07a.8.8,0,0,1-.24,0,1.41,1.41,0,0,1-.41-.07l-1-.72-1.92.41a9,9,0,0,1-2,.22c-.89,0-1.3-.77-1.83-1.49a3.54,3.54,0,0,1-.86-1.71,7.28,7.28,0,0,1,1.58-4.1l.58-.87.43-.19a2.43,2.43,0,0,1,1.2-.43c.43,0,1.06.34,1.47.34a.37.37,0,0,0,.28-.1l.46-.48a1.19,1.19,0,0,1,.41-.1c.43,0,1,1.32,1.13,2.33l.12,1,.5,2.26v1.06l.36.86S525.31,402,525,402.07Zm-2-4.95-.5-.82-.22-.45a3.56,3.56,0,0,0-1.75-.6A2.86,2.86,0,0,0,518,398a3.9,3.9,0,0,0,.36,1.2l.65.51.41.36a3.05,3.05,0,0,0,.86.31c1.76,0,2.93-.91,2.93-2.45A2.87,2.87,0,0,0,523.05,397.12Z"/><path class="cls-7" d="M532.87,391.29v.53l-.14,1-.08,3.29-.21,1.68-.1,2.21,0,1.2-.2.6-.12,1c-.09.67-.48,1.51-1,1.51-.36,0-.63-.87-.63-1.51s.44-1.76.48-2.36l.08-1.87,0-.69.41-1.88.07-3.17.21-1.12,0-1a6.2,6.2,0,0,0,.29-1.15c0-.21,0-.6,0-.89v-.52l.22-.77.07-.53a.64.64,0,0,1,.7-.46c.31,0,.36.63.36,1.16s0,.69,0,.69Z"/><path class="cls-8" d="M617.69,329.12q0-4.72,0-9.45a1.52,1.52,0,0,1,1.21-1.57,1.27,1.27,0,0,1,1.66.78c.35.78.71.85,1.38.18,1.88-1.88,5.25-1.76,7.68.22a7.09,7.09,0,0,1,1.75,1.79c.55.93.85.63,1.21-.19,1.07-2.45,3.63-4.09,5.87-3.6a8.07,8.07,0,0,1,5.71,4.33c2.72,5.28,2.57,11,2.46,16.71a1.71,1.71,0,0,1-2.86,1.05c-.42-.46-.71-1-.17-1.58.39-.46-.32-.71-.29-1.17a26.77,26.77,0,0,0,0-3.23c-.21-3.57-.52-7.12-2.26-10.37a4.66,4.66,0,0,0-2.81-2.26,1.67,1.67,0,0,0-2.15.77,8.15,8.15,0,0,0-1.12,3.63,32.83,32.83,0,0,0,.15,9.39,11.9,11.9,0,0,1,.14,1.31,1.62,1.62,0,0,1-1.45,1.86c-1,.21-1.5-.42-1.8-1.19a16.37,16.37,0,0,1-.7-4,28.45,28.45,0,0,0-1.45-7.25,5.92,5.92,0,0,0-3.47-3.88,2.1,2.1,0,0,0-2.88,1.09,17.26,17.26,0,0,0-1.85,7.24,47.84,47.84,0,0,0-.21,6.22,1.56,1.56,0,0,1-1.38,1.8,1.68,1.68,0,0,1-2-1.29,25.61,25.61,0,0,1-.71-7.35Z"/><path class="cls-8" d="M558.34,307.37a7.35,7.35,0,0,1,4.76-1.62c3.07,0,5.17,2.42,5.56,5.47-.5.46-1,.94-1.43,1.43a1.7,1.7,0,0,1-1.93-1.38c-.72-2.12-2.06-2.64-4.1-1.7a5.22,5.22,0,0,0-3.3,5.76,3,3,0,0,0,2.15,2.61,18.17,18.17,0,0,0,3.27.72,13.82,13.82,0,0,1,7.44,3c.54.46.63,1.21,1.27,1.54.05.46.51.61.72.95a7.44,7.44,0,0,1,.55,6.34,11.67,11.67,0,0,1-11.88,7.8,9.16,9.16,0,0,1-5.45-2.51,2.3,2.3,0,0,1-.91-1.86,1.78,1.78,0,0,1,1.13-1.43c.72-.35,1.24,0,1.75.42,4.14,3.12,8.14,2.41,11.27-1.73,2.5-3.31.54-6.67-2.07-7.95a21.66,21.66,0,0,0-6.13-1.5c-2.67-.46-4.92-1.57-6-4.28-.37-.87-.25-1.82-.54-2.73-.2-.61.44-1.19,1.12-1.45a1.15,1.15,0,0,0,.74-1.71,2.07,2.07,0,0,1,.55-2.46C557.35,308.52,558.08,308.14,558.34,307.37Z"/><path class="cls-8" d="M489.05,319.11c3.11,2.45,3.91,5.84,3.79,9.55-.08,2.41-.33,4.81-.5,7.22-.43.73-1.12,1.24-1.38,2.14s-.95.19-1.44,0a2.46,2.46,0,0,1-.27-1.89c-.14-.65.75-.3.71-.78a.35.35,0,0,1-.45,0c-.47-.35-.33-.84-.29-1.31a60.51,60.51,0,0,0,.26-6.17c-.05-2.9-.75-5.42-3.58-6.84a3.57,3.57,0,0,0-2.38-.27c-3.2,1.14-4.57,3.93-6,6.66a34.11,34.11,0,0,0-2.71,7.39,2.16,2.16,0,0,1-2.23,1.72c-.92.07-1.21-.68-1.4-1.48-.57-2.41-.72-4.88-1.11-7.31-.43-2.67-.88-5.34-1.32-8-.22-1.31.22-2.11,1.26-2.3s1.75.26,2,1.6a63.3,63.3,0,0,1,1.39,8.48,3.22,3.22,0,0,0,.92-1.46,20.14,20.14,0,0,1,5-6.81,6.63,6.63,0,0,1,2.51-1.34,6.84,6.84,0,0,1,4.51,0l1.91.72c.13.35-.14.36-.35.39C488.3,319.15,488.69,318.87,489.05,319.11Z"/><path class="cls-8" d="M186.51,326.31a14.91,14.91,0,0,0,5.65,7.08,8.36,8.36,0,0,0,8.76.29,11.25,11.25,0,0,0,3.73-3,5.91,5.91,0,0,0,1.16-2.2,2.51,2.51,0,0,0-1.92-3.39,12.78,12.78,0,0,0-5.93.08c-1.35.29-2.1,0-2.38-1.09a1.78,1.78,0,0,1,1.57-2.23,16.61,16.61,0,0,1,6.77-.28c5.27.93,6.91,6,4.28,10-3,4.69-9.2,8-15.26,5.91a15,15,0,0,1-8.05-7c-.3-.51-.52-1.07-.78-1.61a37.55,37.55,0,0,1-1.07-4.55,12.7,12.7,0,0,1,.16-6.56c.25-.83.26-1.66,1-2.31s1.45-.21,2.07.11.08.89-.06,1.33c-.88,2.73-1.57,5.45-.11,8.22C186.29,325.53,186.27,326,186.51,326.31Z"/><path class="cls-8" d="M363.57,340c.17,1.24-.72,1.67-1.65,1.76s-1.16-.48-1.19-1.39c0-.56-.42-1.14-.51-1.78s-.56-.21-.81-.06a24.66,24.66,0,0,1-4,1.93,7.32,7.32,0,0,1-8.72-2.24,7.43,7.43,0,0,1,.06-9,4.67,4.67,0,0,0,1.18-1.47c.8-.55,1.35-1.46,2.41-1.65,1.81-.7,2.9.21,3,2.48-.19.68-.84.8-1.34,1.09a4.89,4.89,0,0,0-2.62,3.25,3.16,3.16,0,0,0,4.08,3.91,16.7,16.7,0,0,0,5.2-2.64,1.44,1.44,0,0,0,.61-1.46,18.54,18.54,0,0,0-1.27-5c-.12-.38-.44-.4-.77-.41-.55,0-1.09-.15-1.17-.78a1.38,1.38,0,0,1,.57-1.56c.35-.2.8-.37.26-.85-1.61-2.4-4-3.22-6.76-3.3a2.14,2.14,0,0,1-.41-2.05c.1-.72.75-.7,1.3-.72a8.55,8.55,0,0,1,4.42.54c3.31,1.72,5.18,4.59,6.45,7.95.32.45,0,1.08.43,1.49l.06.42a5,5,0,0,1,.17,1.39c.15.86.15.86-.76,1.1.38-.07.77-.22,1.09.13a14.82,14.82,0,0,1,.53,6.45,1.9,1.9,0,0,1-.62,1.36C363.87,338.67,363.79,339.27,363.57,340Z"/><path class="cls-8" d="M768.46,332.55a20.8,20.8,0,0,0,1.7,3.68,4.73,4.73,0,0,0,3.28,2.55c1.1.19,1.36,1,1.19,2a1.46,1.46,0,0,1-1.74,1.25c-2.66-.14-4.26-1.82-5.53-3.88-.51-.82-.77-.91-1.33-.1a9.11,9.11,0,0,1-5.14,3.7c-5.87,1.63-10.93-2.47-11.56-8.06a12.16,12.16,0,0,1,1.14-7.1c.63-1.21,1.35-2.39,1.93-3.64a1.33,1.33,0,0,1,.84-.58c.75-.07,1-.61,1.32-1.12h0c1,.55,2.08-.09,3.1.33.46.19.57-.59,1-.73a1.3,1.3,0,0,1,1,.21.73.73,0,0,1,.58.61,6,6,0,0,0,.41,1.09c.47,1.14.36,1.42-.74,2-1.06,0-2.11-.41-3.2,0a2.29,2.29,0,0,0-1.62,1.29c-.6,1.76-1.54,3.39-1.76,5.3a6.61,6.61,0,0,0,5.18,7.35,2.88,2.88,0,0,0,2.91-1c1.13-1.36,2.36-2.72,2.65-4.59a2.27,2.27,0,0,1,.68-1.47c.69-.58,1.27-.49,1.34.36.07,1,.42,1,1.15.59A1.24,1.24,0,0,1,768.46,332.55Z"/><path class="cls-8" d="M444.25,317.18c3.91.46,7,3.51,8.1,7.75,1.6,6.05-1.92,11.49-7.58,13.22-2.79.85-5.42,1.29-8-.36-.65-.82-.58-2.11-1.78-2.58-.3-.12-.3-.53-.23-.86.4-1.7,1.57-2.06,3-.92a4.35,4.35,0,0,0,5.1,1.17,12.25,12.25,0,0,0,3.59-1.81,5.85,5.85,0,0,0,2.27-5.69c-.46-2.72-1.57-5.12-4.61-5.94a2.61,2.61,0,0,1-1.28-.6c-.11-.12,0,0-.06-.1-.42-.56-1.43-.93-.95-1.82A2.64,2.64,0,0,1,444.25,317.18Z"/><path class="cls-8" d="M274.54,335.62a48.25,48.25,0,0,0-.53-8.49,22.44,22.44,0,0,0-2.4-7.55,5.46,5.46,0,0,0-6.93-2.58c-.45.14-.89.33-1.34.49s-1.1.3-1.59-.17c-.25-.42-.86-.48-1-1-.37-1.12.58-1.22,1.2-1.5s1.25-.32,1.61-.94a9.27,9.27,0,0,1,6.44,0c.34.89,1.21.91,1.92,1.2a2.63,2.63,0,0,1,1.18.95c.86,1.57,2.34,2.75,2.46,4.83,0,.62.77,1.53,1,2.4A50.2,50.2,0,0,1,277.91,337a1.88,1.88,0,0,1-.21,1,2.49,2.49,0,0,1-1.22.67c-1.27.51-1.87,0-1.92-1.63a1.17,1.17,0,0,1-.06-.88Z"/><path class="cls-8" d="M380.38,324.42a5.21,5.21,0,0,1-.44,1.69c-1.67,4.26.2,10.19,5.94,11a11.15,11.15,0,0,0,3.6,0l.21,0c.89.05,1.59-.55,2.43-.68a11.58,11.58,0,0,0,2.64-1.12c.6-.42,1.24-.1,1.86-.13.46,0,.46.41.37.71s-.2.66.23.76c1.3.29.38.83.07,1.12a5.18,5.18,0,0,1-1.35.74c-4,1.76-8.05,2.83-12.43,1.54a10.63,10.63,0,0,1-5.59-4.06c-.12-.27,0-.66-.41-.79-1.42-2.28-1.48-4.82-1.44-7.38.4-1,.2-2.21.95-3.12h0c.19-.3.53-.36.83-.49.48-.11.69-.62,1.17-.76C379.92,323.15,380.37,323.46,380.38,324.42Z"/><path class="cls-8" d="M224.41,317.41a.4.4,0,0,1,.09-.2,3.85,3.85,0,0,0,1.6-1.47,8.71,8.71,0,0,1,7-2.11,5.54,5.54,0,0,1,4.7,4.63,5.48,5.48,0,0,1-3,6,13.73,13.73,0,0,1-5.53,1.39,1.38,1.38,0,0,1-1.53-.62,1.06,1.06,0,0,0-1.56-.33c-.47.25-.93.4-1.28-.1a1.08,1.08,0,0,1,.25-1.4,8.08,8.08,0,0,1,.94-.91c1.4-.63,3-.52,4.42-.84a9.38,9.38,0,0,0,1.95-.53,1.73,1.73,0,0,0,1.17-2.08c-.21-.87-.9-1.33-2-1.21a5.78,5.78,0,0,0-4.59,3,6.15,6.15,0,0,1-1.22,1.88,2.83,2.83,0,0,0-1.12,2.57,1,1,0,0,1-.24.76l0,.24c-.35.59-.6,1.38-1.56.81a1.41,1.41,0,0,1-.38-.39,1.88,1.88,0,0,1-.41-2.69c.47-.88.17-1.87.44-2.78v0C223.48,320,224.45,319,224.41,317.41Z"/><path class="cls-8" d="M294.68,337.11c-3.74-1.53-6.78-3.78-8.06-7.82-.29-.9-.56-1.83.17-2.67-.82-.29.29-.74-.12-1.17a1,1,0,0,1,.22-1.37,8,8,0,0,0,2-2.37,1,1,0,0,1,.69,0,1.26,1.26,0,0,1,1,1.39,1.5,1.5,0,0,0,.57,1.22,8.89,8.89,0,0,0,5.16-.75c2.12,0,3.06,1.54,2,3.22-1.9,1.65-4.19,1.44-6.46,1.36-.61,0-1.46-.37-1.77.2s.27,1.26.63,1.83c1,1.65,2.75,2.49,4.26,3.57.1.18.19.39.39.43.91.17.73.76.56,1.36a2,2,0,0,0,.05,1c.09.27.49.53.15.82s-.6.09-.88-.06S294.85,337.22,294.68,337.11Z"/><path class="cls-8" d="M692.46,280.19c-.81,1-2.09,1.36-3.12,2.07a.37.37,0,0,1-.52-.28c-.07-.22.1-.34.28-.43.45-.5,1.21-.61,1.7-1.32l-1.18-.11a11.41,11.41,0,0,1-2.26.09c-.2,0-.44,0-.44-.27a.45.45,0,0,1,.39-.41c.5-.11,1,.07,1.54-.12l.56-.08c-2.1-.51-4.25-.59-6.3-1.17-.57-.7.61-.71.48-1.24a.77.77,0,0,1,.47-.63,39.09,39.09,0,0,0,5.73,1.45c.29.05.42-.14.24-.3-.77-.69-.24-.9.36-1.09s.91-.3,1-1,.61-.64,1.11-.3c.27.19.4.5.63.71a.76.76,0,0,1,0,.21c.63.82.92,0,1.34-.27a8.73,8.73,0,0,1,1-.68,51.52,51.52,0,0,0,5.09-6.69c.21-.12.27-.42.46-.5.43-.16.72-.09.45.46a52.94,52.94,0,0,1-3.28,4.9c.46.27.69,0,.91-.21a37.72,37.72,0,0,0,9.71-13.86,15.47,15.47,0,0,0,1.06-3c.25-.15.49-.23.72,0a19.69,19.69,0,0,1-2.53,6.79,42.94,42.94,0,0,1-10.3,12.58c-.41.35-.87.65-1.31,1-.12.4.18.32.39.34,1.13.12,1.27.41.66,1.39-.15.24-.41.43,0,.63l1.09.06a1.37,1.37,0,0,0,1.23.16.88.88,0,0,1,1.15.36.65.65,0,0,1-.05.78.88.88,0,0,1-1.09.2c-.64-.48-1.31-.24-2-.32l-2.06-.21a.83.83,0,0,1-1.11.24c-.5,0-.32.55-.63.69-.41.57-.77,1-.91-.15C693.2,280.28,693.09,279.74,692.46,280.19Z"/><path class="cls-8" d="M319.44,318.66c1.5-.74,2.47-.33,2.87,1.22s.74,2.9,1.17,4.56a18.51,18.51,0,0,1,6.19-4.82,12.45,12.45,0,0,1,4.45-1.1,1.37,1.37,0,0,1,1.49,1.38c0,.8-.14,1.63-1.15,1.82a14.34,14.34,0,0,0-4.38,1.47,9.82,9.82,0,0,0-4.44,4.52,3.71,3.71,0,0,1-.44.54c-.58-.06-.88-.61-1.38-.81h-.3c-.77.27-1.53-.31-2.37.05-.55.22-.51-.63-.79-1l-.26-1.4c0-.78-.43-1.49-.39-2.29a8.28,8.28,0,0,0-.5-3.07A1.14,1.14,0,0,1,319.44,318.66Z"/><path class="cls-8" d="M690.55,325.42a36.28,36.28,0,0,1-3.76,11.73c-.35.62-.78,1.19-1.58,1s-.74-1-.7-1.6a42.45,42.45,0,0,1,1.39-7.24c.83-3.31,1.42-6.69,2.91-9.8.32-.68.65-1.35,1-2,.17-.17.22-.44.4-.59.34-.28.76-.35.69.24C690.56,319.87,691.52,322.68,690.55,325.42Z"/><path class="cls-8" d="M730.35,290.14a58.77,58.77,0,0,1-6,11.19,13.46,13.46,0,0,1-2.33,2.55,1.13,1.13,0,0,1-1.32.29,1.08,1.08,0,0,1-.42-1.27,5.75,5.75,0,0,1,.44-1.6c2.28-4.41,4.51-8.85,7.07-13.11a5.58,5.58,0,0,1,1.39-1.63c.29-.2.52-.51.87-.59.57-.12,1.07.17.82.73C730.38,287.82,730.7,289,730.35,290.14Z"/><path class="cls-8" d="M222.76,326.31l.23.24a2.19,2.19,0,0,1,.82,2.06,4.76,4.76,0,0,0,.9,3.44v0c.62,1.87,2.19,2.64,3.85,3.31.11,0,.25.11.35.06,1.36-.62,2.81-.16,4.2-.35a2.85,2.85,0,0,0,1.17-.54l1.85-.56c.49-.49,1.42-.13,1.75-.91l.75-.48c.41-.29.93-.31,1.35-.68a.92.92,0,0,1,1.46.58c.13.74.3,1.52-.43,2.1-.68.23-1,.89-1.47,1.32l-1.18.5c-1,.75-2.23.57-3.27,1.05a20.36,20.36,0,0,1-4.23.86,2.69,2.69,0,0,1-1.69-.34,4,4,0,0,0-2.09-.15,2.53,2.53,0,0,1-1.21-.46c-.23-.48-.91-.47-1.11-1,0,0-.06-.08-.07-.07a.7.7,0,0,1-.25-.17c-1.46-.41-2.1-1.6-2.67-2.85,0-.6-.43-1.1-.48-1.69a4.41,4.41,0,0,1-.22-2.16,3.86,3.86,0,0,0,.13-1.44C221.42,326.45,221.67,326.18,222.76,326.31Z"/><path class="cls-8" d="M261.16,316l.7,1c-.1,1-.93,1.74-1.16,2.71-.74,1.56.13,3.09.08,4.64,0,.56.19,1.16.13,1.75-.13.1-.37.26-.31.32.72.71.32,1.69.59,2.52a6.37,6.37,0,0,1-.21,3,3.84,3.84,0,0,1-.73,2.31c-.36.36-.64.73-1.18.61s-.64-.58-.64-1a14.38,14.38,0,0,0-.24-3.73,15.18,15.18,0,0,1-.11-3.68,2.14,2.14,0,0,0-.5-1.05c-.41-1.56-.17-3.22-.79-4.74-.11-2.2-.71-4.38-.43-6.61a.82.82,0,0,1,.2-.42c.58-.42,1.13-.14,1.69.05,0,.05,0,.11,0,.17.15.53,0,1.1.15,1.62s.45,1.21,1.26.59l.48-.22C260.52,315.79,260.77,316.2,261.16,316Z"/><path class="cls-8" d="M690.55,325.42a18.31,18.31,0,0,0-.25-7.11c0-.14-.06-.36,0-.43.23-.22.66-.4.32-.72s-.54.22-.84.29c0-.69.08-1.32,1.13-1.42-1-.38-.8-1-.68-1.63,1-5.64,1.75-11.33,2.22-17,.39-4.8.39-9.62.71-14.43a7.23,7.23,0,0,0-.14-2.28c-.07-.3-.2-.52-.57-.45.48-.42.83-.3.92.31s.44.41.78.32c.52,6.56-.1,13.1-.64,19.62a111.28,111.28,0,0,1-2.16,14.73,14.48,14.48,0,0,0-.24,5.57A8.47,8.47,0,0,1,690.55,325.42Z"/><path class="cls-8" d="M659.38,321.08c1.69-.61,2.55-.16,2.78,1.6a10.34,10.34,0,0,1,.15,4.33c-.06.2.41.78.43,1.23s.51,1-.14,1.53c-.27.2.17.24.21.36.59,1.6,1.22,3.18,1.69,4.81.23.75-.42,1.13-1.09,1.31a1.53,1.53,0,0,1-1.95-.93,20.79,20.79,0,0,1-2.15-9c-.3-1.2-.64-2.39.06-3.59a.7.7,0,0,0-.13-.77C658.88,321.62,659.13,321.34,659.38,321.08Z"/><path class="cls-8" d="M741.61,244.66l.26.44c.51.11.36-.26.34-.49s0-.64.39-.72c.67.27.45-.69.93-.68.08-.11.16-.11.22,0A11.31,11.31,0,0,0,744,245c.11.42-.06,1.48,1,.57.44-.39.48.32.71.51.41-.21.82-.49,1.31-.3s.54.59.39,1.12c-.1.34.32.33.6.25l3-.59a1.66,1.66,0,0,1,2.28.25c.35.31.26.52-.09.72a9.59,9.59,0,0,1-3.31.52,3.08,3.08,0,0,1-1.52.88c-.37.07-.47.24-.14.51l.41.05a8.12,8.12,0,0,0,2.41.84c.68,0,.63.71.81,1.16-.19.56-.61.49-1,.26a3.94,3.94,0,0,0-1.13-.33l-3.06-1.11a6.58,6.58,0,0,1-2.18-.58c-.82,1.14-.79,2.54-1.21,3.8a15.78,15.78,0,0,0-.75,2c-.1.25-.1.59-.5.5s-.37-.37-.36-.66a3.66,3.66,0,0,1,.18-.92c0-1.67.9-3.16,1-4.84-.74-.09-1.22.52-1.87.61s-.74-.18-.49-.7h.23c.51.06.25-.48.49-.63,0-.07.11-.15.09-.21a35.64,35.64,0,0,1-.5-3.57C740.8,244.44,741.11,244.35,741.61,244.66Z"/><path class="cls-8" d="M409.12,329.67a31.36,31.36,0,0,1-.29-4.94,1.11,1.11,0,0,1,.91-1.24c.77-.1,1.61-.19,2.11.67a2.92,2.92,0,0,1,.4,1.72c-.16,2.16.32,4.28.36,6.43a12.1,12.1,0,0,0,.73,2.74c.36,1.38.1,2.26-.79,2.36-1.68.2-2,.28-2.47-1.5a21.79,21.79,0,0,1-.67-2.9l-.05-.48c-.07-.3-.22-.67-.07-.91C409.72,330.9,409.35,330.3,409.12,329.67Z"/><path class="cls-8" d="M188.47,309.09a17.15,17.15,0,0,1,8.11-3.43c1.29-.17,2,.29,2.16,1.42A1.75,1.75,0,0,1,197.1,309l-2.92.49c-.87.5-1.93.63-2.64,1.42l-.43.3a5.75,5.75,0,0,0-2.65,2.39l-1.15,1.68a1.54,1.54,0,0,1-2.19-2.12,8.09,8.09,0,0,0,.92-1.74l.21-.26C188.12,311.11,188.31,310.5,188.47,309.09Z"/><path class="cls-8" d="M437.27,334l-1.08-.92c-.11.36.25.92-.43.92a.52.52,0,0,0-.54.64c.08.37.44.43.76.48s.64,0,.94.08.52.37.26.51c-1.08.55-.27,1.43-.44,2.13a8.8,8.8,0,0,1-4.06-6.44,1.18,1.18,0,0,0-.06-1.67c-.58-1.45.06-2.87.07-4.31,0-.21.62,0,.35-.54s.28-1.07.32-1.64a6.62,6.62,0,0,1,.78-1.88c1.2-.18,2.32.58,3.09,2.09-.19,1.13-.47,2.24-.68,3.37a9.88,9.88,0,0,0,.7,5.78C437.45,333,437.79,333.48,437.27,334Z"/><path class="cls-8" d="M759.8,324.19c1-.39.44-1.11.05-1.26-1.2-.46-.38-.78,0-1.17.63-.6,1.31-.69,1.84,0s1.09.12,1.56.42l1.44,1.2c.19,1.25,1.14,2.08,1.74,3.1l.83,1.71a18.22,18.22,0,0,0,1.21,4.08v.24c-.51.33-1.1.43-1.41,1.14s-1.23.44-1.49-.32a3.12,3.12,0,0,1-.13-1.79c-.72.41-.37,1.23-.78,1.67a.71.71,0,0,1-.51-.73,15.42,15.42,0,0,0-1-5c0-.51.71-1,.11-1.52s-1.13-1-2-.58a.7.7,0,0,1-.47,0C760.37,325.1,759.67,325,759.8,324.19Z"/><path class="cls-8" d="M290.72,325.07c-.55-.08-1.16-.26-.84-.93a2.16,2.16,0,0,0-.21-2.08,2.7,2.7,0,0,1-.21-2.91,8.19,8.19,0,0,1,3-2.08c1.75-.71,3.58-1.3,5.48-.36a1.22,1.22,0,0,1,.64.5.83.83,0,0,0,.08.22c1.06,1.75.71,2.72-1.57,2.83a17.43,17.43,0,0,1-1.78.07,4.88,4.88,0,0,0-4.41,4.18A2.2,2.2,0,0,1,290.72,325.07Z"/><path class="cls-8" d="M323.51,327h.23c1.11.91.21,1.59-.26,2.33a1.24,1.24,0,0,1-.29.36.49.49,0,0,0,.16-.16c.65-.83,1.24-.66,1.79.1,0,2.63,0,5.26,0,7.88a3,3,0,0,0-1.41.7c-.5.58-1,.07-1.43-.19-.92-2.1-.95-4.39-1.37-6.59-.19-1-.23-1.95-.34-2.93a.48.48,0,0,1-.05-.31c.23-.35.51-.28.81-.12a.85.85,0,0,0,1.13-.17A4.18,4.18,0,0,0,323.51,327Z"/><path class="cls-8" d="M444.25,317.18l-1.81,1.48a.48.48,0,0,0-.17.63c.23.43.35,0,.49-.11a.48.48,0,0,1,.72.16c.27.51-.46.56-.51.94-.25.81-1,.66-1.49.59a3.68,3.68,0,0,0-3.79,1.65c-1.7.16-2.61-.61-2.87-2.43a11.12,11.12,0,0,1,1.59-2.22,2.34,2.34,0,0,1,1.87-.68c1.44-.09,2.88-.27,4.33-.22A3.68,3.68,0,0,1,444.25,317.18Z"/><path class="cls-8" d="M186,311.45c0,.69.72,1.59-.6,1.89-.25.05-.3.46-.15.61.33.34.41,1.22.65,1.09.64-.36.86.6,1.37.27a13.2,13.2,0,0,0-.8,11c-.48-.37-.49-1.23-1.31-1.25-.17,0-.33-.18-.22-.34.54-.78-.06-1.54,0-2.31a12.13,12.13,0,0,1,.31-3c.28-.95,0-2.06.88-2.84.21-.17.09-.43-.17-.57a1,1,0,0,0-1.4.11c-.33.35-1.2.37-.7,1.2a.55.55,0,0,1,0,.67c-1.25,1.42-.07,3.09-.5,4.59-.14.53.48.35.79.46-1,1.17-1,1.65.26,2.43a1.09,1.09,0,0,1,.47,1c0,.67-.45.15-.68.21-.54.14-.48.45-.24.8s.59,1,.12,1.51A15.58,15.58,0,0,1,186,311.45Z"/><path class="cls-8" d="M453.29,307.65a23.8,23.8,0,0,1,3.2-4.27,1.79,1.79,0,0,1,2.67,0,2,2,0,0,1-.37,2.61c-.33.29-1,.23-1,.89-.31.28-.73.48-.69,1l-.85,1.29c-.84,1.25-2,1.32-3,.18C453.5,308.78,453.08,308.21,453.29,307.65Z"/><path class="cls-8" d="M295.44,335.4c.57-.76-.38-1.11-.47-1.7l1.88.78a4.72,4.72,0,0,0,3.15.43,4.18,4.18,0,0,1,1.89-.13,1.29,1.29,0,0,1,1.38,1.07,1.51,1.51,0,0,1-.82,1.8,6.52,6.52,0,0,1-4.41.45l-1.4-.3c-.31-.4-.23-1-.91-1.24C295.24,336.41,295.86,335.72,295.44,335.4Z"/><path class="cls-8" d="M730.35,290.14a7,7,0,0,1,.16-3.22c.24-.61,0-.69-1.33-.36,2.59-4.07,4.13-8.64,6.18-13,.65.06.7-1.22,1.56-.69-1.41,3.66-3,7.23-4.64,10.8a14.12,14.12,0,0,0-1.57,5.08A2.24,2.24,0,0,1,730.35,290.14Z"/><path class="cls-8" d="M413.36,313.29c0,1.62-.84,2.93-2,3s-2.56-1.59-2.56-3.25c0-1.23,1-2,2.6-2C412.71,311,413.34,311.72,413.36,313.29Z"/><path class="cls-8" d="M356.89,324.13c.18-.11.4-.41.5,0a1,1,0,0,1-.36.95,1.51,1.51,0,0,0-.35,1.22c0,.76.64.24,1,.31a1.05,1.05,0,0,1,.87.86,1.48,1.48,0,0,1-1.52,1.07c-1,0-1.9.25-2.85.3-.46,0-.89.08-1.15-.4-.25-.75-1-1.16-1.18-2s-.94-.37-1.46-.39c1.67-1.17,3.65-1.13,5.55-1.42C356.3,324.6,356.87,324.86,356.89,324.13Z"/><path class="cls-8" d="M693.15,275.79c-.22.11-.42.16-.62-.08-.5-.56-.69-.46-.83.29s-1,.88-1.63,1.05c.1.44.63.43.95,1-.51,0-.93.63-1.23-.3-.36-.62-1.12-.78-1.59-1.35.4-.32.92-.06,1.52-.32a20.33,20.33,0,0,1-4.76-5.74.41.41,0,0,1,.06-.52c1.41,1.11,2.16,2.81,3.54,3.95.72.59,1.37,1.26,2.14,1.82a9.83,9.83,0,0,0-1.58-2.72c-.26-.39-.33-.8.11-1.09s.39.28.6.41a15.76,15.76,0,0,0,1.68,2.29c.21-1.13-.52-1.85-.57-2.69.06-.62.4-.5.78-.3a16.87,16.87,0,0,0,.92,2.76C692.8,274.76,693.22,275.2,693.15,275.79Z"/><path class="cls-8" d="M257.58,325.36c.81.39,1.72.62.78,1.88-.59.79-.11,1.77.14,2.71a11.18,11.18,0,0,1,.48,4.54c1.65-1.34,1.64-3.19,2.1-4.83.26-.94-.84-.76-1.2-1.3,1-.29,1.43-.72.36-1.49-.17-.13-.42-.36-.23-.61s.59-.16.9-.19c.58,2.48.35,5,.42,7.49,0,1.21-1.05,1.64-1.53,2.47-.34.59-1.72-.24-1.87-1.23a10.27,10.27,0,0,1-.08-2.15A45.5,45.5,0,0,0,257.58,325.36Z"/><path class="cls-8" d="M659,312.25c-1.3-.08-2.06-.82-2-1.92.12-1.63,1.18-2.78,2.48-2.68,1.7.14,2.33.69,2.25,2A2.92,2.92,0,0,1,659,312.25Z"/><path class="cls-8" d="M741.16,245.13c.2,1.2.82,2.29.85,3.54,0,.5-.17.65-.63.53-.79-.58-1.77-.2-2.62-.49a4.54,4.54,0,0,1-2-.46c.21-.4.72-.14,1-.44l2,.21,0-.17-4.87-1.8c-.42-.52.69-.85.18-1.39l-.48-.18c-.16-.26-.24-.55,0-.74s.51.08.75.18a29.74,29.74,0,0,0,4.12,2.22c.29.09.59.29.87,0a.82.82,0,0,1,0-.65A.76.76,0,0,1,741.16,245.13Z"/><path class="cls-8" d="M383,319.16a3.11,3.11,0,0,1,1.43-.76c.61,0,1.27-.71,1.82,0a2.28,2.28,0,0,1,.6,2.4c-1.85,1-3.87,1.74-5.53,3.09-.76.19-1-.29-.92-.86s.09-1.35.55-1.66C381.83,320.8,382.14,319.73,383,319.16Z"/><path class="cls-8" d="M748,247.13c-.27.22-.52.62-.91.38s.07-.59,0-.81c-.15-.77-.83-.63-1.41-.64a85.56,85.56,0,0,0,6.84-5.6l2.78-2.55c.26.05.58.06.5.48a39.89,39.89,0,0,1-6.52,5.93,3,3,0,0,0-1.13,1.21l1.73-.88c.35-.11.77-.46.89.24a11.44,11.44,0,0,1-2.71,1.67C747.66,246.7,747.38,246.86,748,247.13Z"/><path class="cls-8" d="M383,319.16c-.35.73-.72,1.47.91,1.7-.93.33-1.5.17-2,.44s-.68.48-.32,1.16c.18.32,0,.47-.24.53-1,.28-.37.6,0,.92-.2.39-.44.69-.94.51-.91-1.05-1.62.18-2.43.21-.58-.23-.65-.66-.46-1.19A10,10,0,0,1,383,319.16Z"/><path class="cls-8" d="M684.06,276.29c-.08.21-.16.42-.23.63l-.09.16a1.57,1.57,0,0,1-1.87-.75,33,33,0,0,1-7.33-4.69c-.87-.74-1.74-1.48-2.63-2.22-.24-.2-.61-.4-.33-.75s.6-.09.84.13a33,33,0,0,0,4.12,3.33A47.92,47.92,0,0,0,684.06,276.29Z"/><path class="cls-8" d="M558.34,307.37c.09.63.73,1.36-.65,1.57a1.38,1.38,0,0,0-.79,1.92,2.24,2.24,0,0,1,.13.57c.31,2,.31,2-1.64,2.51-.47.13-1,.43-.66.87.66.88.24,1.76.27,2.64-1.23-2.3-.62-6.31,1.31-8.3A6.56,6.56,0,0,1,558.34,307.37Z"/><path class="cls-8" d="M704.69,271.72a56.12,56.12,0,0,0,9.08-9.78,3.43,3.43,0,0,1,.48-.53.41.41,0,0,1,.54-.08c.26.18.17.41,0,.62-.42.59-.82,1.18-1.26,1.75a65,65,0,0,1-7,7.62,2.58,2.58,0,0,1-1.36.9C705,272.06,704.51,272.2,704.69,271.72Z"/><path class="cls-8" d="M298.31,326.74c.19-1.54-.61-2.62-1.92-2.59-.44-.64.23-1.06.31-1.6a8.16,8.16,0,0,1,.21-1c.23-.54-.13-1.44.87-1.55,1.61-.19,1.74-.13,2.3,1.2a3.35,3.35,0,0,0,.39.59.53.53,0,0,1,0,.22.69.69,0,0,1-.17.17c-.21.13-.45.07-.67.1.2,0,.44-.05.56.11a1.36,1.36,0,0,1,.1,1.34A5.47,5.47,0,0,1,298.31,326.74Z"/><path class="cls-8" d="M704,280.07a112.85,112.85,0,0,0,11.92,0c.34,0,.93-.25.94.37s-.55.6-1,.6c-2.7,0-5.41,0-8.12,0a14.38,14.38,0,0,1-4-.26c-.08-.27-.66-.27-.44-.66S703.76,280,704,280.07Z"/><path class="cls-8" d="M736.92,272.9c-.51.26-.56,1.54-1.56.69.92-2.57,1.85-5.13,2.77-7.7.16-.45.29-.9.43-1.35a.27.27,0,0,1,.44,0c.78,1.62-.13,3.06-.55,4.51A41.29,41.29,0,0,1,736.92,272.9Z"/><path class="cls-8" d="M226.35,322.7c-.2.19-.38.4-.59.57s-.79.58-.48.93.48-.25.71-.41a1.45,1.45,0,0,1,2.19.67,1.89,1.89,0,0,0,1.1,1.16,9.08,9.08,0,0,1-4.85.21c-.87-.36-.19-1.55-1.24-2,1.4.15,1.36-1.29,2.25-1.58C225.72,322.45,226.21,322.22,226.35,322.7Z"/><path class="cls-8" d="M683.83,276.92c.33.11.71.16.82.6-.41.47-1.23,0-1.54.64a57.61,57.61,0,0,1-10.34-2.78c-.22-.08-.45-.16-.67-.26s-1.06,0-.81-.7.7-.13,1,0a73.69,73.69,0,0,0,7.56,2.11c.61.12,1.06.79,1.77.48s1.43.52,2.16,0Z"/><path class="cls-8" d="M694.85,276c-.47.39-1.11.56-1.41,1.19-.38-.43-.23-.84-.26-1.22.45.21.5,0,.59-.42a90.46,90.46,0,0,0,2.29-11.76c.36-.29.53-.05.69.24-.07,3-.94,5.91-1.41,8.86A23.14,23.14,0,0,0,694.85,276Z"/><path class="cls-8" d="M755,248.22a62.63,62.63,0,0,0,7.08-.93c1.7-.42,3.42-.75,5.13-1.1a2.28,2.28,0,0,1,1.8.13,52.74,52.74,0,0,1-13.24,2.62C755.66,248.56,755.07,248.68,755,248.22Z"/><path class="cls-8" d="M749.71,251.4c.65-.29,1.32.61,2,0,.59-.18.93.47,1.47.45,3.49.89,6.9,2,10.5,2.43,0,.81-.56.8-1.15.68a82.48,82.48,0,0,1-8.79-2.07A25.9,25.9,0,0,1,749.71,251.4Z"/><path class="cls-8" d="M689.84,267.88a63.71,63.71,0,0,1-1-9.56c0-1.32.64-2.53.61-3.86a72.06,72.06,0,0,0,1,12.45,1.07,1.07,0,0,1,.1.8C690.54,268.44,690.22,268.37,689.84,267.88Z"/><path class="cls-8" d="M761.48,251.6a18.83,18.83,0,0,1-6.36,0c-.35-.05-1,.24-1-.32s.6-.53,1.07-.49a57.34,57.34,0,0,0,7.53.07c1.09-.05,2.12-.36,3.19-.51.33,0,.83-.2.87.31s-.5.38-.77.38C764.59,251,763.24,251.71,761.48,251.6Z"/><path class="cls-8" d="M742.6,243.89a3,3,0,0,0-.13,1.14c-.06.76-.35.4-.6.07.34-.73,0-1.35-.29-2a32.61,32.61,0,0,1-2.09-9,.42.42,0,0,1,.64,0,50,50,0,0,0,2.24,8.5A7.61,7.61,0,0,1,742.6,243.89Z"/><path class="cls-8" d="M748.08,251.86a31.84,31.84,0,0,0,7.75,4.27,4.79,4.79,0,0,1,1.59,1c0,.2,0,.34-.23.22a3.94,3.94,0,0,1-2.26-.66,47.9,47.9,0,0,1-7.49-4.21C747.32,252,747.37,251.58,748.08,251.86Z"/><path class="cls-8" d="M739,264.53h-.44l2.07-6.51c.94-.27,1.13.21,1,1-.35,1.24-.73,2.48-1,3.74C740.36,263.65,740.06,264.41,739,264.53Z"/><path class="cls-8" d="M289,322c-.2,1,0,2.32-1.7,2.37-.33,0-.35.46-.37.81.6.2,1.18-.38,2,0-.72.29-.86,1.13-1.73.9-.37-.1-.41.26-.37.57-.65-.26-.52-.82-.48-1.32.13-1.79,1.15-3.22,1.92-4.75C289.27,320.78,289.37,321,289,322Z"/><path class="cls-8" d="M753.14,247.51c.14-.91-.82-.61-1-1.11-.48.43.33.64,0,1-.63.06-.63-.76-1.15-.87.64-.88,1.76-.85,2.62-1.21,1.4-.57,2.72-1.31,4.13-1.87v0c.17.87-.58.76-1,1.1-1,.91-2.34,1.17-3.43,1.93.8.34,1.58-.47,2.42.12A3.27,3.27,0,0,1,753.14,247.51Z"/><path class="cls-8" d="M300.47,321.76c-.49-.17-1.26.24-1.2-.92,0-.75-1.14,0-1.52-.93-.15,1.21.07,2.17-.43,3a2.74,2.74,0,0,1-.22-3.08c.89-.1,1.77-.16,1.35-1.5-.09-.31-.27-.82.15-1.15C300.64,318.15,300.56,320,300.47,321.76Z"/><path class="cls-8" d="M750.74,244.89a1.4,1.4,0,0,0-.89-.24,57.33,57.33,0,0,0,6.65-4.59,2,2,0,0,1,1.45-.43l0,0c-.21,1.19-1.35,1.48-2.1,2.11A16.69,16.69,0,0,1,750.74,244.89Z"/><path class="cls-8" d="M710.91,274.36a4.64,4.64,0,0,1,2.06-1.49c1.5-.88,3.22-1.36,4.6-2.49a2.07,2.07,0,0,1,.66-.29c.36-.1.85-.42,1.08,0s-.33.67-.64.83c-1.37.72-2.76,1.41-4.16,2.09A10.46,10.46,0,0,1,710.91,274.36Z"/><path class="cls-8" d="M256.59,313.87a1,1,0,0,1,.54,1.26c-.45,1.8.12,3.68-.34,5.49-.7-2.1-.91-4.34-1.71-6.41a.74.74,0,0,1,.29-.84C255.91,313.21,256.36,313.29,256.59,313.87Z"/><path class="cls-8" d="M222.76,326.31a2.42,2.42,0,0,0-1.2,1.92c-.5.38-.5.38-.7-.48a17.25,17.25,0,0,1,1.63-6.73c.35,1.3.69,2.56-.29,3.82C221.83,325.32,223,325.64,222.76,326.31Z"/><path class="cls-8" d="M234.28,334.51a1.33,1.33,0,0,1-1.59.75c-.77-.18-1.55.44-2.33,0a.37.37,0,0,0-.33.08c-1.05,1.56-1.87.34-2.85-.14a4.51,4.51,0,0,1-2.29-2.14,1.3,1.3,0,0,1-.18-1c2,3,5.06,3.22,8.29,2.75C233.43,334.72,233.85,334.6,234.28,334.51Z"/><path class="cls-8" d="M735.41,243.92c-.44-.07-.74.06-.77.56a31.83,31.83,0,0,1-5.53-5c-.61-.78-.62-.92-.16-1.35A46.29,46.29,0,0,0,735.41,243.92Z"/><path class="cls-8" d="M755,248.22c.41.07,1,0,.77.72a47,47,0,0,1-6.39.19c-.42,0-.93-.29-1.22.29-.23-.14-.59-.52-.37-.57.73-.17,1.15-1.09,2-.82C751.54,248.54,753.28,248.24,755,248.22Z"/><path class="cls-8" d="M688.85,279.41l-1.52.39V280l2.28.11a24.13,24.13,0,0,1-8.13-.28c-1-.19-2-.41-3-.62a.44.44,0,0,1,.06-.54A44,44,0,0,0,688.85,279.41Z"/><path class="cls-8" d="M736.8,237c-1.12-2.23-1.24-4.75-2-7.1a2.39,2.39,0,0,1,0-.71c0-.25,0-.51.34-.52s.4.23.45.47c.11.51.22,1,.34,1.52a36.5,36.5,0,0,0,1.51,5.72c.07.15,0,.38-.06.58S737,237.08,736.8,237Z"/><path class="cls-8" d="M694.79,280.13l1.11-.24a39.09,39.09,0,0,0,5.64,2.36l1.22.46c.21.26.72.18.74.7a.81.81,0,0,1-1,0A29.71,29.71,0,0,1,696,280.9C695.57,280.66,695.19,280.39,694.79,280.13Z"/><path class="cls-8" d="M702.77,264.78c.89-2.24,1.89-4.44,2.57-6.76.06-.22.13-.5.44-.46s.36.29.29.54a22.49,22.49,0,0,1-3.05,7.65C702.63,265.5,702.71,265.14,702.77,264.78Z"/><path class="cls-8" d="M702.54,283.44l.57-.12-.35-.61c2.6.4,5.11,1.27,7.74,1.48.25,0,.48.16.47.44s-.32.42-.6.4a11.44,11.44,0,0,1-1.43-.2C706.81,284.38,704.68,283.9,702.54,283.44Z"/><path class="cls-8" d="M704,280.07c-.59,0-.41.38-.28.7a22,22,0,0,1-5.77-.67c.65-.29,1.29-.64,1.91.08a.63.63,0,0,0,.53,0,1.46,1.46,0,0,0,.15-.77c0-.22-.27-.26-.47-.21-.52.1-1,.19-1.39-.32,1.18.2,2.41-.41,3.58.24.16.09.5-.14.75-.23.17.11.4.18.23.46l-.64.37Z"/><path class="cls-8" d="M697.6,278.86l-1.06-.14c1.58-.93.89-1,.27-1.63.23,0,.25-.44.4-.54,1.15-.76,2.71-.79,3.64-2a.79.79,0,0,1,.31.17c.3.46.59.93.13,1.46a8.38,8.38,0,0,0-2.3,1c-.3.27.71.64-.07.86C698.47,278.35,697.76,278.12,697.6,278.86Z"/><path class="cls-8" d="M743.75,243.23l-.22,0c-.67-1-.49-2.21-.61-3.32a16.57,16.57,0,0,1,.4-5.29c.44-.14.27.41.53.46Z"/><path class="cls-8" d="M758.66,320.84c-.09.42.52.85-.11,1.28a1.13,1.13,0,0,1-1.51.06c-.19-.15-.35-.33-.62-.14-1,.68-1.41-.13-1.85-.8C755.91,320.82,757.21,320.1,758.66,320.84Z"/><path class="cls-8" d="M735.12,244.66c1.55.67.22,1-.18,1.39-1.42-.67-2.86-1.31-4.25-2-.43-.22-1-.43-1.08-1,.09-.23.37-.11.5-.26,1.31.63,2.61,1.27,3.93,1.88C734.36,244.75,734.74,245.06,735.12,244.66Z"/><path class="cls-8" d="M224.41,317.41c.11.11.2.26.33.32.3.15.82-.19.93.27s-.33.79-.61.92c-.86.4-.57,1.71-1.61,1.91,0,0,0,.14,0,.21,0,.28.67.48.24.76s-.62-.34-.9-.56l-.27-.24A10.31,10.31,0,0,1,224.41,317.41Z"/><path class="cls-8" d="M679,269.36A31.09,31.09,0,0,1,674.7,265c-.24-.64-.14-1,.64-.7a35.25,35.25,0,0,0,3.88,4.13C679.44,268.81,679.66,269.19,679,269.36Z"/><path class="cls-8" d="M355.44,318.6c-.15.18,0,.74-.59.34s-1-1.27-1.83-.31c-.11.13-.59-.24-1-.25-1.84,0-2.34.57-1.92,2.45a1.77,1.77,0,0,1-.76-2.21c.32-.83,1.07-1,1.88-.91C352.68,317.84,354.2,317.58,355.44,318.6Z"/><path class="cls-8" d="M698.92,278.12c.08-.29-.11-.4-.34-.51s-.61-.28-.44-.68c.06-.16.27-.37.39-.37.42,0,.17.55.46.7a23.18,23.18,0,0,0,5-1,.36.36,0,0,1,.31.31c-.06.48-.43.62-.82.75A23.11,23.11,0,0,1,698.92,278.12Z"/><path class="cls-8" d="M686.68,266.21l2.64,4.79c-.35.25-.67.64-1.16.25-1-1.55-1.81-3.13-1.46-5.06Z"/><path class="cls-8" d="M681.91,265a3.57,3.57,0,0,1-1.57-2.12c-.33-.91-.83-1.75-1.23-2.64-.17-.38-.45-.78-.13-1.22.17-.12.06-.4.28-.49l2.87,6.48C682.06,265.11,682,265.1,681.91,265Z"/><path class="cls-8" d="M703.25,279.39l-.23-.46c2.06-.51,4.24-.39,6.25-1.17.38.09.79.15.77.69A21.4,21.4,0,0,1,703.25,279.39Z"/><path class="cls-8" d="M224.71,332.05c-1.19-.46-1.38-1.4-1.33-2.55a5.35,5.35,0,0,0-.39-2.95c.65.36.94-.31,1.41-.48A13.73,13.73,0,0,0,224.71,332.05Z"/><path class="cls-8" d="M489.52,338c.31-.14.6,0,.93.08-.56-1.49-.51-1.55,1.89-2.24.13,1.12.22,2.2-1.22,2.64C490.41,338.74,489.9,338.71,489.52,338Z"/><path class="cls-8" d="M227.08,337.8a2.28,2.28,0,0,1,2.72.07,1.51,1.51,0,0,0,1.58.1c1.18-.45,2.5-.26,3.63-.87.2.19.37.39.19.68A13,13,0,0,1,227.08,337.8Z"/><path class="cls-8" d="M729.15,230.05a39.76,39.76,0,0,1,3.36,5.23c.16.27,0,.47-.28.52s-.41-.22-.58-.45c-1.11-1.49-1.77-3.23-2.78-4.78C728.76,230.29,728.92,230.15,729.15,230.05Z"/><path class="cls-8" d="M710,278.45c-.4-.08-.5-.48-.77-.69,2.13-.35,4.09-1.42,6.32-1.43A28,28,0,0,1,710,278.45Z"/><path class="cls-8" d="M188.47,309.09a1,1,0,0,1,.12,1.79c-.51.47-.59.86-.22,1.62-1-.24-1.44-1-2.12-1.31Z"/><path class="cls-8" d="M319.44,318.66c0,.48-.14,1.1.67,1.13.17,0,.29.06.21.3A13.19,13.19,0,0,0,320,323a1.57,1.57,0,0,0,.37,1.42c.42.4-.1.49-.26.69-.67-1.65-.72-3.45-1.2-5.15A1.08,1.08,0,0,1,319.44,318.66Z"/><path class="cls-8" d="M730.11,242.73l-.5.26a.67.67,0,0,1-.79,0c-1.41-.87-2.81-1.77-4.21-2.66l.26-.41Z"/><path class="cls-8" d="M681.91,265h.22a23.64,23.64,0,0,1,2.89,4.8l-.06.52c-1.4-1.21-2-2.95-3-4.42A.87.87,0,0,1,681.91,265Z"/><path class="cls-8" d="M741.16,245.13l-.5.48c-.72.06-1-.21-.72-.94.59.12.36-.23.24-.45-.31-.54-.66-1.07-1-1.61s-.51-.82-.24-1.32c.17-.17.34-.08.5,0,.72,1.12,1.43,2.25,2.14,3.37C741.32,244.68,741.05,244.72,741.16,245.13Z"/><path class="cls-8" d="M755.77,238.39l-.5-.48,3.16-3.78c.81-.21.6.26.46.69-.92.75-1.36,1.89-2.19,2.71C756.4,237.83,756.19,238.22,755.77,238.39Z"/><path class="cls-8" d="M325.14,329.66a1.38,1.38,0,0,0-2,1.06c-.09.33-.17.65-.58.56s-.13-.47-.23-.69c-.37-.76-.07-1.18.67-1.4.28-.33.68-.55,1-.87.47-.5.82-.31,1.15.15A2.4,2.4,0,0,1,325.14,329.66Z"/><path class="cls-8" d="M758.89,234.82a.67.67,0,0,0-.46-.69c1.13-1.44,1.87-3.12,3-4.57A10.29,10.29,0,0,1,758.89,234.82Z"/><path class="cls-8" d="M704.25,276.54l-.31-.31,4.77-1.51c.27-.08.6-.2.72.14s-.26.42-.48.54A12.16,12.16,0,0,1,704.25,276.54Z"/><path class="cls-8" d="M260.7,319.68a1.88,1.88,0,0,1,.27-1.55c-.37-.38-.92,0-1.24-.45.47-.93,1.64.15,2.13-.71l1.48.52A12.93,12.93,0,0,0,260.7,319.68Z"/><path class="cls-8" d="M761.06,236.5c.57-1.39,1.73-2.37,2.53-3.6.11-.17.25-.35.48-.22a.4.4,0,0,1,.15.52,2.32,2.32,0,0,1-.41.72,29.44,29.44,0,0,1-2.95,3.36C760.51,236.92,760.79,236.71,761.06,236.5Z"/><path class="cls-8" d="M689.84,267.88c1,.21.56-.58.7-1,.39,1.52.79,3,1.18,4.57l-.78.3A25.1,25.1,0,0,1,689.84,267.88Z"/><path class="cls-8" d="M711.81,271c-1.66.6-3,1.83-4.74,2.31a.48.48,0,0,1,0-.6l4.08-2.39C711.86,270,712,270.4,711.81,271Z"/><path class="cls-8" d="M731.06,245.63c1.51.59,3.13.9,4.59,1.64a.35.35,0,0,1-.51,0c-1.21.83-2.18-.06-3.19-.49a7.17,7.17,0,0,1-1.33-1C730.61,245.43,730.78,245.41,731.06,245.63Z"/><path class="cls-8" d="M763,244.42c1.26-1.14,3-1.19,4.46-1.83a.3.3,0,0,1,.28.14.38.38,0,0,1-.06.32c-.51.72-3.78,1.66-4.7,1.36Z"/><path class="cls-8" d="M739.47,241.29H739A10.54,10.54,0,0,1,736.8,237l.56,0C738.38,238.25,738.65,239.91,739.47,241.29Z"/><path class="cls-8" d="M751,231.31a5.51,5.51,0,0,1-1.24,4.9C749.71,234.55,750.38,233.1,751,231.31Z"/><path class="cls-8" d="M386.85,320.82c-.44-1.18-.81-2.41-2.42-2.42.8-.49,1.61-1,2.45-.1A1.68,1.68,0,0,1,386.85,320.82Z"/><path class="cls-8" d="M741.83,254.41c0,.4.08.8.15,1.39.76-.77.62-1.75,1.28-2.29l-1.44,4.76c-1.27-.27-.9-1.13-.7-1.93C741.51,255.75,741.32,255,741.83,254.41Z"/><path class="cls-8" d="M363.57,340c-.07-.34.08-.93-.63-.45a1.21,1.21,0,0,1-1.12.26c-.27-.1-.56-.22-.62-.51-.09-.47.35-.3.57-.39.69-.28,1-1,1.64-1.35A2.67,2.67,0,0,1,363.57,340Z"/><path class="cls-8" d="M761.06,236.5l-.2.78c-.83,1-1.54,2.07-2.93,2.33l0,0c-.17-.95.64-1.25,1.15-1.74S760.18,236.64,761.06,236.5Z"/><path class="cls-8" d="M271.91,315.08c-.18.3-.35.62-.55.91s-.58.35-.63,0a1.18,1.18,0,0,0-.84-1c-1-.41-.56-.78.1-1.09A2.89,2.89,0,0,1,271.91,315.08Z"/><path class="cls-8" d="M766.41,326.52c-1.56-.52-2.31-1.87-1.74-3.1C765.44,324.35,766.62,325.05,766.41,326.52Z"/><path class="cls-8" d="M749.49,237.81c-.86.91-.89,2.33-1.75,3.33a.31.31,0,0,1-.31.05.32.32,0,0,1-.12-.29c.54-1,.59-2.2,1.2-3.18.16-.25.34-.46.66-.42S749.51,237.48,749.49,237.81Z"/><path class="cls-8" d="M259.7,316c-.1.68-.56,1.24-1.16,1s-.57-1-.68-1.53a2.65,2.65,0,0,1,.43-1.69C258.86,314.48,258.51,315.74,259.7,316Z"/><path class="cls-8" d="M434.82,320.09a4.42,4.42,0,0,1,.92,1.31c.22.79,1,.74,1.63.83.37.69.1,1-.62,1-.45-.58-.82-1.23-1.76-1.05-.65.14-.25-.88-.85-.86C434.36,320.9,434.59,320.5,434.82,320.09Z"/><path class="cls-8" d="M729,238.1c-.24.49,0,.91.16,1.35-1-1.14-2.31-2.1-2.64-4C727.7,236.22,728.15,237.32,729,238.1Z"/><path class="cls-8" d="M240.73,334.42c.66-.62.18-1.42.26-2.12,0-.42-.57-.49-.93-.19a2.2,2.2,0,0,1-1.43.45c.32-.23.64-.46,1-.67a1.38,1.38,0,0,1,2.08.38c.5.74.71,1.54-.24,2.16A.45.45,0,0,1,240.73,334.42Z"/><path class="cls-8" d="M322.31,338.05c.63.21,1.19.21,1.33-.62.09-.54.22-1.08.87-1.06s0,.7.39.93a1.42,1.42,0,0,1,.25.24C324.28,338.87,323.39,339,322.31,338.05Z"/><path class="cls-8" d="M763.23,322.22c-.34.2-.68.41-1,.58s-.65.2-.7-.14c-.18-1.08-.9-1-1.67-.9l-.21-.71C761.09,320.62,762.1,321.61,763.23,322.22Z"/><path class="cls-8" d="M409.12,329.67c.21,0,.27.37.6.15.58-.39.83.26.84.53s.35,1-.48,1c-.25,0-.49,0-.58.24s.12.46.44.45c.14,0,.25.09.17.22-.17.29-.49.22-.75.25A6.74,6.74,0,0,1,409.12,329.67Z"/><path class="cls-8" d="M739.19,227.4c.22-1.27.06-2.6.79-3.79a29,29,0,0,1-.27,5.74C739.28,228.76,739.57,228,739.19,227.4Z"/><path class="cls-8" d="M686.7,266.19a.69.69,0,0,1-1.07-.36c-.37-.91-.7-1.84-1-2.75a1,1,0,0,1,.92,0,10,10,0,0,1,1.18,3.12Z"/><path class="cls-8" d="M740.44,249.48a.76.76,0,0,0,.49.7c-1.25.45-2.45,1.13-3.86.69v0c.07-.42.37-.58.74-.68Z"/><path class="cls-8" d="M289,322a3.06,3.06,0,0,0-.73-1.46l1.23-1.4c1,.9.11,1.94.21,2.9Z"/><path class="cls-8" d="M323.51,327a1.19,1.19,0,0,1-.72,1.2c-.71.3-1.42-.31-2.13,0l-.06.31a4.48,4.48,0,0,1-.24-2c.25.18.52.69.73.5C321.94,326.25,322.71,326.87,323.51,327Z"/><path class="cls-8" d="M753.15,251.83a2.41,2.41,0,0,1-1.47-.45c-.42-.13-.42-.13-.55-.7,0-.19-.21-.22-.36-.21a3.67,3.67,0,0,1-2.19-1,20.67,20.67,0,0,0,3.12.79C752.76,250.38,752.65,251.34,753.15,251.83Z"/><path class="cls-8" d="M744.47,249.71c.81-.12,1.61-.2,2.18.58-.33.43.18.53.3.78s.81.72-.05,1A10.93,10.93,0,0,1,744.47,249.71Z"/><path class="cls-8" d="M731.06,245.63l-.44.2c-1.28.16-2.24-.6-3.61-1.18C728.82,244,729.86,245.12,731.06,245.63Z"/><path class="cls-8" d="M740.13,234.11h-.64c0-1.07-.81-2.16.06-3.44A6,6,0,0,1,740.13,234.11Z"/><path class="cls-8" d="M675.34,264.29a.68.68,0,0,0-.64.7c-.54-.66-1.05-1.33-1.61-2a1.86,1.86,0,0,1-.57-1.6.16.16,0,0,1,.27,0Z"/><path class="cls-8" d="M702.77,264.78l.25,1a10.38,10.38,0,0,1-1.47,2.57c-.33-.54-.6,0-.91,0Z"/><path class="cls-8" d="M261.16,316c-.41.3-.72.16-1-.21a5.48,5.48,0,0,1,3.37-1.92c.23,1.12-.68,1.05-1.32,1.28C261.79,315.33,261,315.08,261.16,316Z"/><path class="cls-8" d="M683.75,272.3a11,11,0,0,0,3.93,2.91c.57.25,1.52.52,1.11,1.2s-1.11-.09-1.64-.29c-1.81-.66-2.77-2.4-4.53-3.14C682.58,272.15,682.92,271.87,683.75,272.3Z"/><path class="cls-8" d="M739.94,244.67a2.4,2.4,0,0,0,.72.94l-.26.5c-.95-.37-1.46-1.23-2.15-1.89s-.77-.82-.23-1.23Z"/><path class="cls-8" d="M768.45,332.31c-.48-.25-.55-.73-.65-1.19a3.44,3.44,0,0,0-1.06-1.92c-.25-.22-.71-.43-.56-.8s.72,0,1.06-.17C768.26,329.41,767.87,331,768.45,332.31Z"/><path class="cls-8" d="M743.85,235.06l-.53-.46c.09-1.09.14-2.19.27-3.28,0-.36.18-1,.66-.79s-.11.59-.1.84C744.23,232.62,743.88,233.83,743.85,235.06Z"/><path class="cls-8" d="M362.88,331.08l-1.31.06c-.35,0-.8.16-.79-.41a.92.92,0,0,1,.56-1c.27-.09.58-.11.55.35,0,.19-.54.48,0,.56.36,0,.53-.28.5-.66s0-1-.05-1.55A6,6,0,0,1,362.88,331.08Z"/><path class="cls-8" d="M763,244.41c-.59,1-1.68,1.1-2.65,1.41-.21.07-.57.34-.69-.1a.55.55,0,0,1,.45-.72c1-.14,1.88-.68,2.91-.58Z"/><path class="cls-8" d="M729.15,230.05l-.28.52c-.54-1.14-1.41-2.18-1.13-3.79A5.53,5.53,0,0,1,729.15,230.05Z"/><path class="cls-8" d="M486.38,317.94a1.51,1.51,0,0,1-1-.14c-.13,0-.35-.08-.44,0-.49.39-.5.44-1.19.16s-1.24.56-1.84,0A4.31,4.31,0,0,1,486.38,317.94Z"/><path class="cls-8" d="M325.15,328.47c-.95-.47-1.38.58-2.12.72.33-.69,1.06-1.25.71-2.16.15-.22.13-.62.46-.63a.51.51,0,0,1,.48.58c-.11.56.4.83.52,1.27A1.42,1.42,0,0,1,325.15,328.47Z"/><path class="cls-8" d="M734,224.28c.11-.37-.15-.83.27-.91s.42.38.5.68c.13.46.27.91.36,1.38,0,.27.07.62-.31.67s-.5-.19-.56-.5C734.12,225.14,734,224.67,734,224.28Z"/><path class="cls-8" d="M689.1,281.55a.53.53,0,0,0,.24.71,15.46,15.46,0,0,1-3.13,1.41c-.66-.13,0-.33,0-.5A11.91,11.91,0,0,1,689.1,281.55Z"/><path class="cls-8" d="M256.59,313.87c-.56.2-.79-.4-1.22-.5,1.61-.95,2.07-.9,2.88.27A4.08,4.08,0,0,1,256.59,313.87Z"/><path class="cls-8" d="M762.75,240.34a16.24,16.24,0,0,0,2.68-1.9c.18-.13.42-.32.62-.05s-.08.39-.22.57a7,7,0,0,1-1.88,1.4C763.54,240.78,763.14,240.87,762.75,240.34Z"/><path class="cls-8" d="M761.05,241.77a1.39,1.39,0,0,1-1.33,1.3c-.71,0-1.21,1.06-2,.37v0a8.22,8.22,0,0,1,3.37-1.67Z"/><path class="cls-8" d="M746.78,241.91c.32,1.31-.28,2.22-1.38,3.13C745.18,243.59,746.35,242.9,746.78,241.91Z"/><path class="cls-8" d="M745.5,225.74l-.73,3.93c-1.11-1.63.06-2.73.42-3.93A.27.27,0,0,1,745.5,225.74Z"/><path class="cls-8" d="M754.56,321.25a2,2,0,0,1-.37,1.55c-.28.32-.53,1.1-1,.08-.18-.4-.53,0-.8.07A4.6,4.6,0,0,1,754.56,321.25Z"/><path class="cls-8" d="M745.5,225.74h-.31c-.15-1.46.64-2.49,1.69-3.78C746.79,223.61,745.8,224.55,745.5,225.74Z"/><path class="cls-8" d="M489.51,335.41c.2-.34.4-.69.61-1s.31-.56.63-.33a1.58,1.58,0,0,1,.56.74c.14.42-.35.28-.46.39-.45.5-1.1.59-1.6,1C488.94,335.76,489.42,335.65,489.51,335.41Z"/><path class="cls-8" d="M295.44,335.4c.23.88,1.78,1.11,1.2,2.4a5.35,5.35,0,0,1-2-.69l1,.1C294.71,336.74,295.4,336,295.44,335.4Z"/><path class="cls-8" d="M762.5,254.94a2.38,2.38,0,0,0,1.15-.68l2.6.84A6.91,6.91,0,0,1,762.5,254.94Z"/><path class="cls-8" d="M433.36,323.19c.19.39,1.31.75,0,1.19-.32.11-.12.45.21.57a2,2,0,0,1,1.36,1.3,8.46,8.46,0,0,0-2.24-.88A5.54,5.54,0,0,1,433.36,323.19Z"/><path class="cls-8" d="M704.69,271.72c.16.17.31.34.47.5-.69.58-1.06,1.47-1.95,1.84-.31-.15-.66-.26-.7-.69Z"/><path class="cls-8" d="M696.75,264.06l-.69-.24c0-.78.42-1.51.26-2.32a.32.32,0,0,1,.31-.4.31.31,0,0,1,.29.42C696.7,262.36,697.22,263.24,696.75,264.06Z"/><path class="cls-8" d="M707.08,272.67c0,.2,0,.4,0,.6-.55.43-1.26.58-1.77,1.11-.22.22-.72.48-.93.1s.29-.58.59-.74C705.66,273.37,706.37,273,707.08,272.67Z"/><path class="cls-8" d="M432.62,329.68c.53.11,1.28.14,1.31.74s-.71.76-1.25.93A2.11,2.11,0,0,1,432.62,329.68Z"/><path class="cls-8" d="M735.14,247.29l.51,0,2.13.54c-.21.4-.59.42-1,.44C736.29,247.87,735.12,248.6,735.14,247.29Z"/><path class="cls-8" d="M685.5,263.09c-.32.39-.62.26-.92,0-.08-.5-.17-1-.24-1.51,0-.23,0-.51.24-.59s.37.2.44.42Z"/><path class="cls-8" d="M489.05,319.11c-.58.25-1.4,0-1.71.82-.12.33-.23.12-.39,0s-.73-.22-.61-.72c.05-.24.27-.27.47-.26a2.45,2.45,0,0,0,1.48-.27Z"/><path class="cls-8" d="M235.2,337.78c-.06-.23-.12-.45-.19-.68,1.06-.5,2.26-.35,3.35-.72C237.51,337.31,236.26,337.33,235.2,337.78Z"/><path class="cls-8" d="M191.54,310.94c-.15-.69-.45-1.36.83-.93.5.17,1.07-.73,1.81-.49A11.6,11.6,0,0,1,191.54,310.94Z"/><path class="cls-8" d="M688.16,271.25c.34-.29.64-.79,1.16-.25l.51,1.18c-.88-.45-.57.35-.71.68A5.26,5.26,0,0,1,688.16,271.25Z"/><path class="cls-8" d="M702.51,273.37a.83.83,0,0,1,.7.69l-.44.3a1,1,0,0,1-.84.67,1.17,1.17,0,0,1-1.08-.2v-.24Z"/><path class="cls-8" d="M274.54,335.62c.42.1.57-.16.63-.51s-.05-.66.41-.5a.55.55,0,0,1,.31.79c-.11.29-.22.61-.61.65-.67.06-.66.57-.72,1.05A1.71,1.71,0,0,1,274.54,335.62Z"/><path class="cls-8" d="M567.23,312.65a3.55,3.55,0,0,0,.06-.47c.06-1.19.26-1.33,1.37-1A1.59,1.59,0,0,1,567.23,312.65Z"/><path class="cls-8" d="M734.91,240.34c-.46-.58-1.19-1-1.08-1.93a.46.46,0,0,1,.62,0c.06.71,1.41.69,1,1.68C735.24,240.17,735.1,240.31,734.91,240.34Z"/><path class="cls-8" d="M680.5,269.75c.68.42,1.07,1.19,1.82,1.52.14.11.19.24.08.39a.33.33,0,0,1-.5,0c-.93-.29-1.27-1.34-2.16-1.67C679.82,269.48,680.17,269.66,680.5,269.75Z"/><path class="cls-8" d="M683.55,258.54a2.59,2.59,0,0,1-.22-1.42.5.5,0,0,1,.73,0,2.25,2.25,0,0,1,.45,1.7C684.06,259.15,683.8,258.87,683.55,258.54Z"/><path class="cls-8" d="M768.27,236.15c.22.83-.06,1.29-.8,1.46-.19,0-.63.16-.59-.11C767,236.78,767.62,236.49,768.27,236.15Z"/><path class="cls-8" d="M734.45,238.44l-.61,0c-.18-.55-.88-.61-1.08-1.15-.09-.24-.46-.45-.13-.69a.53.53,0,0,1,.73.22C733.74,237.32,734.09,237.89,734.45,238.44Z"/><path class="cls-8" d="M735.67,251.41l-1.7.41c-.21.05-.5.15-.6-.16s.11-.44.32-.57a1.66,1.66,0,0,1,1.68,0A.34.34,0,0,1,735.67,251.41Z"/><path class="cls-8" d="M188.46,313.63c.54-1.18,1.11-2.33,2.65-2.39Z"/><path class="cls-8" d="M672.79,261.4l-.27,0c-.68.18-1.48-.38-1.37-1,.05-.31.27-.41.49-.19C672,260.64,672.59,260.84,672.79,261.4Z"/><path class="cls-8" d="M300.26,323.7c0-2-1.17-.75-2.25-.57a2.83,2.83,0,0,1,2.43-1.15C300.4,322.56,300.62,323.16,300.26,323.7Z"/><path class="cls-8" d="M683.81,277c.25.31.07.41-.22.43a4.51,4.51,0,0,1-1.94-.47c.08-.22.15-.43.22-.65Z"/><path class="cls-8" d="M700.85,274.83l1-.23c.27.47.92,0,1.19.46a2.31,2.31,0,0,1-1.72,1.16C701.14,275.75,701,275.29,700.85,274.83Z"/><path class="cls-8" d="M457.12,307.87c-.64-.29-.94-.93-1.71-1.54,1,.08,1.6.92,2.4.55A1.59,1.59,0,0,1,457.12,307.87Z"/><path class="cls-8" d="M694.85,276c-.54-.32-.56-.58-.16-1.13a7.31,7.31,0,0,0,.65-2c.23.69-.59,1.49.21,2.13Z"/><path class="cls-8" d="M710.67,256.15a.74.74,0,0,1-.72,0c.14-.58.28-1.16.41-1.74C710.67,255,711.26,255.52,710.67,256.15Z"/><path class="cls-8" d="M348,327.72a1.31,1.31,0,0,0,.55.75c.27.2.13.59-.06.5-.65-.32-1.1.28-1.67.22A3.83,3.83,0,0,1,348,327.72Z"/><path class="cls-8" d="M716.94,267.14a13.39,13.39,0,0,1-1.2,1c-.19.13-.36-.14-.36-.34,0-.66.64-.72,1.06-.95C716.63,266.73,716.83,266.77,716.94,267.14Z"/><path class="cls-8" d="M377,324.65a5.13,5.13,0,0,0-.31,2.23c.11.54-.42.6-.64.89A3.82,3.82,0,0,1,377,324.65Z"/><path class="cls-8" d="M762.75,240.34a2.56,2.56,0,0,0,1.2,0c-.29.64-1,.8-1.47,1.16-.27-.27-.8,0-1-.48C761.82,240.62,762.4,240.68,762.75,240.34Z"/><path class="cls-8" d="M684.06,257.12a.89.89,0,0,1-.73,0c.41-.85-.31-1.77.13-2.86A9.39,9.39,0,0,1,684.06,257.12Z"/><path class="cls-8" d="M757.19,257.38l.23-.22a4.29,4.29,0,0,1,.81.06c.39.11,1.08.12.88.68s-.78.17-1.16,0A3.57,3.57,0,0,1,757.19,257.38Z"/><path class="cls-8" d="M483.52,320.82c.51-.62,1.47-.21,2-1,.25.5-.26,1.1.39,1.29Z"/><path class="cls-8" d="M713.58,269.06c.22-.26.29-.66.7-.74a.59.59,0,0,1,.71.25c.16.32-.16.36-.34.48-.35.22-.56.69-1.09.55A.35.35,0,0,1,713.58,269.06Z"/><path class="cls-8" d="M678.54,278.68l-.06.54a5.63,5.63,0,0,1-.92-.23c-.34-.15-1.11.14-1-.5s.76-.06,1.16,0A3.29,3.29,0,0,1,678.54,278.68Z"/><path class="cls-8" d="M718,274.84c.13.65-.35.8-.69,1s-.92.43-1.06.12c-.25-.55.4-.48.72-.62S717.67,275,718,274.84Z"/><path class="cls-8" d="M300,334.91c-1.05.58-2.19-.16-3.26.2-.14.05-.37-.05-.3-.23s.27-.27.41-.4Z"/><path class="cls-8" d="M735.24,227.24a.38.38,0,0,1-.37.5c-.47,0-.55-.39-.6-.74a.35.35,0,0,1,.42-.43C735.09,226.6,735.16,226.93,735.24,227.24Z"/><path class="cls-8" d="M757.94,246.33l-.1,0c-.45.18-1.13.63-1.31.1s.63-.59,1.08-.74a3,3,0,0,0,.31-.15c.19-.12.43-.14.5.06C758.56,246,758.17,246.15,757.94,246.33Z"/><path class="cls-8" d="M221.29,331.58a4.33,4.33,0,0,0,.59.55c.81.48.64.83-.11,1.14A1.77,1.77,0,0,1,221.29,331.58Z"/><path class="cls-8" d="M240.73,334.42h.71a4.19,4.19,0,0,1-1.9,1.45A2.26,2.26,0,0,1,240.73,334.42Z"/><path class="cls-8" d="M738,243c-.33.49.07.84.23,1.23-.68-.3-.93-1-1.47-1.46,0-.6.34-.57.76-.48A.91.91,0,0,1,738,243Z"/><path class="cls-8" d="M738.76,248.71c.87.17,1.92-.59,2.62.49-.16.29-.31.6-.71.28C740.3,248.57,739.28,249.26,738.76,248.71Z"/><path class="cls-8" d="M226.1,315.74c.19,1.27-.72,1.36-1.6,1.47A4.43,4.43,0,0,1,226.1,315.74Z"/><path class="cls-8" d="M711.81,271a.84.84,0,0,0-.65-.68,1.78,1.78,0,0,1,1-.48c.41-.06.83-.17,1.15.23Z"/><path class="cls-8" d="M737.54,242.28l-.76.48c-.31-.4-.62-.8-.92-1.21.08-.24.23-.35.49-.25C737,241.37,737.16,241.92,737.54,242.28Z"/><path class="cls-8" d="M736.35,241.3l-.49.25c-.32-.4-.64-.8-1-1.21.09-.26.24-.37.51-.22A2.26,2.26,0,0,1,736.35,241.3Z"/><path class="cls-8" d="M739.19,227.4c.81.48.41,1.28.52,1.95C738.73,228.91,739.24,228.08,739.19,227.4Z"/><path class="cls-8" d="M683.55,251.65c0,.49.08.84.1,1.18s.25.74-.26.72-.31-.47-.28-.77A1.47,1.47,0,0,1,683.55,251.65Z"/><path class="cls-8" d="M220.86,327.75c.2.21.27.6.7.48-.1.42.72,1.22-.49,1.19A2.54,2.54,0,0,1,220.86,327.75Z"/><path class="cls-8" d="M225.15,335.89c-.24.72.85.79.72,1.45-.61-.25-1.36-.34-1.43-1.22l.72-.23Z"/><path class="cls-8" d="M389.48,337.1a5,5,0,0,1-3.6,0Z"/><path class="cls-8" d="M237.88,333c.19.53.05.84-.57.85-.39,0-.78,0-1.18.06A3.41,3.41,0,0,1,237.88,333Z"/><path class="cls-8" d="M681.9,271.71a.54.54,0,0,0,.42-.44,3.1,3.1,0,0,1,1,1,.93.93,0,0,0-.68.44A.91.91,0,0,1,681.9,271.71Z"/><path class="cls-8" d="M686.18,283.17l0,.5c-.43.29-1.15.61-1.37.32-.38-.5.26-.6.65-.68Z"/><path class="cls-8" d="M680.5,269.75l-.76.29c-.31-.17-.63-.32-.75-.68a1.43,1.43,0,0,0,.23-.94Z"/><path class="cls-8" d="M683.55,258.54l1,.28c0,.37.11,1-.4.94C683.39,259.72,683.81,258.92,683.55,258.54Z"/><path class="cls-8" d="M741.12,256.34c0,.75,0,1.47.7,1.93a1.09,1.09,0,0,1-.19.76,1.33,1.33,0,0,0-1-1A4.22,4.22,0,0,1,741.12,256.34Z"/><path class="cls-8" d="M409.41,333c.83.83.51,1.92.67,2.9A5.51,5.51,0,0,1,409.41,333Z"/><path class="cls-8" d="M377.51,335.15c.3-.24.68-.65,1-.18s-.53.55-.59,1Z"/><path class="cls-8" d="M735.67,251.41l-.3-.31c.47-.9,1.15-.06,1.71-.21v0C736.77,251.5,736.18,251.33,735.67,251.41Z"/><path class="cls-8" d="M713.31,270a2,2,0,0,1-1.15-.23c.41-.37.76-.85,1.42-.74l0,.54C713.48,269.75,713.39,269.89,713.31,270Z"/><path class="cls-8" d="M703,275.06c-.26.06-.53.11-.79.19-.94.29-.49-.29-.4-.65l.95-.24C702.88,274.58,703.13,274.76,703,275.06Z"/><path class="cls-8" d="M276.48,338.73c-.06-1.08.78-.5,1.22-.67C277.43,338.53,277.32,339.3,276.48,338.73Z"/><path class="cls-8" d="M679.26,258.53c-.09.16-.18.33-.28.49-.34-.41-.8-.78-.6-1.48C679,257.63,679.06,258.13,679.26,258.53Z"/><path class="cls-8" d="M757.94,246.33c.12-.25.44-.5,0-.74.39-.16,1-.45,1.08.09C759.14,246.41,758.4,246.27,757.94,246.33Z"/><path class="cls-8" d="M453.29,307.65c.07.56,1.08,1.16-.05,1.69C453,308.77,452.81,308.2,453.29,307.65Z"/><path class="cls-8" d="M377.49,323.44c.65.21.4.76.46,1.19-.3.24-.62.05-.93,0A2.48,2.48,0,0,1,377.49,323.44Z"/><path class="cls-8" d="M766.46,229.14c-.11.74-.31,1.12-.92,1.34C765.48,229.81,765.76,229.48,766.46,229.14Z"/><path class="cls-8" d="M746.9,252.08c.2-.33.05-.67.05-1a2.86,2.86,0,0,1,1.13.79c-.38,0-.5.36-.64.65Z"/><path class="cls-8" d="M362.32,328c-1.42-.12-.34-1-.43-1.49A1.8,1.8,0,0,1,362.32,328Z"/><path class="cls-8" d="M392.12,336.38c-.79.29-1.4,1.24-2.43.68A6.89,6.89,0,0,1,392.12,336.38Z"/><path class="cls-8" d="M761.52,241a1.09,1.09,0,0,1,1,.48,3.35,3.35,0,0,1-1.43.25l0,0C760.85,241.32,761.24,241.21,761.52,241Z"/><path class="cls-8" d="M572.75,324.15c-.33-.21-.79.27-1-.17s.15-.54.33-.78A1.22,1.22,0,0,1,572.75,324.15Z"/><path class="cls-8" d="M559.21,318.51c-.34.31-1.44-.1-1.08,1,.08.22-.31.26-.42.1a1.69,1.69,0,0,1-.22-2c.44-.65.8,0,1.16.24S559.15,318.13,559.21,318.51Z"/><path class="cls-8" d="M571.22,325.12c.6,0,1.12-.29,1.34.43.07.21.12.58-.14.6C571.77,326.22,571.53,325.71,571.22,325.12Z"/><path class="cls-8" d="M607.7,337a1.35,1.35,0,0,0-1.77-1,14.07,14.07,0,0,0-2.19.56,5.85,5.85,0,0,1-2.82.32c-4.25-.56-7-5-7.51-8.33,0-.36-.07-.79.44-.82,1.62-.09,3.07-.88,4.63-1.11a6.44,6.44,0,0,0,5.76-5.52c.44-2.7-1.29-5.37-3.65-5.54a9.65,9.65,0,0,0-8.62,4,10.73,10.73,0,0,0-1.93,5.32,7.28,7.28,0,0,0,0,3.82,14,14,0,0,0,4,8.22c3.86,3.9,8.2,4.14,12.86,2.05A1.49,1.49,0,0,0,607.7,337Zm-13.89-13.79a6.16,6.16,0,0,1,2.63-3.15c.83-.47,1.65-1,2.47-1.44a2,2,0,0,1,2.05.17c.55.28,0,.85,0,1.29-.16,2.1-1.54,3-3.39,3.46a15.5,15.5,0,0,1-2.91.61C593.56,324.21,593.54,323.81,593.81,323.19Z"/><path class="cls-8" d="M362.33,332.46c-.26,0-.32-.21-.23-.42s.11-.5.4-.48.28.26.27.46A.42.42,0,0,1,362.33,332.46Z"/><path class="cls-8" d="M387.56,338.18a.33.33,0,0,1,.39.33.45.45,0,0,1-.32.55c-.25.06-.34-.16-.39-.35A.41.41,0,0,1,387.56,338.18Z"/><path class="cls-8" d="M225.16,335.89c-.1-.32-.33-.69.2-.84a.33.33,0,0,1,.41.31c.08.49-.18.62-.62.53Z"/><path class="cls-8" d="M435.55,333.44c-.65.34-.69,1-1.34.83-.23-.08-.4-.38-.25-.58C434.28,333.28,434.75,333.29,435.55,333.44Z"/><path class="cls-8" d="M763.67,327.3a11.54,11.54,0,0,0-2.6-2.43c.69.12,1.4-.19,2.09.26s.7,1.22,1.6,1.28Z"/><path class="cls-8" d="M320.66,328.22c.19-.7,1.38-.12,1.2-1.36.56.56.5,1.13.93,1.37C322.08,329.18,321.37,328.43,320.66,328.22Z"/><path class="cls-8" d="M323,332c.41-.24.53-.88,1.11-.69a.49.49,0,0,1,.12.41A1.25,1.25,0,0,1,323,332Z"/></svg>