<svg id="svg" version="1.1" xmlns="http://www.w3.org/2000/svg" xmlns:xlink="http://www.w3.org/1999/xlink" preserveAspectRatio="none" width="400" height="300" viewBox="0, 0, 400,118.58760826115922"><g id="svgg"><path id="path0" d="M0.000 38.250 C 0.000 76.389,0.001 76.500,0.333 76.500 C 0.517 76.500,0.667 76.575,0.667 76.667 C 0.667 76.758,0.746 76.833,0.843 76.833 C 0.940 76.833,0.967 76.740,0.902 76.625 C 0.808 76.458,0.829 76.458,1.009 76.625 C 1.132 76.740,1.393 76.833,1.589 76.833 C 1.784 76.833,2.001 76.890,2.069 76.958 C 2.138 77.027,2.357 77.089,2.555 77.095 C 2.754 77.102,3.104 77.163,3.333 77.231 C 3.649 77.325,3.689 77.313,3.500 77.180 C 3.347 77.073,3.327 77.004,3.448 77.003 C 3.558 77.001,3.693 77.075,3.750 77.167 C 3.807 77.258,4.111 77.333,4.427 77.333 C 4.742 77.333,5.000 77.404,5.000 77.490 C 5.000 77.576,5.131 77.643,5.292 77.639 C 5.906 77.625,8.087 77.885,8.167 77.982 C 8.212 78.038,8.550 78.109,8.917 78.141 C 9.283 78.173,9.661 78.263,9.756 78.340 C 9.851 78.418,10.188 78.479,10.506 78.477 C 11.527 78.470,13.667 78.707,13.667 78.827 C 13.667 78.892,13.760 78.949,13.875 78.954 C 16.089 79.052,17.977 79.245,17.803 79.356 C 17.675 79.437,18.154 79.496,18.948 79.497 C 19.765 79.499,20.360 79.574,20.428 79.685 C 20.506 79.811,20.976 79.833,21.919 79.755 C 22.844 79.677,23.334 79.699,23.408 79.820 C 23.476 79.930,24.184 80.001,25.218 80.003 C 26.152 80.004,26.826 80.063,26.716 80.133 C 26.393 80.338,30.387 80.417,41.083 80.417 C 51.516 80.417,55.499 80.336,55.500 80.125 C 55.500 80.056,56.321 80.000,57.323 80.000 C 58.361 80.000,59.191 79.928,59.250 79.833 C 59.315 79.729,59.888 79.707,60.786 79.776 C 61.810 79.855,62.187 79.834,62.106 79.703 C 62.040 79.596,62.115 79.524,62.288 79.528 C 63.367 79.558,65.278 79.442,65.417 79.337 C 65.584 79.211,68.474 78.965,69.792 78.964 C 70.181 78.964,70.500 78.897,70.500 78.815 C 70.500 78.734,70.908 78.667,71.407 78.667 C 71.906 78.667,72.360 78.592,72.417 78.500 C 72.473 78.408,72.595 78.333,72.686 78.333 C 72.778 78.333,72.807 78.408,72.750 78.499 C 72.686 78.604,72.820 78.600,73.114 78.488 C 73.370 78.391,73.830 78.358,74.136 78.416 C 74.442 78.473,74.785 78.443,74.898 78.349 C 75.012 78.254,75.531 78.163,76.052 78.146 C 76.574 78.129,77.000 78.063,77.000 77.999 C 77.000 77.936,77.694 77.836,78.542 77.778 C 79.390 77.720,80.271 77.627,80.500 77.571 C 80.729 77.515,81.329 77.434,81.833 77.390 C 82.337 77.345,82.862 77.268,83.000 77.217 C 83.137 77.167,83.691 77.126,84.231 77.128 C 84.770 77.130,85.119 77.074,85.006 77.003 C 84.888 76.931,85.221 76.835,85.775 76.782 C 86.311 76.731,87.013 76.649,87.333 76.601 C 88.701 76.398,89.618 76.307,90.125 76.325 C 90.423 76.335,90.667 76.266,90.667 76.172 C 90.667 76.077,90.998 76.000,91.403 76.000 C 91.835 76.000,92.174 75.914,92.223 75.792 C 92.287 75.635,92.352 75.645,92.485 75.833 C 92.582 75.971,92.663 76.007,92.664 75.914 C 92.666 75.821,93.003 75.756,93.415 75.769 C 93.826 75.783,94.121 75.728,94.071 75.647 C 94.021 75.566,94.439 75.500,95.000 75.500 C 95.561 75.500,95.980 75.436,95.932 75.357 C 95.844 75.216,97.984 74.948,98.887 74.987 C 99.146 74.998,99.316 74.939,99.264 74.857 C 99.182 74.723,100.659 74.495,101.617 74.495 C 101.818 74.495,102.029 74.421,102.085 74.331 C 102.141 74.241,102.276 74.168,102.385 74.169 C 102.504 74.171,102.484 74.236,102.333 74.333 C 102.183 74.430,102.163 74.496,102.282 74.497 C 102.391 74.499,102.527 74.425,102.583 74.333 C 102.640 74.242,102.929 74.167,103.227 74.167 C 103.524 74.167,103.838 74.100,103.925 74.019 C 104.012 73.938,104.646 73.823,105.333 73.765 C 106.655 73.651,106.931 73.608,107.333 73.455 C 107.588 73.358,108.821 73.190,109.778 73.121 C 110.068 73.100,110.362 73.027,110.431 72.958 C 110.499 72.890,110.874 72.833,111.264 72.833 C 111.653 72.833,111.997 72.768,112.028 72.689 C 112.074 72.569,113.765 72.316,114.667 72.294 C 114.804 72.291,115.025 72.204,115.157 72.102 C 115.340 71.961,115.368 71.966,115.272 72.125 C 115.203 72.240,115.226 72.333,115.323 72.333 C 115.421 72.333,115.500 72.268,115.500 72.187 C 115.500 72.034,117.448 71.874,120.199 71.801 C 121.088 71.778,121.725 71.701,121.616 71.632 C 121.452 71.528,126.596 71.397,127.292 71.488 C 127.406 71.502,127.500 71.436,127.500 71.341 C 127.500 71.106,138.438 71.098,138.583 71.333 C 138.645 71.432,139.696 71.500,141.177 71.500 C 142.546 71.500,143.667 71.559,143.667 71.632 C 143.667 71.704,144.492 71.760,145.500 71.757 C 146.508 71.753,147.333 71.806,147.333 71.875 C 147.333 71.944,147.852 72.000,148.486 72.000 C 149.252 72.000,149.667 72.070,149.723 72.208 C 149.785 72.362,149.810 72.357,149.820 72.188 C 149.830 72.011,149.886 72.003,150.066 72.152 C 150.194 72.258,150.362 72.330,150.441 72.311 C 150.839 72.214,154.314 72.564,154.234 72.692 C 154.183 72.774,154.204 72.831,154.279 72.818 C 154.726 72.740,156.173 72.855,156.107 72.962 C 156.063 73.033,156.302 73.105,156.638 73.121 C 157.895 73.183,159.323 73.383,159.258 73.487 C 159.221 73.547,159.317 73.600,159.471 73.606 C 159.713 73.615,161.260 73.797,162.000 73.904 C 162.300 73.947,162.810 74.134,163.206 74.345 C 163.588 74.549,163.820 74.540,163.500 74.333 C 163.286 74.195,163.292 74.171,163.542 74.169 C 163.702 74.168,163.833 74.243,163.833 74.337 C 163.833 74.430,164.022 74.472,164.253 74.430 C 164.484 74.388,164.637 74.413,164.592 74.485 C 164.548 74.557,164.745 74.623,165.031 74.631 C 165.317 74.639,165.613 74.744,165.690 74.865 C 165.800 75.039,165.829 75.040,165.831 74.869 C 165.833 74.718,165.919 74.700,166.125 74.808 C 166.285 74.892,166.754 75.016,167.167 75.083 C 167.579 75.150,167.992 75.264,168.083 75.338 C 168.271 75.489,168.330 75.500,168.927 75.500 C 169.164 75.500,169.308 75.573,169.251 75.664 C 169.190 75.763,169.353 75.805,169.658 75.770 C 169.938 75.737,170.167 75.776,170.167 75.855 C 170.167 75.935,170.354 76.000,170.583 76.000 C 170.813 76.000,171.001 76.094,171.003 76.208 C 171.004 76.347,171.059 76.333,171.167 76.167 C 171.257 76.027,171.329 76.002,171.331 76.109 C 171.332 76.215,171.722 76.355,172.197 76.421 C 172.672 76.486,173.314 76.682,173.624 76.856 C 173.934 77.031,174.253 77.133,174.333 77.084 C 174.412 77.035,174.524 77.071,174.582 77.164 C 174.734 77.410,175.042 77.372,174.902 77.125 C 174.808 76.958,174.829 76.958,175.009 77.125 C 175.132 77.240,175.368 77.333,175.533 77.333 C 175.698 77.333,175.833 77.399,175.833 77.479 C 175.833 77.559,176.137 77.673,176.507 77.732 C 176.878 77.791,177.309 77.908,177.466 77.991 C 177.819 78.179,178.363 78.389,178.583 78.423 C 178.825 78.460,179.371 78.666,179.712 78.849 C 179.874 78.936,180.341 79.053,180.750 79.109 C 181.158 79.165,181.452 79.276,181.403 79.355 C 181.354 79.435,181.464 79.500,181.647 79.500 C 181.830 79.500,182.029 79.579,182.089 79.675 C 182.148 79.772,182.284 79.820,182.390 79.783 C 182.496 79.745,182.783 79.854,183.027 80.024 C 183.270 80.195,183.673 80.351,183.921 80.372 C 184.170 80.392,184.412 80.511,184.460 80.635 C 184.532 80.823,184.573 80.824,184.703 80.639 C 184.825 80.465,184.877 80.462,184.943 80.625 C 184.990 80.740,185.102 80.833,185.192 80.833 C 185.283 80.833,185.470 80.946,185.607 81.083 C 185.745 81.221,186.062 81.333,186.312 81.333 C 186.562 81.333,186.860 81.427,186.975 81.542 C 187.189 81.756,187.256 81.777,187.843 81.813 C 188.032 81.824,188.144 81.902,188.092 81.986 C 188.005 82.127,188.921 82.438,189.208 82.365 C 189.277 82.348,189.333 82.408,189.333 82.500 C 189.333 82.592,189.474 82.667,189.646 82.667 C 189.818 82.667,190.053 82.779,190.167 82.917 C 190.281 83.054,190.515 83.167,190.687 83.167 C 190.859 83.167,191.000 83.246,191.000 83.343 C 191.000 83.440,191.070 83.477,191.155 83.424 C 191.240 83.371,191.357 83.404,191.415 83.497 C 191.473 83.590,191.665 83.667,191.843 83.667 C 192.021 83.667,192.167 83.742,192.167 83.833 C 192.167 83.925,192.310 84.000,192.486 84.000 C 192.662 84.000,192.833 84.082,192.866 84.181 C 192.899 84.281,193.332 84.505,193.827 84.680 C 194.323 84.854,194.771 85.061,194.823 85.139 C 194.874 85.218,195.126 85.333,195.382 85.396 C 195.638 85.459,195.802 85.583,195.747 85.672 C 195.692 85.761,195.756 85.833,195.889 85.833 C 196.267 85.833,197.511 86.433,197.388 86.556 C 197.327 86.617,197.445 86.667,197.649 86.667 C 197.890 86.667,197.977 86.735,197.899 86.862 C 197.818 86.993,197.870 87.022,198.056 86.950 C 198.209 86.892,198.333 86.916,198.333 87.005 C 198.333 87.094,198.475 87.167,198.649 87.167 C 198.822 87.167,199.009 87.284,199.064 87.427 C 199.119 87.571,199.240 87.641,199.333 87.583 C 199.426 87.526,199.550 87.602,199.608 87.753 C 199.692 87.973,199.741 87.983,199.854 87.806 C 199.939 87.671,199.996 87.658,199.997 87.771 C 199.999 87.875,200.225 88.053,200.500 88.167 C 200.775 88.281,201.000 88.444,201.000 88.530 C 201.000 88.616,201.075 88.640,201.167 88.583 C 201.258 88.527,201.333 88.552,201.333 88.641 C 201.333 88.729,201.558 88.879,201.833 88.975 C 202.108 89.071,202.333 89.228,202.333 89.325 C 202.333 89.421,202.390 89.482,202.458 89.460 C 202.676 89.389,203.337 89.940,203.207 90.083 C 203.139 90.159,203.171 90.170,203.279 90.108 C 203.387 90.046,203.722 90.222,204.025 90.498 C 204.327 90.774,204.624 91.000,204.684 91.000 C 204.745 91.000,204.836 91.158,204.886 91.350 C 204.936 91.543,205.048 91.657,205.134 91.604 C 205.313 91.493,206.042 92.069,205.901 92.210 C 205.850 92.261,205.965 92.353,206.157 92.413 C 206.348 92.474,206.467 92.584,206.422 92.658 C 206.376 92.732,206.575 92.840,206.863 92.898 C 207.151 92.955,207.340 93.049,207.282 93.107 C 207.160 93.228,207.884 93.833,208.151 93.833 C 208.251 93.833,208.333 93.946,208.333 94.083 C 208.333 94.221,208.438 94.333,208.566 94.333 C 208.693 94.333,208.841 94.446,208.894 94.583 C 208.946 94.721,209.109 94.833,209.255 94.833 C 209.400 94.833,209.473 94.908,209.417 95.000 C 209.360 95.092,209.425 95.167,209.561 95.167 C 209.698 95.167,209.960 95.358,210.144 95.592 C 210.328 95.826,210.521 96.013,210.572 96.009 C 210.911 95.978,211.007 96.020,210.920 96.162 C 210.865 96.251,211.008 96.371,211.238 96.428 C 211.467 96.486,211.639 96.616,211.619 96.717 C 211.600 96.819,211.677 96.914,211.792 96.930 C 211.906 96.946,212.070 96.968,212.155 96.979 C 212.241 96.991,212.358 97.150,212.417 97.333 C 212.475 97.517,212.597 97.667,212.688 97.667 C 212.779 97.667,212.807 97.593,212.751 97.502 C 212.693 97.408,212.758 97.379,212.902 97.434 C 213.040 97.487,213.200 97.675,213.256 97.851 C 213.312 98.027,213.427 98.128,213.512 98.076 C 213.597 98.023,213.667 98.060,213.667 98.157 C 213.667 98.254,213.761 98.333,213.877 98.333 C 213.992 98.333,214.182 98.486,214.299 98.673 C 214.415 98.860,214.578 98.971,214.661 98.920 C 214.743 98.869,214.928 98.996,215.072 99.201 C 215.216 99.406,215.333 99.482,215.333 99.370 C 215.333 99.248,215.483 99.300,215.708 99.500 C 216.504 100.208,216.642 100.302,216.736 100.208 C 216.790 100.155,216.833 100.203,216.833 100.315 C 216.833 100.428,216.898 100.480,216.978 100.430 C 217.057 100.381,217.255 100.488,217.417 100.667 C 217.579 100.846,217.763 100.960,217.825 100.922 C 217.888 100.883,218.123 101.022,218.348 101.230 C 218.573 101.438,218.849 101.578,218.962 101.541 C 219.074 101.503,219.167 101.553,219.167 101.653 C 219.167 101.752,219.279 101.833,219.417 101.833 C 219.554 101.833,219.667 101.907,219.667 101.997 C 219.667 102.087,219.849 102.206,220.071 102.262 C 220.293 102.318,220.604 102.505,220.760 102.678 C 220.917 102.851,221.110 102.952,221.189 102.903 C 221.268 102.854,221.333 102.893,221.333 102.990 C 221.333 103.087,221.483 103.167,221.667 103.167 C 221.850 103.167,222.000 103.246,222.000 103.343 C 222.000 103.440,222.069 103.477,222.152 103.425 C 222.236 103.374,222.330 103.388,222.361 103.457 C 222.447 103.651,223.464 104.333,223.667 104.333 C 223.820 104.333,224.446 104.649,226.282 105.649 C 226.448 105.740,226.902 105.945,227.292 106.106 C 227.681 106.266,228.000 106.455,228.000 106.525 C 228.000 106.594,228.281 106.704,228.625 106.768 C 228.969 106.831,229.382 107.034,229.543 107.219 C 229.704 107.403,229.881 107.508,229.937 107.452 C 230.023 107.366,230.843 107.715,232.039 108.347 C 232.199 108.431,232.465 108.500,232.631 108.500 C 232.797 108.500,233.022 108.589,233.131 108.698 C 233.240 108.806,233.499 108.921,233.706 108.953 C 233.914 108.984,234.108 109.082,234.139 109.171 C 234.169 109.261,234.363 109.333,234.569 109.333 C 234.775 109.333,235.309 109.518,235.755 109.744 C 236.201 109.970,236.775 110.201,237.031 110.257 C 237.287 110.313,237.539 110.428,237.591 110.513 C 237.644 110.597,237.888 110.667,238.135 110.668 C 238.382 110.668,238.798 110.781,239.061 110.918 C 239.323 111.055,239.639 111.167,239.763 111.167 C 239.964 111.167,240.795 111.485,241.506 111.833 C 241.647 111.902,242.079 112.012,242.465 112.077 C 242.851 112.143,243.167 112.254,243.167 112.326 C 243.167 112.398,243.448 112.503,243.792 112.561 C 245.038 112.771,246.347 113.098,246.265 113.179 C 246.220 113.225,246.310 113.273,246.466 113.287 C 247.462 113.377,248.333 113.564,248.333 113.688 C 248.333 113.768,248.563 113.833,248.843 113.833 C 249.148 113.833,249.311 113.902,249.248 114.004 C 249.185 114.105,249.332 114.168,249.613 114.159 C 250.294 114.138,251.500 114.356,251.500 114.501 C 251.500 114.569,251.669 114.632,251.875 114.640 C 252.081 114.648,252.400 114.689,252.583 114.731 C 252.767 114.773,253.165 114.814,253.468 114.821 C 253.791 114.828,253.977 114.903,253.917 115.000 C 253.854 115.102,254.113 115.167,254.583 115.167 C 255.023 115.167,255.311 115.234,255.256 115.324 C 255.202 115.410,255.404 115.482,255.704 115.483 C 256.762 115.485,258.200 115.710,257.990 115.840 C 257.866 115.916,258.012 115.969,258.349 115.969 C 258.661 115.969,259.442 116.055,260.083 116.160 C 260.725 116.264,261.550 116.392,261.917 116.444 C 262.283 116.495,262.691 116.623,262.824 116.727 C 263.017 116.879,263.035 116.867,262.917 116.667 C 262.797 116.463,262.815 116.454,263.013 116.614 C 263.149 116.723,263.606 116.787,264.045 116.757 C 264.479 116.728,264.833 116.770,264.833 116.852 C 264.833 116.933,265.283 117.000,265.833 117.000 C 266.383 117.000,266.833 117.074,266.833 117.165 C 266.833 117.255,267.002 117.324,267.208 117.317 C 268.197 117.284,271.522 117.568,271.599 117.692 C 271.647 117.770,272.324 117.833,273.103 117.833 C 273.882 117.833,274.485 117.890,274.443 117.958 C 274.400 118.027,275.015 118.098,275.808 118.115 C 276.601 118.133,277.775 118.208,278.417 118.282 C 279.915 118.455,305.974 118.445,306.417 118.271 C 306.600 118.199,307.924 118.127,309.359 118.112 C 310.793 118.096,311.933 118.027,311.891 117.958 C 311.848 117.890,312.662 117.825,313.698 117.815 C 314.735 117.805,315.790 117.795,316.042 117.793 C 316.294 117.790,316.500 117.735,316.500 117.669 C 316.500 117.556,323.113 117.258,324.292 117.317 C 324.590 117.332,324.833 117.266,324.833 117.172 C 324.833 117.064,325.508 117.000,326.633 117.000 C 327.843 117.000,328.507 116.932,328.658 116.792 C 328.838 116.624,328.858 116.626,328.760 116.798 C 328.668 116.962,328.750 116.985,329.111 116.894 C 329.371 116.829,330.202 116.770,330.958 116.763 C 331.714 116.756,332.333 116.694,332.333 116.625 C 332.333 116.556,333.004 116.500,333.823 116.500 C 334.643 116.500,335.353 116.437,335.401 116.359 C 335.469 116.248,339.158 116.010,341.863 115.942 C 342.109 115.935,342.280 115.882,342.243 115.823 C 342.185 115.729,345.014 115.517,346.917 115.473 C 347.283 115.464,347.677 115.383,347.792 115.292 C 347.938 115.176,348.001 115.194,348.003 115.355 C 348.004 115.527,348.037 115.534,348.135 115.379 C 348.216 115.251,348.741 115.166,349.546 115.150 C 350.251 115.137,350.790 115.064,350.744 114.990 C 350.697 114.915,350.792 114.860,350.955 114.868 C 351.952 114.915,355.457 114.595,355.657 114.439 C 355.841 114.294,355.868 114.299,355.772 114.458 C 355.693 114.591,355.745 114.667,355.917 114.667 C 356.065 114.667,356.146 114.601,356.096 114.521 C 355.999 114.364,358.143 114.160,359.724 114.176 C 360.367 114.182,360.661 114.126,360.589 114.009 C 360.501 113.867,361.907 113.754,362.606 113.848 C 362.665 113.855,362.759 113.791,362.815 113.705 C 362.871 113.618,363.534 113.503,364.288 113.448 C 365.042 113.394,365.820 113.263,366.016 113.158 C 366.264 113.025,366.339 113.023,366.260 113.150 C 366.198 113.251,366.226 113.333,366.323 113.333 C 366.421 113.333,366.500 113.258,366.500 113.167 C 366.500 113.075,366.758 113.000,367.073 113.000 C 367.389 113.000,367.698 112.917,367.761 112.816 C 367.840 112.687,367.918 112.700,368.018 112.857 C 368.100 112.986,368.163 113.004,368.164 112.898 C 368.166 112.796,368.354 112.733,368.583 112.758 C 368.812 112.783,369.000 112.736,369.000 112.652 C 369.000 112.568,369.256 112.500,369.569 112.500 C 369.883 112.500,370.164 112.431,370.194 112.348 C 370.225 112.264,370.595 112.160,371.017 112.117 C 371.439 112.074,371.926 111.963,372.100 111.870 C 372.384 111.720,373.395 111.523,373.968 111.506 C 374.088 111.503,374.140 111.425,374.083 111.333 C 374.027 111.242,374.135 111.167,374.323 111.167 C 374.512 111.167,374.667 111.101,374.667 111.022 C 374.667 110.942,375.013 110.838,375.437 110.790 C 375.861 110.742,376.272 110.601,376.351 110.476 C 376.469 110.291,376.496 110.296,376.500 110.500 C 376.503 110.647,376.555 110.681,376.628 110.583 C 376.799 110.350,377.812 109.833,378.097 109.833 C 378.227 109.833,378.333 109.763,378.333 109.677 C 378.333 109.591,378.678 109.469,379.100 109.405 C 379.619 109.328,379.794 109.244,379.642 109.148 C 379.479 109.045,379.524 109.004,379.804 109.003 C 380.016 109.001,380.303 108.888,380.440 108.750 C 380.578 108.613,380.840 108.500,381.022 108.500 C 381.204 108.500,381.307 108.425,381.250 108.333 C 381.193 108.242,381.292 108.167,381.470 108.167 C 381.647 108.167,381.886 108.054,382.000 107.917 C 382.114 107.779,382.338 107.667,382.498 107.667 C 382.658 107.667,382.976 107.519,383.205 107.339 C 383.434 107.158,383.670 107.058,383.728 107.117 C 383.786 107.175,383.833 107.135,383.833 107.028 C 383.833 106.921,383.947 106.833,384.085 106.833 C 384.223 106.833,384.465 106.683,384.622 106.500 C 384.779 106.317,384.969 106.167,385.044 106.167 C 385.119 106.167,385.338 106.020,385.529 105.842 C 385.721 105.663,386.093 105.469,386.356 105.412 C 386.618 105.354,386.833 105.236,386.833 105.149 C 386.833 105.063,387.021 104.920,387.250 104.833 C 387.479 104.746,387.667 104.556,387.667 104.411 C 387.667 104.266,387.737 104.190,387.822 104.243 C 387.907 104.296,388.087 104.182,388.221 103.991 C 388.398 103.738,388.488 103.703,388.552 103.863 C 388.612 104.013,388.645 103.993,388.654 103.802 C 388.661 103.646,388.753 103.466,388.859 103.401 C 388.989 103.320,389.006 103.357,388.912 103.516 C 388.836 103.645,389.026 103.506,389.335 103.208 C 389.644 102.910,389.957 102.667,390.032 102.667 C 390.106 102.667,390.317 102.517,390.500 102.333 C 390.683 102.150,390.793 102.000,390.743 102.000 C 390.694 102.000,390.750 101.895,390.868 101.767 C 390.987 101.639,391.105 101.554,391.132 101.579 C 391.159 101.605,391.542 101.262,391.984 100.817 C 392.426 100.373,392.835 100.058,392.894 100.116 C 392.952 100.174,393.000 100.126,393.000 100.008 C 393.000 99.890,393.300 99.494,393.667 99.127 C 394.033 98.761,394.333 98.399,394.333 98.323 C 394.333 98.247,394.558 98.053,394.833 97.890 C 395.108 97.728,395.333 97.472,395.333 97.322 C 395.333 97.172,395.558 96.877,395.833 96.667 C 396.108 96.456,396.333 96.210,396.333 96.120 C 396.333 96.030,396.495 95.816,396.692 95.645 C 396.890 95.473,396.994 95.333,396.924 95.333 C 396.854 95.333,396.973 95.178,397.190 94.987 C 397.406 94.797,397.471 94.697,397.333 94.766 C 397.148 94.858,397.159 94.804,397.375 94.557 C 397.535 94.374,397.667 94.136,397.667 94.029 C 397.667 93.921,397.747 93.833,397.845 93.833 C 398.076 93.833,398.500 93.409,398.500 93.179 C 398.500 93.080,398.607 93.000,398.738 93.000 C 398.869 93.000,399.075 92.902,399.196 92.782 C 399.318 92.663,399.548 92.515,399.708 92.454 C 399.985 92.349,400.000 89.992,400.000 46.172 L 400.000 0.000 200.000 0.000 L 0.000 0.000 0.000 38.250 " stroke="none" fill="#34c4b4" fill-rule="evenodd"></path><path id="path1" d="M121.167 71.667 C 120.823 71.777,120.809 71.803,121.083 71.814 C 121.267 71.822,121.529 71.756,121.667 71.667 C 121.959 71.478,121.756 71.478,121.167 71.667 M0.000 76.667 C 0.000 76.758,0.150 76.833,0.333 76.833 C 0.517 76.833,0.667 76.758,0.667 76.667 C 0.667 76.575,0.517 76.500,0.333 76.500 C 0.150 76.500,0.000 76.575,0.000 76.667 M22.014 79.727 C 22.178 79.870,23.492 79.955,23.407 79.817 C 23.356 79.735,23.006 79.667,22.629 79.667 C 22.253 79.667,21.976 79.694,22.014 79.727 M59.272 79.799 C 59.227 79.871,59.447 79.900,59.762 79.864 C 60.076 79.827,60.333 79.768,60.333 79.732 C 60.333 79.606,59.352 79.668,59.272 79.799 M311.333 118.000 C 310.757 118.121,310.756 118.123,311.250 118.142 C 311.525 118.153,311.862 118.089,312.000 118.000 C 312.278 117.821,312.185 117.821,311.333 118.000 M309.542 118.115 C 309.702 118.157,309.965 118.157,310.125 118.115 C 310.285 118.073,310.154 118.039,309.833 118.039 C 309.512 118.039,309.381 118.073,309.542 118.115 " stroke="none" fill="#38c4b4" fill-rule="evenodd"></path><path id="path2" d="M121.167 71.667 C 120.823 71.777,120.809 71.803,121.083 71.814 C 121.267 71.822,121.529 71.756,121.667 71.667 C 121.959 71.478,121.756 71.478,121.167 71.667 M0.000 76.667 C 0.000 76.758,0.150 76.833,0.333 76.833 C 0.517 76.833,0.667 76.758,0.667 76.667 C 0.667 76.575,0.517 76.500,0.333 76.500 C 0.150 76.500,0.000 76.575,0.000 76.667 M22.014 79.727 C 22.178 79.870,23.492 79.955,23.407 79.817 C 23.356 79.735,23.006 79.667,22.629 79.667 C 22.253 79.667,21.976 79.694,22.014 79.727 M59.272 79.799 C 59.227 79.871,59.447 79.900,59.762 79.864 C 60.076 79.827,60.333 79.768,60.333 79.732 C 60.333 79.606,59.352 79.668,59.272 79.799 M311.333 118.000 C 310.757 118.121,310.756 118.123,311.250 118.142 C 311.525 118.153,311.862 118.089,312.000 118.000 C 312.278 117.821,312.185 117.821,311.333 118.000 M309.542 118.115 C 309.702 118.157,309.965 118.157,310.125 118.115 C 310.285 118.073,310.154 118.039,309.833 118.039 C 309.512 118.039,309.381 118.073,309.542 118.115 " stroke="none" fill="#38c4b4" fill-rule="evenodd"></path><path id="path3" d="M121.167 71.667 C 120.823 71.777,120.809 71.803,121.083 71.814 C 121.267 71.822,121.529 71.756,121.667 71.667 C 121.959 71.478,121.756 71.478,121.167 71.667 M0.000 76.667 C 0.000 76.758,0.150 76.833,0.333 76.833 C 0.517 76.833,0.667 76.758,0.667 76.667 C 0.667 76.575,0.517 76.500,0.333 76.500 C 0.150 76.500,0.000 76.575,0.000 76.667 M22.014 79.727 C 22.178 79.870,23.492 79.955,23.407 79.817 C 23.356 79.735,23.006 79.667,22.629 79.667 C 22.253 79.667,21.976 79.694,22.014 79.727 M59.272 79.799 C 59.227 79.871,59.447 79.900,59.762 79.864 C 60.076 79.827,60.333 79.768,60.333 79.732 C 60.333 79.606,59.352 79.668,59.272 79.799 M311.333 118.000 C 310.757 118.121,310.756 118.123,311.250 118.142 C 311.525 118.153,311.862 118.089,312.000 118.000 C 312.278 117.821,312.185 117.821,311.333 118.000 M309.542 118.115 C 309.702 118.157,309.965 118.157,310.125 118.115 C 310.285 118.073,310.154 118.039,309.833 118.039 C 309.512 118.039,309.381 118.073,309.542 118.115 " stroke="none" fill="#38c4b4" fill-rule="evenodd"></path><path id="path4" d="M121.167 71.667 C 120.823 71.777,120.809 71.803,121.083 71.814 C 121.267 71.822,121.529 71.756,121.667 71.667 C 121.959 71.478,121.756 71.478,121.167 71.667 M0.000 76.667 C 0.000 76.758,0.150 76.833,0.333 76.833 C 0.517 76.833,0.667 76.758,0.667 76.667 C 0.667 76.575,0.517 76.500,0.333 76.500 C 0.150 76.500,0.000 76.575,0.000 76.667 M22.014 79.727 C 22.178 79.870,23.492 79.955,23.407 79.817 C 23.356 79.735,23.006 79.667,22.629 79.667 C 22.253 79.667,21.976 79.694,22.014 79.727 M59.272 79.799 C 59.227 79.871,59.447 79.900,59.762 79.864 C 60.076 79.827,60.333 79.768,60.333 79.732 C 60.333 79.606,59.352 79.668,59.272 79.799 M311.333 118.000 C 310.757 118.121,310.756 118.123,311.250 118.142 C 311.525 118.153,311.862 118.089,312.000 118.000 C 312.278 117.821,312.185 117.821,311.333 118.000 M309.542 118.115 C 309.702 118.157,309.965 118.157,310.125 118.115 C 310.285 118.073,310.154 118.039,309.833 118.039 C 309.512 118.039,309.381 118.073,309.542 118.115 " stroke="none" fill="#38c4b4" fill-rule="evenodd"></path></g></svg>