<svg id="Capa_1" data-name="Capa 1" xmlns="http://www.w3.org/2000/svg" viewBox="0 0 238.4 277.1"><defs><style>.cls-1{fill:#3e5e72;}</style></defs><path class="cls-1" d="M80.7,17.36c19.4,0,38.81.07,58.21-.07,3.49,0,5.08.55,5.62,4.56,2.43,18.07,5.45,36.05,12.56,53,6.19,14.78,14.89,28,27.49,37.84,17.63,13.79,21.62,32.64,14.25,53.94-8.86,25.58-25.89,45.26-46.34,62.21-17.41,14.44-36.46,26-59.15,29.93C76.82,261.69,61.66,259,49.59,246c-5.5-5.92-7.72-13-8.17-20.83-.89-15.59.64-31.18.11-46.77-.58-17.25-3.94-33.59-15.7-47.11a2,2,0,0,0-.32-.38c-8.68-5.81-9.29-14.27-9.12-23.85.51-27.87.29-55.75.08-83.63,0-4.68,1.09-6.3,6-6.23C41.89,17.52,61.29,17.36,80.7,17.36Z"/></svg>