<?xml version="1.0" encoding="UTF-8"?><svg xmlns="http://www.w3.org/2000/svg" xmlns:xlink="http://www.w3.org/1999/xlink" width="375" zoomAndPan="magnify" viewBox="0 0 375 374.999991" height="374.999991" preserveAspectRatio="xMidYMid meet" version="1.0"><defs><filter x="0%" y="0%" width="100%" xmlns:xlink="http://www.w3.org/1999/xlink" xlink:type="simple" xlink:actuate="onLoad" height="100%" id="filter-remove-color" xlink:show="other"><feColorMatrix values="0 0 0 0 1 0 0 0 0 1 0 0 0 0 1 0 0 0 1 0" color-interpolation-filters="sRGB"/></filter><mask id="mask-0"><g filter="url(#filter-remove-color)"><rect x="-37.5" width="450" fill="rgb(0%, 0%, 0%)" y="-37.499999" height="449.999989" fill-opacity="0.1137"/></g></mask><clipPath id="clip-0"><path d="M 0 0 L 8 0 L 8 375 L 0 375 Z M 0 0 " clip-rule="nonzero"/></clipPath><clipPath id="clip-1"><path d="M 75 0 L 79 0 L 79 375 L 75 375 Z M 75 0 " clip-rule="nonzero"/></clipPath><clipPath id="clip-2"><path d="M 148 0 L 153 0 L 153 375 L 148 375 Z M 148 0 " clip-rule="nonzero"/></clipPath><clipPath id="clip-3"><path d="M 222 0 L 227 0 L 227 375 L 222 375 Z M 222 0 " clip-rule="nonzero"/></clipPath><clipPath id="clip-4"><path d="M 296 0 L 300 0 L 300 375 L 296 375 Z M 296 0 " clip-rule="nonzero"/></clipPath><clipPath id="clip-5"><path d="M 367 0 L 375 0 L 375 375 L 367 375 Z M 367 0 " clip-rule="nonzero"/></clipPath><clipPath id="clip-6"><path d="M 0 0 L 375 0 L 375 8 L 0 8 Z M 0 0 " clip-rule="nonzero"/></clipPath><clipPath id="clip-7"><path d="M 0 75 L 375 75 L 375 80 L 0 80 Z M 0 75 " clip-rule="nonzero"/></clipPath><clipPath id="clip-8"><path d="M 0 149 L 375 149 L 375 154 L 0 154 Z M 0 149 " clip-rule="nonzero"/></clipPath><clipPath id="clip-9"><path d="M 0 223 L 375 223 L 375 227 L 0 227 Z M 0 223 " clip-rule="nonzero"/></clipPath><clipPath id="clip-10"><path d="M 0 296 L 375 296 L 375 301 L 0 301 Z M 0 296 " clip-rule="nonzero"/></clipPath><clipPath id="clip-11"><path d="M 0 368 L 375 368 L 375 375 L 0 375 Z M 0 368 " clip-rule="nonzero"/></clipPath><clipPath id="clip-12"><rect x="0" width="375" y="0" height="375"/></clipPath></defs><g mask="url(#mask-0)"><g transform="matrix(1, 0, 0, 1, 0, 0)"><g id="source-5" clip-path="url(#clip-12)"><g clip-path="url(#clip-0)"><path fill="rgb(66.268921%, 64.709473%, 77.249146%)" d="M 7.199219 1866.269531 L -0.160156 1866.269531 L -0.160156 -639.347656 L 7.199219 -639.347656 L 7.199219 1866.269531 " fill-opacity="1" fill-rule="nonzero"/></g><g clip-path="url(#clip-1)"><path fill="rgb(66.268921%, 64.709473%, 77.249146%)" d="M 78.949219 1866.269531 L 75.269531 1866.269531 L 75.269531 -639.347656 L 78.949219 -639.347656 L 78.949219 1866.269531 " fill-opacity="1" fill-rule="nonzero"/></g><g clip-path="url(#clip-2)"><path fill="rgb(66.268921%, 64.709473%, 77.249146%)" d="M 152.539062 1866.269531 L 148.859375 1866.269531 L 148.859375 -639.347656 L 152.539062 -639.347656 L 152.539062 1866.269531 " fill-opacity="1" fill-rule="nonzero"/></g><g clip-path="url(#clip-3)"><path fill="rgb(66.268921%, 64.709473%, 77.249146%)" d="M 226.128906 1866.269531 L 222.449219 1866.269531 L 222.449219 -639.347656 L 226.128906 -639.347656 L 226.128906 1866.269531 " fill-opacity="1" fill-rule="nonzero"/></g><g clip-path="url(#clip-4)"><path fill="rgb(66.268921%, 64.709473%, 77.249146%)" d="M 299.722656 1866.269531 L 296.042969 1866.269531 L 296.042969 -639.347656 L 299.722656 -639.347656 L 299.722656 1866.269531 " fill-opacity="1" fill-rule="nonzero"/></g><g clip-path="url(#clip-5)"><path fill="rgb(66.268921%, 64.709473%, 77.249146%)" d="M 375.152344 1866.269531 L 367.792969 1866.269531 L 367.792969 -639.347656 L 375.152344 -639.347656 L 375.152344 1866.269531 " fill-opacity="1" fill-rule="nonzero"/></g><g clip-path="url(#clip-6)"><path fill="rgb(66.268921%, 64.709473%, 77.249146%)" d="M 1432.953125 7.859375 L -1072.679688 7.859375 L -1072.679688 0.5 L 1432.953125 0.5 L 1432.953125 7.859375 " fill-opacity="1" fill-rule="nonzero"/></g><g clip-path="url(#clip-7)"><path fill="rgb(66.268921%, 64.709473%, 77.249146%)" d="M 1432.953125 79.609375 L -1072.679688 79.609375 L -1072.679688 75.929688 L 1432.953125 75.929688 L 1432.953125 79.609375 " fill-opacity="1" fill-rule="nonzero"/></g><g clip-path="url(#clip-8)"><path fill="rgb(66.268921%, 64.709473%, 77.249146%)" d="M 1432.953125 153.199219 L -1072.679688 153.199219 L -1072.679688 149.519531 L 1432.953125 149.519531 L 1432.953125 153.199219 " fill-opacity="1" fill-rule="nonzero"/></g><g clip-path="url(#clip-9)"><path fill="rgb(66.268921%, 64.709473%, 77.249146%)" d="M 1432.953125 226.789062 L -1072.679688 226.789062 L -1072.679688 223.109375 L 1432.953125 223.109375 L 1432.953125 226.789062 " fill-opacity="1" fill-rule="nonzero"/></g><g clip-path="url(#clip-10)"><path fill="rgb(66.268921%, 64.709473%, 77.249146%)" d="M 1432.953125 300.378906 L -1072.679688 300.378906 L -1072.679688 296.699219 L 1432.953125 296.699219 L 1432.953125 300.378906 " fill-opacity="1" fill-rule="nonzero"/></g><g clip-path="url(#clip-11)"><path fill="rgb(66.268921%, 64.709473%, 77.249146%)" d="M 1432.953125 375.808594 L -1072.679688 375.808594 L -1072.679688 368.449219 L 1432.953125 368.449219 L 1432.953125 375.808594 " fill-opacity="1" fill-rule="nonzero"/></g></g></g></g></svg>