<svg id="Capa_1" data-name="Capa 1" xmlns="http://www.w3.org/2000/svg" xmlns:xlink="http://www.w3.org/1999/xlink" viewBox="0 0 235.13 237.73" preserveAspectRatio="none"><defs><style>.cls-1{fill:none;}.cls-2{clip-path:url(#clip-path);}.cls-3{fill:#a9a5c5;opacity:0.2;}.cls-4{clip-path:url(#clip-path-2);}.cls-5{clip-path:url(#clip-path-3);}</style><clipPath id="clip-path"><rect class="cls-1" width="235.13" height="237.73"/></clipPath><clipPath id="clip-path-2"><rect class="cls-1" x="-418.24" y="-163.72" width="235.13" height="237.73"/></clipPath><clipPath id="clip-path-3"><rect class="cls-1" x="-418.24" y="74.01" width="235.13" height="237.73"/></clipPath></defs><g class="cls-2"><polyline class="cls-3" points="1.7 633.55 0 633.55 0 -296.54 1.7 -296.54 1.7 633.55"/><polyline class="cls-3" points="-470.72 49.64 -470.72 48.47 551.74 48.47 551.74 49.64 -470.72 49.64"/><polyline class="cls-3" points="-469.23 96.63 -469.23 95.45 553.22 95.45 553.22 96.63 -469.23 96.63"/><polyline class="cls-3" points="-471.46 143.19 -471.46 142.01 551 142.01 551 143.19 -471.46 143.19"/><polyline class="cls-3" points="-470.49 190.18 -470.49 189 553.22 189 553.22 190.18 -470.49 190.18"/><polyline class="cls-3" points="188.21 633.55 187.03 633.55 187.03 -296.54 188.21 -296.54 188.21 633.55"/><polyline class="cls-3" points="141.81 633.55 140.63 633.55 140.63 -296.54 141.81 -296.54 141.81 633.55"/><polyline class="cls-3" points="94.82 633.55 93.64 633.55 93.64 -296.54 94.82 -296.54 94.82 633.55"/><polyline class="cls-3" points="48.42 633.55 47.24 633.55 47.24 -296.54 48.42 -296.54 48.42 633.55"/><polyline class="cls-3" points="235.13 528.2 233.44 528.2 233.44 -401.89 235.13 -401.89 235.13 528.2"/><polyline class="cls-3" points="-370.23 1.48 -370.23 -0.22 559.87 -0.22 559.87 1.48 -370.23 1.48"/><polyline class="cls-3" points="-394.61 237.93 -394.61 236.24 535.49 236.24 535.49 237.93 -394.61 237.93"/></g><g class="cls-4"><polyline class="cls-3" points="-888.73 26.46 -888.73 25.28 134.98 25.28 134.98 26.46 -888.73 26.46"/><polyline class="cls-3" points="-812.84 74.21 -812.84 72.52 117.25 72.52 117.25 74.21 -812.84 74.21"/></g><g class="cls-5"><polyline class="cls-3" points="-888.96 123.65 -888.96 122.48 133.5 122.48 133.5 123.65 -888.96 123.65"/><polyline class="cls-3" points="-887.47 170.64 -887.47 169.46 134.98 169.46 134.98 170.64 -887.47 170.64"/><polyline class="cls-3" points="-889.7 217.2 -889.7 216.03 132.76 216.03 132.76 217.2 -889.7 217.2"/><polyline class="cls-3" points="-788.46 75.49 -788.46 73.79 141.63 73.79 141.63 75.49 -788.46 75.49"/></g></svg>