<svg id="Capa_1" data-name="Capa 1" xmlns="http://www.w3.org/2000/svg" viewBox="0 0 88.87 91.93"><defs><style>.cls-1{fill:#ededeb;}</style></defs><path class="cls-1" d="M51.75,67.21l13.3-11.73c1.49-1.32,2.91-2.75,4.51-3.93,3.36-2.49,7.33-4.67,10.6-.75s-.28,6.52-3.08,9c-8.18,7.31-16.18,14.83-24.46,22-7,6.07-8.9,5.89-16.08-.36Q24.89,71.35,13.27,61.16c-1.25-1.1-2.36-2.34-3.53-3.53-1.8-1.81-2.64-3.93-1.37-6.31,1.59-3,4.41-2.49,7.05-2.12,2.46.35,3.88,2.4,5.75,3.73C27,57.1,31.23,63.4,39.51,67.21V47.7c0-8.67-.13-17.33.05-26,.09-4-1.56-9.34,5.12-10,4.13-.38,5.51,2,5.56,9.54.07,12,0,24,0,36C50.31,60.16,49.63,63.18,51.75,67.21Z"/></svg>