<?xml version="1.0" encoding="UTF-8"?><svg xmlns="http://www.w3.org/2000/svg" xmlns:xlink="http://www.w3.org/1999/xlink" width="100%" zoomAndPan="magnify" viewBox="0 0 1440 809.999993" height="500" preserveAspectRatio="none" version="1.0"><defs><clipPath id="clip-0"><path d="M 0 308.75 L 1440 308.75 L 1440 809 L 0 809 Z M 0 308.75 " clip-rule="nonzero"/></clipPath></defs><g clip-path="url(#clip-0)"><path fill="rgb(94.119263%, 56.469727%, 42.349243%)" d="M 1439.601562 450.972656 C 1439.601562 568.984375 1439.632812 686.964844 1439.699219 804.910156 C 1439.699219 808.328125 1439.03125 809 1435.613281 809 C 958.539062 808.898438 481.460938 808.898438 4.386719 809 C 0.96875 809 0.300781 808.328125 0.300781 804.910156 C 0.414062 689.269531 0.445312 573.625 0.398438 457.976562 C 2.929688 458.675781 4.886719 457.066406 6.976562 456.214844 C 26.96875 448.113281 46.960938 439.734375 67.011719 431.832031 C 112.800781 413.832031 159.253906 397.628906 205.953125 382.277344 C 253.222656 366.753906 300.914062 352.613281 349.503906 341.902344 C 441.035156 321.75 533.71875 311.582031 627.289062 309.25 C 674.75 308.058594 722.179688 309.03125 769.589844 311.75 C 817.828125 314.503906 865.882812 318.996094 913.75 325.230469 C 968.726562 332.292969 1023.375 341.574219 1077.679688 352.613281 C 1129.414062 363.117188 1180.78125 375.117188 1231.789062 388.617188 C 1294.527344 405.246094 1356.671875 423.890625 1418.21875 444.554688 C 1425.285156 446.914062 1432.0625 450.265625 1439.601562 450.972656 Z M 1439.601562 450.972656 " fill-opacity="1" fill-rule="nonzero"/></g></svg>