<svg id="Capa_1" data-name="Capa 1" xmlns="http://www.w3.org/2000/svg" xmlns:xlink="http://www.w3.org/1999/xlink" viewBox="0 0 1939.25 748.82" width="100px" height="50px" zoomAndPan="magnify" preserveAspectRatio="none">
    <defs><style>.cls-1{fill:none;}.cls-2{clip-path:url(#clip-path);}.cls-3{fill:#f0906c;}</style>
        <clipPath id="clip-path" transform="translate(-0.41 -30.12)">
            <rect class="cls-1" y="30.12" width="1940.06" height="748.82"/>
        </clipPath>
    </defs>
    <g class="cls-2"><path class="cls-3" d="M1939.53,243q0,265,.13,529.81c0,5.11-.9,6.12-5.51,6.12q-964.11-.23-1928.24,0c-4.6,0-5.5-1-5.5-6.12Q.64,513.17.54,253.5c3.41,1.05,6-1.36,8.86-2.64,26.93-12.13,53.87-24.67,80.88-36.5,61.69-26.94,124.28-51.19,187.19-74.17C341.16,117,405.41,95.78,470.87,79.75,594.19,49.58,719.06,34.36,845.13,30.87c63.94-1.78,127.84-.33,191.71,3.74q97.48,6.2,194.22,20.18c74.07,10.58,147.7,24.47,220.86,41q104.55,23.6,207.63,53.9,126.78,37.33,251.17,83.73C1920.24,236.94,1929.37,242,1939.53,243Z" transform="translate(-0.41 -30.12)"/></g>
</svg>