<?xml version="1.0" encoding="UTF-8"?><svg id="a" xmlns="http://www.w3.org/2000/svg" viewBox="0 0 123.45 154.63"><defs><style>.b{fill:#edcbbf;}.c{fill:#747474;}.d{fill:#a9a5c5;}.e{fill:#3e5e72;}.f{fill:#508ec1;}</style></defs><polyline class="e" points="38.32 28.28 43.94 25.41 54.2 22.88 61.56 22.03 69.51 22.28 75.83 22.67 79.7 23.83 81.45 26.8 83.81 31.08 84.05 32.48 82.45 34.12 66.55 33.12 49.53 34.1 44.35 33.79 37.64 32.77 37.01 28.91"/><polygon class="b" points="42.98 41.79 42.09 46.92 41.65 49.69 42.65 54.02 44.67 57.46 44.93 58.7 45.93 58.58 47.06 59.53 48.49 60.22 50.12 61.17 51.41 61.07 52.41 61.02 54.11 62.23 55.02 63.62 56.59 60.51 57.76 58.27 59.32 60.61 62.4 61.44 66.4 61.57 69.34 60.33 72.23 60.25 73.5 60.63 76.14 59.52 77.28 57.19 78.21 55.72 79.24 53.8 80.96 52.38 81.24 48.75 80.96 41.87 79.67 40.01 71.39 41.69 60.38 42.01 46.6 41.25 42.98 41.79"/><path class="f" d="M9.96,105.83s-.2-5.85,.53-7.61c.59-1.41,4-4.57,4-4.57,0,0,2.43-2,3.3-2.53,2.43-1.59,10.18-5.66,10.18-5.66l7-5.78c-.01,1.31,.47,2.58,1.36,3.55,1.33,1.51,4.34,2.87,4.43,3.56,.33,2.31,1.9,1,3.61,3.33,1,1.28,0,4.89,.55,6.37,.73,1.77,3.59,4.34,5.59,5.24,.62,.28,3.45,2.66,4.11,2.48,1.63-.45,3.56,4.27,5,3.41,1-.59,3.61-1.08,4.7-.61,2.32,1,5.91,8.22,5.91,8.22l2.53,7.77c-8.44,.46-20,.23-31-3-1.3-.39-8.3-4.48-9.6-4.86-4.64-1.38-8.3-4.59-12.94-6-4.05-1.14-5.23-2.14-9.26-3.31Z"/><path class="f" d="M88.19,116.92c-4,2.52-15.43,6.1-15.43,6.1,0,0-2.38-5.23-3.15-6.62-1.27-2.33-4.17-5.91-4.17-8.55,2.67-.03,5.35-.2,8-.53,.83-.18,3.14-2.72,3.14-2.72,0,0,2.82,.87,3.54,.26,1.82-1.55,5.09-8.1,5.09-8.1,0,0,2.09-4.76,4.66-4.37,.82,.13-.63-5.6,0-6.15s-1.43-5.32-1.43-6.11c.04-1.62-.04-3.23-.22-4.84,.45-.67,.41-1.56-.11-2.18h0c.64,.6,1.33,1.13,2.07,1.6,1.61,.43,3.26,.72,4.92,.85l4.47,1.62,4.3,1.28c1.39,.97,2.72,2.02,4,3.13,.95,.9,1.72,1.95,2.3,3.12,.91,3.15,.15,12,.15,12-.8,.19-1.54,.56-2.17,1.09-1.14,1-4.45,4.13-5.56,5.12"/><path class="d" d="M37.61,28.73c-1.19,.59-.72-5.25-.72-5.25l1.21-10,2.36-4.5,5.15-4.21,4.43-2.28,5.83-.87,5.85,.58,5.7,.44,6.22,3.58,4.23,4.36,.35,3.12,2.24,8.3v2.64l-10.9-1.91-12-.37s-6.69-.19-19.95,6.37Z"/><path class="d" d="M22.98,32.1v6.46l3.41,4.44,2.12,.91,3,.67h0c.95-.07,6.82-3.59,6.82-3.59l12.89-.25,12.49,.88,5.34,.57,9.38-2.3,7.56-.06,5.05-2.17,2.72-1.44,1.24-4.22-.64-3.64-.19-2.23-10.3,2.64-1.22,4.43-33.55,1.35-12.77-2.55-13.35,.1Z"/><path class="c" d="M83.14,40.5c.16,.33,.46,.64,.47,1,.11,.76,.5,1.44,1.1,1.92,.68,.75,1.63,.6,2.5,.65,.47-.04,.95-.04,1.42,0l-3.05,.4c.22,1.01,1.23,1.65,2.24,1.43,.08-.02,.16-.04,.24-.07,.25-.07,.59,.21,.89,.46h-2.08l-.34-.29c-.38-.28-.72-.62-1-1-.49-.84-1.49-.77-2.12-1.34-.41-.3-.86-.57-1.32-.79v2.49l-.43-.75c.11,1.53,.22,3,.34,4.66l.41-.72c-.32,1.18-.06,2.44,.71,3.39h0l-.91-.64c-.37,.94-1.42,1.61-1.38,2.86l-.72-.8c.5-.58,.62-1.39,.32-2.09q-.14-.28-1.12-.19c.35-.26,.69-.55,1-.86,.4-.47,.41-.9-.32-1.07l.35-.56-.14-.16-1.35,1-.11-.14,1.12-1.11-.21-.18,.75,.11v-.12c-.07-.05-.15-.1-.23-.14,.08-.36,.12-.72,.12-1.09,0-.58-.15-1.16-.24-1.76l-.59,.15,.66-1.35,.21,1.63h.28c-.08-.91-.16-1.83-.25-2.94l-.38,.85-.33,.44-.29-.54-.65,.55-.11-.08,.83-1.59-.65,.16c0-.13,.08-.26,.19-.58l-1.38,1-.12-.08,.65-.91c-.15,0-.37-.12-.43-.06-.49,.48-.94,1-1.41,1.5,.53,.45,1,.62,1.43,0h.21l-1,1.33h0l-.89,.05,1.11,.72s0,.09-.07,.13c-.34-.15-.67-.33-1-.45s-.74-.2-1.32-.35c.52,.33,1.01,.7,1.46,1.12,.33,.39,.55,.85,.66,1.35-1-.44-1.2-1.74-2.41-1.76h0l-1.09-.88c1-.27,2.21,.74,3-.61l-.94,.29,.56-.73h-.52c.11-.29,.19-.54,.28-.78l-.88-.05,1.5-1.47c-.92,.05-1.83,.21-2.71,.47l-1.46,.16h-.76l-.46,.57h0c.07-.52-.25-.51-.61-.43s-.87,.25-1.31,.35-.86,.13-1.29,.2c-.31,0-.61-.05-.91-.12-.33-.06-.66-.1-1-.11-1.07,0-2.15-.07-3.22,0-.31,0-.58,.17-.94,0-.4-.22-.88-.27-1.32-.15-.52,.3-1,.66-1.43,1.07,.08,.1,.17,.18,.28,.25,.45,.22,.91,.41,1.42,.63l-.44,.31,.11,.16c.35-.25,.7-.5,1.12-.78-.06,.17-.11,.34-.14,.52,.02,.19,.05,.38,.11,.57-.87-.33-1.14-.21-1.41,.52-.06,.16-.14,.32-.22,.47-.08-.05-.17-.08-.26-.11-.13,0-.38,0-.39-.06-.05-.17-.05-.34,0-.51,.09-.19,.11-.54,.49-.37,0-.16,.15-.38,.08-.47-.12-.13-.26-.23-.42-.31-.48,0-.6,.83-1.13,.35l.64-.4-1.13-.62-.68,.25c0-.08,.15-.16,.15-.24,0-.2-.02-.4-.06-.6l-.85,.14,.14,.54-.31,.36,1.22,.52-.3,.65c-.58-.64-1.06-.73-1.45-.21l2.38,1c0-.06,0-.12,.08-.19l-1-.59,2.06,.87-.38,.79-.25-.27-.22,.08,.27,1.12,.68-.92v.48c.19,.07,.39,.07,.58,0,.55-.24,.76-.12,.73,.48-.03,.19-.07,.38-.14,.56l-.77,.38c0-.41,.08-.69,.13-1.17-.39,.39-.78,.62-.91,1-.22,.61-.74,.68-1.2,.89-.18,.07-.33,.19-.43,.35-.4,.72-.38,.71-1.26,.63-.12,0-.24,.37-.4,.4-.69,.16-1.39,.27-2.09,.39v-.21l1.86-.15,.08-.32c-2.19,.07-4.05-.51-5.07-2.37l.84-.51v-.2l1.63-1.15c-.54,.13-1.29-.44-1.55,.63-.14-.62-.24-1.1-.34-1.57l1.16-.62-.55,.7c1.3,.77,2.18,0,3-.89-.41-.14-.84-.24-1.27-.3-.35,.04-.68,.14-1,.29l.27-.37-2.85-.19v.21l2,.34v.12l-2.19,.1,1.06,.77c-.89-.19-1.61-.86-1.86-1.74l-.5,.32c.27-.4,.44-.77-.22-1l-.46,.58c-.09-.26-.22-.5-.38-.72-.15-.13-.54,.06-.57-.34l-1,.6,.54-.72c-.63-.17-1.08-.48-1.71,.3-.71,1.06-1.2,2.25-1.43,3.5-.11,.66-.14,1.33-.09,2,.01,.25-.04,.51-.14,.74-.48,1.1-.4,2.37,.23,3.4,0-.55,0-1,.06-1.38h.1v1.41l1.27,.34v.1l-1.38-.07c.08,.92-.41,2,1,2.5v-.62s.08,0,.05,0l.81,1,.33-.62c.17,1,.33,1.9,.44,2.76,0,.34-.02,.67-.08,1h0c-.12,.65-.25,1.29-.38,2v-1.81h-.13c-.22,.37-.44,.74-.67,1.11h.1c.13-1,.28-2,.37-2.94,0-.57,0-.59-.63-.82h-.06c.1-.75-.63-.87-1-1.25-.52-.54-.41-1.22-.56-1.84,0-.11,0-.24-.07-.55l-.57,.54-.58-2.08,.2-.07,.24,.38c.11-.78,.21-1.41,.3-2h-.27l-.09,.56h-.06c-.06-1-.13-2.08-.17-3.13,.03-.21,.09-.41,.17-.61,.06-.3,.11-.61,.16-.92l-.28-.13-.15,.5h-.1c.06-.41,.13-.82,.22-1.42l-.82,.19,.23-.87,.66,.63v-1.76h.27c-.08,.44-.1,.89-.07,1.33,.14,.45,.33,.89,.57,1.3,.67-.32,.26-1.12,.57-1.65l-.45,.24-.15-.09c.25-.55,.49-1.11,.71-1.61h-2.11v1.54h-.19l.1-1.07h-.1l-.72,1.74h-.09c.1-.45,.2-.89,.31-1.35-.85-.35-.51,.38-.64,.71l-.26-.43c-.06-.11-.13-.22-.2-.33,.08-.25,.15-.49,.22-.73l1.71-1c-.6-.04-1.21-.04-1.81,0-.53,0-.46,.3-.39,.63l-.44-.6c-.67,.24-1.38,.45-2.05,.76-.34,.15-.57,.52-.9,.73-.17,.11-.22,.64-.64,.23-.08-.07-.54,.11-.71,.29-.81,.74-1.18,1.83-1,2.91,.08,.66,.12,1.33,.12,2-.32-1-.71-1.95-.22-2.86-.35,.15-.71,.24-1.09,.27-1.09-.06-2.18-.21-3.24-.46-.95-.28-1.75-.92-2.25-1.77-.44-.62-.92-1.21-1.42-1.78-.81-.77-1.48-1.68-2-2.67-.49-1.72-.82-3.47-1-5.25-.09-.59,.27-1,.93-1.21,1.51-.45,3.06-.71,4.63-.78,2.24-.11,4.49,.05,6.7,.48,.92,.13,1.87,.1,3,.16-.85-.76,0-1.93-1.05-2.6,.93-.2,.76-.9,.74-1.51,0-1.46-.15-2.92-.12-4.37,0-1.75,.11-3.5,.3-5.24,.19-1.62,.57-3.21,.91-4.81,.13-.32,.32-.61,.54-.87,0-.09-.17-.39-.08-.55,.59-1,.83-2.27,1.9-3.08s2-2,3.08-2.88c.64-.51,1.34-.96,2.07-1.33,1.43-.84,2.91-1.61,4.43-2.28,1.01-.31,2.05-.5,3.11-.56,.89-.12,1.79-.16,2.68-.26,1.41-.07,2.82-.04,4.23,.1,1.15,.05,2.3,.22,3.44,.17,2.1,.01,4.15,.62,5.92,1.75,1.43,.78,2.71,1.87,4.18,2.58,2,1,2.88,2.88,4.26,4.36,.83,.9,.88,2.16,1.11,3.32,.09,.48,.26,1,.35,1.44,.39,2.21,.84,4.41,1.14,6.63,.15,1.82,.6,3.6,1.33,5.28,.24,.49,.51,.95,.72,1.33,.25,.08,.5,.14,.76,.19,.2,.05,.4,.05,.6,0,1.36-.45,2.7-.94,4.07-1.39,.51-.17,1.07-.22,1.58-.38,.29-.14,.58-.29,.85-.46,1.21-.46,2.52-.6,3.8-.42,.29,0,.58,.45,.84,.71,1,.92,.15,2,.25,3,.07,.98,.03,1.97-.13,2.94-.09,1.27-.58,2.47-1.39,3.45-.15,.19-.29,.38-.42,.59-.23,.46-.63,.82-1.12,1-1.56,.47-3.06,1.1-4.61,1.58-.68,.14-1.37,.24-2.06,.29-.26,.07-.5,.18-.73,.31-.1,.07-.21,.12-.32,.15-1,.07-2,.1-3,.19-.59,0-.5,.56-.35,.86,.22,.45,.53,.85,.9,1.18,.48,.4,1,.77,1.53,1.1l.16-.16-.56-.65,.41-.17c-.47-.55,.13-1.64-1-2h.53l.13,.02Zm-27.92,1.43l-.08,.8,1.11-.36-.06-.37-1-.07c-.81-.34-1.73-.37-2.56-.08,1.06,.85,1.23,.86,2.3,.15,.09-.03,.19-.06,.29-.07Zm12.77-2.93c3.51,0,7,.46,10.36-.28h-4.89c-1.16,0-2.33,.11-3.49,0-.68-.14-1.38-.04-2,.28-.19-.13-.38-.37-.59-.39-1.8-.17-3.61-.27-5.41-.48-1.62-.19-3.22-.52-4.83-.76-.42-.03-.85-.04-1.27-.02-.49-.33-1.01-.6-1.56-.81-2.58-.63-5.17-1.21-7.76-1.78-.92-.2-1.85-.31-2.77-.52-1.08-.15-2.13-.44-3.14-.84-.97-.34-1.98-.55-3-.63-1.1-.17-2.21-.27-3.32-.3-1.76-.16-3.52-.35-5.29-.47-.51,0-1,.15-1.56,.12-1.49-.14-2.98,.16-4.3,.87-.17,.14-.32,.32-.44,.51l.14,.19c.74,0,1.49,.06,2.22,0,1.37-.12,2.73-.41,4.1-.46,1.11,0,2.21,.1,3.3,.28,1.9,.23,3.81,.46,5.7,.76,3,.47,6,1,9,1.51,2.13,.22,4.23,.63,6.28,1.22,.79,.2,1.6,.33,2.41,.38,1.13,.25,2.25,.56,3.4,.75,1.92,.33,3.86,.6,5.8,.83,.96,.04,1.94,.04,2.91,.04Zm-23.12,1h.47c.21,.12,.44,.22,.67,.29h1.06c1.37,.15,2.74,.35,4.12,.46,1,.07,2,0,3,0,1.8,.11,3.6,.28,5.4,.43h.45c1.65,.09,3.3,.26,5,.27,1.43-.02,2.85-.11,4.27-.28,.5,0,1-.36,1.49-.44,.88-.15,1.77-.21,2.65-.29s1.82-.09,2.72-.19,1.52-.27,2.28-.4c-.17-.14-.39-.21-.61-.19-.84,.14-1.7,.23-2.55,.27-1.62,0-3.24-.17-4.87-.28-.55,.07-1.1,.09-1.65,.06-1.29-.22-2.6-.26-3.9-.12-.93,.08-1.71-.49-2.67-.32-.65,.01-1.29-.08-1.91-.27-1.34-.24-2.69-.43-4-.68s-3-.64-4.44-.94-2.81-.53-4.22-.8c-.54-.1-1.07-.22-1.6-.31-1.62-.27-3.23-.52-4.84-.8-1.29-.22-2.57-.52-3.87-.7-1.53-.21-3.09-.21-4.6-.5-2.48-.34-5-.34-7.48,0-.8,.06-1.6,.1-2.42,.15,.19,.62,.33,1.26,.43,1.91,.17,1.55,.87,2.99,2,4.06,.81,.88,1.58,1.8,2.32,2.74,.52,.81,1.53,1.16,2.44,.84v-.74l-.5-.14c.12-.14,.18-.26,.25-.27,1-.13,2-.24,3-.38,.49-.04,.97-.15,1.43-.33,.71-.38,1.4-.79,2.06-1.24l-3,.38c2.36-1.24,4.96-1.95,7.62-2.08l-5.29,1.44v.18c2.53-.17,4.91-1.25,7.43-1.51v.19l-1.71,.41c.92,.15,1.84,.23,2.77,.26,.27-.01,.54-.06,.8-.14Zm35.27-9.65l-.35-.35-.2,.51h-.19c.13-.9-.12-1.81-.71-2.51-.52-.58-.48-1.48,.1-2.01,.05-.04,.09-.08,.15-.11l-.14-1c-.57-.19-1.22-.43-1.89-.6-1.4-.36-2.79-.75-4.21-1-1.37-.24-2.74-.41-4.13-.49-1.36-.08-2.74,0-4.11,0h-4.56c-1.21,0-2.42,.17-3.63,.29-.8,.05-1.61,.15-2.4,.28-1.1,.19-2.19,.43-3.27,.74-3.13,.92-6.31,1.67-9.16,3.35-1.21,.72-2.48,1.33-3.66,1.95,.11,.71,.18,1.43,.21,2.15,0,.43,.06,.58,.49,.61,.64,.06,1.28,.14,1.91,.26,1.64,.32,3.15,1.2,4.86,1.25,.28,0,.55-.05,.81-.15,.85-.4,1.73-.73,2.63-1,2.5-.54,5-.95,7.53-1.45,2.57-.54,5.18-.87,7.8-1h1.12c1-.11,2.08-.51,2.76,.33,.34-.18,.7-.31,1.07-.4,1.59,0,3.16,.21,4.69,.64,1.8,.42,3.62,.75,5.4,1.24,1.23,.34,2.41,.89,3.59,1.34,.1-.33,.17-.66,.22-1,0-.89,.38-1.82-.14-2.65-.21-.33-.65-.51-.86-.84-.51-.8-.94-1.65-1.45-2.56-.1,1.43-.19,2.83-.29,4.23v-.05Zm-42.52-1.62c1.27-.71,2.69-1.26,4-2,1.42-.76,2.9-1.38,4.43-1.87,1.88-.73,3.81-1.35,5.76-1.86,1.54-.33,3.09-.54,4.66-.64,2.16-.18,4.34-.3,6.51-.37,1.08,0,2.16,.15,3.23,.11,1.51-.12,3.04-.07,4.54,.15,1.75,.34,3.54,.5,5.29,.85,.91,.25,1.81,.55,2.69,.9,.41,.12,.83,.17,1.27,.26,.04-.51,.04-1.02,0-1.53-.41-2.31-.86-4.61-1.31-6.92-.14-.71-.29-1.43-.46-2.14-.11-.74-.31-1.46-.61-2.14-.59-1.01-1.28-1.96-2.06-2.84-.56-.6-1.2-1.13-1.9-1.56-1.07-.72-2.28-1.24-3.27-2-1.56-1.28-3.42-2.13-5.41-2.46-1.82-.3-3.66-.45-5.51-.45-2.53-.02-5.07,.1-7.59,.36-1.3,.07-2.54,.54-3.57,1.33-.36,.28-.74,.53-1.15,.74-.94,.47-1.85,.99-2.73,1.56-.97,.75-1.9,1.55-2.78,2.41-.65,.54-1.22,1.16-1.72,1.84-.45,.77-.79,1.6-1,2.47-.43,1.57-.83,3.16-1.1,4.76-.14,1.09-.2,2.2-.17,3.3-.06,2.57-.04,5.15-.04,7.74Zm29.94,9.53v.21c.2-.09,.38-.26,.58-.27,1-.06,2-.09,3-.1,2,0,3.91,0,5.86-.08,.56,0,1.12-.04,1.67-.14,1.09-.22,2.16-.48,3.23-.78,.24-.07,.59-.34,.6-.54,.07-.84,0-1.7,0-2.44-.53-.21-1-.35-1.35-.54-.59-.38-1.21-.72-1.85-1-1.46-.43-2.95-.79-4.45-1.09s-3-.53-4.44-.73c-.86-.11-1.73-.16-2.6-.15-1.09,0-2.18,.05-3.27,.08-.93,0-1.86,0-2.78,.1-1.67,.19-3.32,.47-5,.71-.91,.13-1.83,.22-2.73,.39-1.64,.3-3.28,.59-4.88,1-.88,.3-1.72,.67-2.54,1.11,.41,.12,.65,.19,.89,.24,3.1,.71,6.21,1.41,9.31,2.13,.56,.13,1.07,.49,1.63,.58,2.4,.38,4.81,.69,7.21,1l1.91,.31Zm17.07-2.49c4.14-1.17,7.69-3.17,9.74-7.42-.41-.15-.84-.25-1.27-.28-1.08,.07-2.16,.26-3.2,.56-1.72,.6-3.38,1.4-5.07,2.11-.38,.15-.78,.26-1,.34,.27,1.6,.53,3.11,.8,4.69Zm9.51-5.23c-.18,.15-.34,.33-.47,.53-.64,1.16-1.53,2.16-2.61,2.93-1.47,1.06-3,2.01-4.6,2.86-.94,.56-1.91,1.07-2.9,1.63l.62,.09-4,.69c1.26,.02,2.51-.05,3.76-.2,.67-.07,1.35-.09,2-.21,1.1-.14,2.18-.38,3.24-.71,1.34-.36,2.56-1.05,3.57-2,1.58-1.62,1.35-3.6,1.39-5.61Zm-41.56,16.76c.86-.36,1.53-.66,2.22-.93,.16-.08,.36-.08,.52,0,.46,.46,.84,.3,1.42-.18-.49-.19-.99-.34-1.51-.45-1.12-.07-2.17,.55-2.65,1.56Zm31.08-17.67c.35,.46,.61,.49,1.21,.22l2.3-1,1.29-.59-.08-.26-4.72,1.63Zm6.44-2.11v.17l4.24-.43c-.09-.41-.5-.67-.91-.58-.03,0-.06,.02-.09,.03-.41,.07-.81,.18-1.22,.28l-2.02,.53Zm-44.07,13.93c.51,.12,1-.16,1.35,.35,.21,.16,.48,.21,.73,.13,.52-.53,1-.15,1.53-.07,.19,0,.39,.09,.71,.16-.83-.5-1.79-.76-2.76-.75-.53-.1-1.07-.04-1.56,.18Zm9.68,5.35c.23,.84-.11,1.72-.83,2.2,.52,.36,1.75-.11,1.83-.65h-.61l.22-1.35-.61-.2Zm29.6-10.44l-5.18,2.1c1.89-.2,3.68-.93,5.18-2.1Zm-53.81,8.23c1.13-.18,1.05-1.15,1.64-1.62l-2,.44,.84,.81-.48,.37Zm25.38-2.33l1.57,.49,.66-.52c-.66-.5-1.58-.49-2.23,.03Zm-6,.67c-.33-.09-.66-.15-1-.2-.16,.02-.31,.11-.41,.24,0,.07,0,.28,.12,.37,.38,.27,.9,.19,1.17-.18,.05-.07,.09-.14,.12-.23Zm1.19,5.82l-.19,.25,1.92,.9,.15-.31-1.88-.84Zm-9.77,2.31l-.28-.06c-.1,.27-.31,.56-.27,.81s.34,.46,.52,.68l.19-.13-.16-1.3Zm13.94-5.92c-.54,.1-1.15-.21-1.74,.33l1.86,.21-.12-.54Zm24.1-4.32l-.13-.11-1.11,.59,.81,.34,.43-.82Z"/><path class="c" d="M66.44,62.38l-.35,.4,.69,1.71h-.09l-1.67-2.24v1.37l-.45-.77c-.14,.24-.35,.44-.33,.61,.06,.46,.27,.9,.32,1.36,.02,.37-.08,.74-.29,1.05,.41-.79-.06-1.43-.28-2.12-.11-.73-.52-1.39-1.12-1.82l.23-.5h-.65c-.32-.01-.64-.05-.95-.1-.29-.08-.59,.08-.67,.37-.01,.04-.02,.08-.02,.12-.13,.89-.68,1.67-1.48,2.1,.3-.38,.62-.75,.9-1.15s.54-.75-.22-.92c.66-.81-.44-.69-.4-1.16l-.25-.09-.1,.55-.59-1.7c-.39,.13-.76,.33-1.08,.59-.39,.46-1,.75-.92,1.63-.08,.63-.36,1.21-.8,1.67-.48,.74-1.07,1.4-1.62,2.1-.89-.51-1.42,.19-2,.51l-.1-.19c.35-.18,.68-.39,1-.63,.37-.33,.72-.69,1.05-1.06,.03-.09,.03-.19,0-.28-1-.42,.24-1.61-.9-2l.25-.12,.49,.54,.55-1c.03,.27,.03,.55,0,.82-.1,.26-.16,.54-.18,.82l1-1.26,.21,.15c-.65,.6-.9,1.14-.63,1.82l.62-1.83c.15-.38,.3-.76,.48-1.12,0-.07,.19-.07,.47-.16l.31-.45-.62-.1c.35-.38,.65-.67,.93-1,.22-.19,.4-.41,.55-.66,.15-.34,.08-.8,.71-.75,.18-.31,.28-.65,.32-1,.26-1.07,.77-2.08,1.47-2.93l-.23,.74,.15,.07c.1-.16,.22-.3,.36-.43,.13-.11,.25-.79,.48-.06l.62-.54q-.64-.34-.12-2.34l.38,1c.02-.48,.09-.96,.22-1.43,.22-.43,.48-.84,.78-1.22,.57,.69,1,3.7,.61,4.27l-.65-3.27h-.19c.07,2.37-1.14,4.29-2.16,6.38l.62-.43,.19,.15c-.27,.35-.46,.82-.81,1-.65,.39-.44,1-.45,1.47,.03,.47,.13,.94,.29,1.39l.15-.13,.07,.67,.17,.11,1-1.16-.48-1.35,.18-.09,.62,1.08,.39-.66h.28c-.63,.92-.09,1.37,.45,1.88l-1.11-.54-.55,.75c1.21-.17,2.44-.02,3.56,.45,.22,.12,.75-.24,1.08-.47,.6-.41,1.17-.88,1.73-1.31l.4-1.55c0-.15,.24-.64,.08-.82-.36-.44,.12-1.32-.78-1.44-.67-1.09-1.16-2.28-1.44-3.52-.15-1-.62-2-.73-3-.06-1.21-.06-2.42,0-3.63l-.53,.2,1.53-1.93,.48,1.15c.14-.09,.29-.26,.46-.28,1.16-.15,2.16-.88,2.66-1.93,.15-.27,.64-.34,1-.5h0l-1.14,2.06c.21,.07,.54,.27,.62,.19,.53-.48,1-1,1.5-1.55l-.13-.09,.91-.23-.38-.36,1.8-.2-.94,1.53c.07,.03,.13,.06,.18,.11,0,0,.05,.09,.09,.18-.51-.12-1-.61-1.39,.12,.35,.28,1-.34,1.28,.45l-2.24,.2v.22l.24,.18c-1.1-.3-2.24,.35-2.54,1.46-.04,.15-.06,.29-.07,.44,.2-.11,.37-.28,.48-.48,.14-.24,.19-.61,.39-.72,.54-.26,1.09-.49,1.66-.68,.14-.04,.29-.06,.44-.06,.9,.09,1.79,.2,2.68,.3h0l1.11,1.64h-1.53l-.82,.9,.06,.16,1.25-.3,.05,.11-1,.65h-2.53v-.22h1.1c-1.05-.19-1.96-.82-2.51-1.73l-.11,1c-.55-.43-1-.35-1.59,.36,.84-.28,1.4-.13,1.7,.56l-.61,.48q-1-.4-.87-.71l-.86-.1,2.19,3.13-.09,.1-1.14-1.11-.14,.12,.31,.37c-1.15,.12-1.49-.95-2.34-1.34l.33,.59c-.04,.61,.25,1.19,.76,1.53,.4,.34,.81,.68,1.2,1,.17,.19,.33,.38,.47,.59l-.78-.21v.59l-.17,.08-1.12-1.42c.33,1.06,.99,1.98,1.88,2.64,.46,.41,1.18,.6,1.24,1.38,.06,.16,.07,.37,.18,.47,.53,.46,1.08,.89,1.62,1.33,.08,.15,.11,.36,.24,.45,.51,.41,.82,1.01,.85,1.66,0,.25,.56,.42,.71,.52l2.42-3,.3,.23c-.15,.2-.3,.41-.44,.62s-.45,.7-.67,1.05c-.06,.15-.1,.3-.14,.46,1-.59,1.62-1.12,1.68-2.14h.16c-.01,.18-.01,.36,0,.54,.11,.69-.31,1.51,.47,2.05h0l1.39,1.8-2.37-1c-.58-.25-1,.19-1.45,.4-.37,.1-.74,.15-1.12,.16l-.1-.82c-.78-.09-1.55-.28-2.29-.57-.65-.22-1.35-.22-2,0-.41,.14-.66,.79-1,1.21l.14,.14,.62-.38,1.16,2.62c-.37-.76-.77-1.43-1.79-1.5l.33,.79-1.16-.61c-.32-.33-.6-.8-1.17-.3Zm9.62-1.57l.08-1.29-1.89,1.19c.37,.29,.72,.29,1.81,.1Zm1.22,.47l-.89-1.89-.18,1.55c.18,.08,.36,.16,.55,.22l.52,.12Zm-5.89-2.51l-.18,.12c.22,.42,.43,.84,.67,1.24,.05,.08,.23,.11,.35,.12s.13-.21,.1-.25c-.31-.42-.63-.82-.94-1.23Z"/><path class="c" d="M59.81,107.88l-.52,.44c-.68,.6-1.4,1.17-2,1.83-.9,1.14-2.28,1.78-3.73,1.73-.91-.08-1.82-.16-2.71-.32-.37-.11-.71-.29-1-.55-1.24-.87-2.44-1.8-3.58-2.8-.75-.75-1.4-1.6-1.94-2.52-1.5-2.33-3-4.66-4.38-7.07-.81-1.42-1.36-3-2.06-4.49-.46-1-1-1.93-1.43-2.92-.8-1.86-1.6-3.72-2.29-5.62-.15-.71-.21-1.44-.17-2.16v-2.38c.11-2,1.42-3.38,2.31-5,.54-1,1.22-1.86,1.86-2.78,.14-.16,.29-.3,.46-.42l.2,.11c-.02,.18-.07,.36-.14,.52-.31,.45-.67,.87-1,1.31-.21,.24-.37,.52-.47,.83-.29,1.61-1.37,2.76-2.27,4-.63,.72-.89,1.68-.73,2.62,.12,.62,.14,1.26,.05,1.89,.03,1.06,.33,2.1,.89,3,1,2.5,2.07,5,3.25,7.46,1.26,2.59,2.57,5.18,4.07,7.64,1.21,2.05,2.62,3.98,4.21,5.75,1.22,1.31,2.68,2.37,4.3,3.11,1.29,.64,2.8,.69,4.14,.14,.95-.51,1.8-1.19,2.51-2,.62-.62,1.32-1.14,2-1.71l.17,.36Z"/><path class="c" d="M71.03,68.8c-.75-.28-1.56-.33-2.34-.16-.22-.02-.43-.08-.64-.16v1.28h-.12v-1.3l-1.86,.13,.11,2.25h-.25v-1.72l-1.47-.44-1.37,1.18v1.72h-.15l-.22-2.07c-.32-.22-.74-.4-1,.31l-1.05-.4-.57,2.43h-.2l.52-2.39c-.62-.21-.83,.25-1.06,.65-.43,.78-.84,1.57-1.27,2.34-.13,.23-.32,.42-.55,.56l1.77-3.19-.15-.11-.4,.31c-.24-.86-.17-.93,1.21-1.12l.27-1.7h.13l-.13,1.64h1.31l-.5-1,.34,.22c.44,.34,.98,.52,1.54,.53,.81,.15,.72-.25,.76-.7,.45,.6,1.12,.56,1.76,.54,.1,0,.19-.29,.3-.48,1.07,.29,.7-.62,.88-1.14v.61c0,.44,.23,.54,.65,.48,.39-.03,.78-.03,1.17,0v-1.18h.12l.3,1.34,2.85-.21-.56-.92,.13-.1,.81,.9,.79-.5,.26,1.07h.16l.08-.58,.92,.49c-.08,.17-.13,.36-.14,.55,.08,.26,.14,.52,.16,.79-.32-.61-.97-.98-1.66-.93l-1.24,.71-.43-.53h.03Z"/><path class="c" d="M109.87,96.27c.28-.74,.36-1.53,.22-2.31-.19-1.33-.29-2.66-.32-4,0-1.4-.07-2.79,0-4.19,.03-1.61-.67-3.14-1.9-4.18-1-1-2.13-1.61-3.15-2.47-.27-.23-.54-.44-.81-.66l.21-.2c1.42,1.1,2.87,2.16,4.23,3.32,.63,.59,1.17,1.26,1.62,2,.16,.36,.23,.76,.2,1.16,.11,3,.23,5.92,.3,8.88,0,1.06-.05,2.11-.15,3.16"/><path class="c" d="M23.76,88.06c-.09,.15-.14,.37-.28,.45-1,.54-2,1.08-3,1.58-1.27,.64-2.67,1-3.63,2.19-.23,.3-.52,.54-.86,.71-2,.93-3,2.81-4.42,4.34-.73,.74-1.03,1.8-.79,2.81,.12,.66,.12,1.34,0,2-.17,1.26-.44,2.51-.82,3.72v-1.5c0-.35-.11-.7-.09-1,0-.53,.14-1.06,.2-1.59,.09-.73,.16-1.47,.23-2.2,.04-.74,.32-1.44,.81-2,1.16-1.26,2.2-2.63,3.39-3.86,.55-.59,1.44-.85,2-1.45,1.31-1.43,3.12-1.9,4.75-2.72,.58-.29,1.07-.76,1.63-1.11,.29-.14,.59-.24,.9-.31l-.02-.06Z"/><path class="c" d="M96,86.53c.23,.55,.5,1.09,.68,1.65,.47,1.35,.87,2.73,1.19,4.12,.39,2,.67,4,.88,6,.12,1.16-1.17,2.26-2.24,2.62-1.16,.26-2.36,.23-3.51-.09-.59-.17-1.16-.41-1.69-.73-1.16-.36-2.25-.89-3.26-1.56-.9-.65-1.85-1.24-2.84-1.75-.13-.12-.17-.31-.1-.47l2.59,1.52c.89,.62,1.82,1.17,2.79,1.65,1.35,.57,2.75,1.03,4.18,1.36,1.56,.37,3.15-.49,3.69-2,.18-.83,.16-1.69-.06-2.51-.38-2-.85-4.07-1.33-6.09-.29-1.24-.66-2.46-1-3.7l.03-.02Z"/><path class="c" d="M60.33,48l.7-.34,.34,1.15,.78-1.71,.3-.43,.52,.16-.25,1.34-.22,.74-.63-.49-1,1.35c-.31,.62-.94,1.01-1.63,1-.31,0-1.21,.91-1.27,1.29-.12,.76-.79,1.19-1.2,.91,.28-.46,.55-.93,.84-1.37,.18-.24,.37-.47,.58-.68l1.18-1.29c.32-.31,.61-.65,.88-1,.07-.2,.1-.42,.08-.63Z"/><path class="c" d="M83.51,44c.43,.86,.87,1.61,1.19,2.41,.23,.91,1.06,1.53,2,1.5,.37,0,.74,.11,1.06,.29h-.94c-.32,0-.58-.07-.92-.11l.16,.46-.78-.55,.47,1.27h0l-2-3.4c-.36,.94-.22,1.99,.36,2.81,.44,.52,.74,1.16,1.14,1.71s.66,.8,.88,1.19l1.06,2.48-.1,.06c-.42-.75-.81-1.52-1.26-2.24-.31-.5-.72-.92-1.05-1.4-1.09-1.23-1.61-2.85-1.45-4.48,.07-.42,0-.86,.05-1.28,.02-.23,.08-.48,.13-.72Z"/><path class="c" d="M86.96,72.75l1.12,.36c.42,.13,.85,.27,1.28,.37,.09,.03,.19,.03,.28,0l3,.64c-.12,.09-.24,.19-.35,.29v.17l2.47,1c-.92,.25-1.89,.13-2.72-.33-.17-.1-.48,0-.61,.06-.44-.2-.86-.35-1.25-.56-1-.51-1.93-1-2.89-1.57l-.35-.18,.02-.25Z"/><path class="c" d="M77.08,62.5c.8,.72,1.11,.69,2.14-.1l-.82,.74,2.88,5c.82,.16,1.1,.56,1.17,1.84,0,.63,.13,1.27,.21,2.06-.12-.24-.22-.49-.29-.75-.1-.54-.13-1.09-.23-1.62-.22-1.25-.45-1.4-1.69-1l.52-.6c-1.39-1.83-1.98-4.14-3.89-5.57Z"/><path class="c" d="M76.81,57.86h-.16l.11-.85,1.31,.5c-.12-1.53-.08-3,1.2-4.1-.15,.29,.88,.67-.07,.9h0v-.49c-.76,.73-1.04,1.83-.73,2.84l-.3-.92c0,1.07-.22,1.93,.53,2.68,.26,.36,.38,.81,.34,1.26,0,.58,.32,.71,.7,.9,.37,.16,.71,.4,1,.69-1.02-.66-2.25-.95-3.46-.82h0c.19-.09,.39-.15,.6-.19h1c.01-.89-.35-1.75-1-2.36-.33-.5-.83-.49-1.07-.04Z"/><path class="c" d="M77.34,105.52l-.73-.92c-.08,.36-.12,.73-.23,1.09-.12,.35-.29,.69-.5,1,1-2.56,0-4.71-1.2-6.81q.32,0,1.26,1.8l.78-3.14h.12c-.27,1.15-.45,2.33-.54,3.51-.02,1.2,.39,2.37,1.17,3.29l-.13,.18Z"/><path class="c" d="M85.41,87.4l-.54-1.85h.09c.07,.16,.13,.32,.21,.48,.31,.83,1,1.47,1.86,1.71,1.26,.37,1.99,1.69,1.62,2.95-.03,.11-.07,.21-.11,.31,.12-.76-.27-1.13-.88-1.47-.4-.29-.76-.63-1.08-1l-1.17-1.13Zm1.22,.75l1.56,1.53c.08-.76-.47-1.45-1.23-1.53-.11-.01-.22-.01-.33,0Z"/><path class="c" d="M87.13,67.39h-1l-.06,.13,1.42,1-.09,.15-2.85-1.76c-.08-.22-.18-.42-.31-.61-.49-.53-1-1-1.48-1.62l2.36,1.32s.08,.06,.1,.1c.2,1.03,1.12,1.03,1.91,1.29Z"/><path class="c" d="M76.56,65.37c1.58,.9,2.15,2.44,2.58,4.07l-.18-.37c-.06-.16-.14-.3-.25-.43,.07,2.18,1.76,3.5,2.71,5.26-.21-.23-.42-.44-.62-.67-.22-.24-.42-.49-.61-.76-.56-.92-1.06-1.88-1.65-2.78-.4-.54-.82-1.06-1.28-1.55l1.19,.7c.25-1.65-1.1-2.41-1.89-3.47Z"/><path class="c" d="M48.09,98.05c.12-1.14,1.14-1.96,2.28-1.84,.04,0,.09,.01,.13,.02,.74,.09,1.49,.16,2.24,.21,.17,0,.33-.05,.49-.11-.6,1.89-2.22,3.27-4.17,3.58,.76-.39,1.5-.82,2.21-1.3,.61-.54,1.18-1.13,1.71-1.76l-.15-.2c-.96-.11-1.92-.17-2.88-.16-.44,.11-.84,.33-1.15,.66-.26,.28-.5,.58-.71,.9Z"/><path class="c" d="M86.17,74.59l-2.13-2.19c0-.25-.13-.68-.24-1.1s-.24-.81-.37-1.22l.22-.06c0,.14,.12,.29,.16,.44,.14,.61,.11,1.32,1.1,1.26,.45,0,.92,.4,.67,.84-.45,.82,.08,1.16,.53,1.59l.27,.23-.21,.21Z"/><path class="c" d="M41.44,69c.08,.15,.26,.35,.22,.43-.23,.64-.57,1.23-1,1.76-.72,.67-1.2,1.57-1.36,2.54,0,.21-.12,.41-.18,.62l-.25-.06,1.08-3h-2.76v2.09h-.1c-.07-.22-.14-.44-.19-.67-.25-1.22,.07-1.58,1.28-1.56,.7,.01,1.39-.04,2.08-.15,.61-.11,.99-.77,1.18-2Z"/><path class="c" d="M89.56,84.51l-1-1.3-.4,.49c.52-1-.13-1.54-.84-1.92-.72-.42-1.64-.25-2.18,.39-.06-.7,.07-.76,2-.89-.11-.19-.19-.36-.29-.52-.1-.11-.19-.24-.26-.38,1.57,.93,2.13,2.62,2.97,4.13Z"/><path class="c" d="M40.55,80.94l-1.61,2.57-.13-.07c.29-.55,.57-1.11,.88-1.65s.61-.91,.88-1.38,.61-.53,.92-.32c-.25,.31-.47,.64-.64,1-.51,1.41-1,2.84-1.46,4.27,0,.06-.11,.1-.28,.1l1.59-4.46-.15-.06Z"/><path class="c" d="M83.14,40.51c1.84-.43,3.77-.33,5.55,.31,.76,.18,1.55,.25,2.33,.21-.21,.08-.42,.14-.64,.18-.71,.05-1.41,.05-2.12,0-.5-.07-1-.41-1.46-.5-.77-.13-1.57-.15-2.35-.22v.22l.89,.28v.19l-2.12-.66h-.08Z"/><path class="c" d="M83.07,51.93c.27,.28,.52,.59,.72,.93,.17,.61,.79,.96,1.4,.8,.13-.04,.26-.1,.37-.18l-1.39-2,.15-.1,2.25,3.06-.1,.08-.55-.62,.13,.74c-.33-.39-.39-1.21-1.3-.62l.73,1-.06,.06-1.29-1.08c-.04-.14-.09-.27-.15-.4-.29-.56-.59-1.1-.89-1.65l-.02-.02Z"/><path class="c" d="M92.37,42.62c-2,1.17-3.32,.3-4.85-.65-.5-.32-1-.67-1.45-1,.35-.22,.82-.15,1.09,.17,1.2,1.43,3.14,1.99,4.91,1.42,.07,0,.15,.04,.3,.06Z"/><path class="c" d="M72.63,99.22c-.25,.93-.4,1.67-.66,2.38-.22,.82-.08,1.7,.38,2.41,.37,.75,.75,1.5,1.06,2.27,.07,.33,.09,.67,.06,1-.15-.53-.34-1.04-.55-1.55-.37-.81-.88-1.57-1.19-2.4-.36-.94,.06-2.69,.9-4.11Z"/><path class="c" d="M44.81,90.77c.24-.2,.5-.38,.78-.53,.26-.08,.54-.08,.8,0-.81-.11-1,.53-1.18,1,0,.06,.24,.24,.36,.36l-1.09,2.4-.07-.86-.67,.56c.75-.78,1.14-1.83,1.07-2.91v-.02Z"/><path class="c" d="M86.02,62.92l-3.36-3v-.07l.81,.53-.72-2c.21,.2,.39,.41,.55,.65,.3,.6,.51,1.25,.82,1.85,.12,.22,.41,.34,.6,.54,.48,.47,.94,1,1.4,1.44l-.1,.06Z"/><path class="c" d="M71.87,81.68c-.78-.99-1.06-2.28-.78-3.51l.05,1.19h.2c.08-1,.19-2,.21-3,0-.26-.32-.53-.5-.78,0-.08-.19-.12-.22-.2,0-.09,.03-.18,.09-.24,.14,0,.28,.03,.4,.11,.49,.59,.68,1.38,.51,2.13-.13,.83-.37,1.63-.52,2.45,0,.22,.04,.43,.13,.63,.1,.42,.26,.82,.43,1.22Z"/><path class="c" d="M96,86.53c-.34-1.07-.65-2.17-1-3.23-.32-.88-.76-1.72-1.14-2.58-.19-.37-.3-.77-.34-1.18,.52,.73,.97,1.5,1.34,2.31,.5,1.33,.84,2.73,1.23,4.11,.03,.19,.03,.38,0,.57h-.09Z"/><path class="c" d="M54.59,102c.01-.24,.06-.48,.13-.71,.37-.81,.78-1.61,1.17-2.4l.1,.38c.86-.75,.49-1.82,.69-2.74,.35,1.15,.1,2.39-.66,3.32-.49,.67-.87,1.41-1.3,2.12l-.13,.03Z"/><path class="c" d="M40.62,57.25c-.21,.86-.37,1.72-.47,2.6-.12,1.63-1,3-1.22,4.62-.1,.35-.18,.71-.22,1.08,0,.26,.22,.51,.35,.79-.27,0-.59-.08-.52-.63,.05-.44,.12-.88,.23-1.31,.31-1.15,.68-2.28,1-3.43s.42-2.13,.63-3.19c.05-.19,.1-.38,.17-.56l.05,.03Z"/><path class="c" d="M36.3,83.23c.45-.68,.98-1.3,1.57-1.86,.81-.7,1.32-1.68,1.43-2.74,.08-.52,.19-1.03,.34-1.53,.53,.66-.59,1.46,.15,2.24l-3.28,4-.21-.11Z"/><path class="c" d="M39.42,46.92c-.48,1-.89,2.03-1.23,3.08-.23,.95-.32,1.93-.27,2.91,.11,.53,.31,1.03,.6,1.48l-1.06-.61c.09-.27,.14-.55,.15-.83-.08-2.15,.56-4.27,1.81-6.03Z"/><path class="c" d="M84.87,87.93c-.61,2.41,.35,4.94,2.41,6.34-1.75-.1-3.73-4.27-2.41-6.34Z"/><path class="c" d="M85.45,77.73l2,.19c-.59-.88-1.44-1.55-2.43-1.92,2,.34,3.44,2.1,3.39,4.12,.05-1.19-.87-2.19-2.05-2.24-.14,0-.28,0-.42,.02-.15,0-.31-.13-.46-.21l-.03,.04Z"/><path class="c" d="M65.87,81.54c-.77,2.24-.57,4.54-.45,6.84-.63-2.27-.47-4.68,.45-6.84Z"/><path class="c" d="M68.14,100.78c.08-1.06,.21-2.11,.4-3.15,.23-.88,.54-1.75,.91-2.58,0-.1,.23-.15,.35-.22,0,.13,.09,.31,0,.38-.67,.93-1.07,2.02-1.16,3.16-.11,.8-.16,1.62-.24,2.43l-.26-.02Z"/><path class="c" d="M37.56,64.26c.47-.62,1.21-.93,1-1.74-.1-.36-.26-.69-.47-1-.62-1.11-.29-2.51,.76-3.23-.91,.95-1.04,2.4-.3,3.49,.6,1.14,.32,1.77-.99,2.48Z"/><path class="c" d="M82.18,95.14c.33,.62,.38,1.34,.16,2-.24,1.23-.48,2.47-.63,3.71-.06,.47,.12,1,0,1.48-.17-.65-.26-1.32-.27-2,.08-1,.39-2,.54-3,.14-.66,.14-1.33,.2-2.19Z"/><path class="c" d="M36.33,51.56c.94-1.09,.41-2.36,.56-3.55,.03-.32,.12-.63,.26-.91,.07-.13,.38-.12,.61-.07-.71,.28-.78,.61-.32,1.37-.12,.2-.26,.33-.26,.47,.04,.53,.04,1.05,0,1.58-.13,.42-.32,.82-.55,1.19l-.3-.08Z"/><path class="c" d="M41.62,86.79c0-1.05-1.47-1.39-1.06-2.72,.27-.98,.68-1.91,1.21-2.78-.32,1-.55,1.78-.85,2.55-.25,.64-.05,1.37,.49,1.8,.28,.36,.7,.64,.21,1.15Z"/><path class="c" d="M79.39,102.35c-.51-.51-.71-1.25-.52-1.95,.26-1.36,.62-2.7,.92-4.05,.05-.33,.08-.67,.09-1,.2,.66,.17,1.36-.08,2-.23,1.18-.49,2.36-.65,3.56,0,.49,.08,.98,.24,1.44Z"/><path class="c" d="M62.87,93l-1,6.82c-.3-2.35,.79-4.53,.78-6.85l.22,.03Z"/><path class="c" d="M88.53,70.77c-.34,.51-1,.35-1.35,0-.9-.74-1.7-1.61-2.55-2.42l.23-.25c.3,.29,.61,.58,.9,.88,.39,.51,.84,.98,1.33,1.4,.45,.21,.94,.34,1.44,.39Z"/><path class="c" d="M76.72,64.94c-.66-.72-1.37-1.41-2-2.18-.46-.52-1.17-.76-1.85-.62-.21,.01-.41,.01-.62,0,.95-.49,2.12-.31,2.87,.45,.29,.39,.63,.75,.93,1.13,.3,.38,.57,.72,.85,1.08l-.18,.14Z"/><path class="c" d="M72.76,123c-.24-.7-.5-1.39-.7-2.09-.04-.33-.04-.67,0-1h0"/><path class="c" d="M67.58,84.68c-.21,1.93-.34,3.69,.72,5.41-1.24-.76-1.43-4.32-.72-5.41Z"/><path class="c" d="M58.14,101.94l-.64,2.27-.49-4.94h.16l.49,3.46,.34-.82,.14,.03Z"/><path class="c" d="M66.44,62.38c.57-.5,.85,0,1.17,.34l.44,.66-.4,.33c-.15-.12-.13-.78-.64-.29,0,0-.38-.13-.44-.26-.07-.25-.12-.52-.13-.78Z"/><path class="c" d="M73.96,65.86l.29,.47-.61-.17,.54,1.13h-.11l-2-2.32,1.1,.25,.79,.64Z"/><path class="c" d="M81.46,78.35c.46-.48,.84,0,1.18,.13,.77,.41,1.51,.89,2.26,1.33l.53,.34-.13,.24-3.84-2.04Z"/><path class="c" d="M36.54,55.31c-.06,.44-.1,.88-.19,1.31-.18,.66-.05,1.37,.36,1.92,.08,.14,.11,.3,.08,.46-.19,.74-.43,1.46-.71,2.17,0-.4,.07-.79,.19-1.17,.53-1.06-.23-2-.16-3,0-.59,.14-1.17,.22-1.75l.21,.06Z"/><path class="c" d="M82.87,63c.49,.07,.97,.2,1.43,.37,1.16,.45,2.03,1.43,2.35,2.63-1-1.38-2.06-2.53-3.89-2.65l.11-.35Z"/><path class="c" d="M69.6,100.86c-.43,.82-.72,1.71-.86,2.63,.18,.87,.52,1.71,1,2.46-1.44-1.19-1.64-3.32-.45-4.76,.1-.12,.2-.23,.31-.33Z"/><path class="c" d="M61.65,79c-.04-.26-.09-.51-.15-.76-.36-1.09-.74-2.18-1.09-3.28-.11-.35-.27-.81,.31-.87-.04,.24-.04,.47,0,.71,.37,1.28,.78,2.56,1.16,3.85,.02,.12,.01,.23,0,.35h-.22Z"/><path class="c" d="M73.71,97.88c-.06-.06-.15-.11-.15-.16-.05-.94-.54-1.8-1.32-2.32-.41-.34-.61-.87-.55-1.4,.47,1.38,2.37,2.05,2.02,3.88Z"/><path class="c" d="M39.09,42.56l.2,.33-1.1,1.2,.21,1.18h-.08l-.71-1.85c.95,.42,.85-.83,1.48-.86Z"/><path class="c" d="M61.42,68.07l-.34-.22c-.36-1.29,.19-2.66,1.33-3.36-.4,.64-.75,1.13-1,1.66-.11,.2-.21,.61-.11,.68,.46,.39,.23,.81,.12,1.24Z"/><path class="c" d="M95.07,75.56c1.42,.49,3,.43,4.37,1.49l-4.44-1.25,.07-.24Z"/><path class="c" d="M36.57,80.53c.01-1.76,.87-3.4,2.3-4.42-1.22,1.19-2.02,2.74-2.3,4.42Z"/><path class="c" d="M47.3,66c-.05-1.57,.14-3.13,.57-4.64l-.37,5-.22-.36h.02Z"/><path class="c" d="M76.93,44.48c.22,.15,.44,.31,.67,.45,.14,.08,.28,.16,.43,.22,.17,.97-.14,1.97-.84,2.66-.06-.64,1.2-1.16,.16-1.89,.41-.62,.07-1.05-.42-1.44Z"/><path class="c" d="M51.8,101.66c.21-1.61,1.18-3.01,2.6-3.79-1.2,1-2.1,2.31-2.6,3.79Z"/><path class="c" d="M84.31,69l2.56,3.25c-1.42-.84-2.84-2.88-2.56-3.25Z"/><path class="c" d="M39.59,54.53c-.58,1.46-1.07,3-2.57,3.93,0-.14,0-.24,.06-.27,.89-.84,1.59-1.87,2.06-3,.13-.22,.29-.43,.46-.62v-.04Z"/><path class="c" d="M73.12,88l.93-5.18h.19l-.89,5.18h-.23Z"/><path class="c" d="M52.53,62l-.3,.06c.39-.72,.35-.77-.82-1h1l.09-.55c.21,.5,.38,1.01,.5,1.54,.02,.56-.01,1.12-.1,1.68l-.37-1.73Z"/><path class="c" d="M80.69,83.37c.92,1.33,1.75,2.65,3.51,3.08-1.28,.2-3.24-1.57-3.51-3.08Z"/><path class="c" d="M48.87,86.18l.35,5.26h-.16l-.43-5.27h.24Z"/><path class="c" d="M45.43,58.52c.74-.11,.82,.42,.84,.76l.62-.65,.95,.61-.78,.29-.08-.38-1,1.32c.16-.83,.39-1.58-.53-2l-.02,.05Z"/><path class="c" d="M68.5,69.76c.31,1.56,.14,3.18-.49,4.64l.49-4.64Z"/><path class="c" d="M73.96,65.86l-.76-.6-1.49-1.84,.08-.06,3,2.8-.83-.3Z"/><path class="c" d="M77.71,79.34c.08,1.74,.15,3.48,.23,5.23h-.2l-.24-5.19,.21-.04Z"/><path class="c" d="M27.98,85.46c-1.18,.81-2.35,1.63-3.54,2.43-.22,.1-.45,.15-.68,.17h0c1.3-.86,2.59-1.73,3.89-2.58,.08-.06,.23,0,.34,0v-.02Z"/><path class="c" d="M33.53,55.27l.77-3.81,.32,.07-.9,3.78-.19-.04Z"/><path class="c" d="M69.98,85.61c.68,1.48-.67,2.6-.74,3.94h-.19c.12-.47,.24-.94,.38-1.41,.18-.47,.33-.96,.44-1.45,0-.36-.05-.72-.16-1.07h.27Z"/><path class="c" d="M81.12,94.69q-2.34-2.59-2.25-3.27l2.25,3.27Z"/><path class="c" d="M60.98,107.38c-.38-1.71-.07-3.51,.85-5-.65,1.58-.94,3.29-.85,5Z"/><path class="c" d="M51.02,70.73c0-.69,0-1.39-.15-2.07s-.26-1.38-.39-2c.62,.41,.95,2.49,.54,4.07Z"/><path class="c" d="M55.34,91.09v-4.46c.2,1.45,.58,2.89,0,4.46Z"/><path class="c" d="M42.1,88.84c-.24-2,.36-4.31,1.18-4.74-.74,1.47-1.14,3.09-1.18,4.74Z"/><path class="c" d="M79.42,87.58c1.14-.12,2.86,1.29,2.83,2.28-.65-1.06-1.65-1.87-2.83-2.28Z"/><path class="c" d="M49.1,62.41v4.45h-.28l.23-4.47,.05,.02Z"/><path class="c" d="M81.6,80.66l2.21,3.61-.2,.11-2.2-3.6,.19-.12Z"/><path class="c" d="M50.96,89.63l1.13-3.85,.21,.06-1.11,3.9-.23-.11Z"/><path class="c" d="M84.32,93.41c-.48-1.08,.26-2.36-.71-3.44,0,0,.27-.14,.29-.11,.2,.18,.34,.42,.4,.68,.05,.95,.02,1.92,.02,2.87Z"/><path class="c" d="M37.74,58.58l-.78,4.36h-.24c.62-1.38,.08-2.94,1.02-4.36Z"/><path class="c" d="M71.03,68.79c.12,1,.25,2.07,.35,3.11,0,.23-.04,.45-.09,.67h-.26v-3.77h0Z"/><path class="c" d="M43.95,73.17v-3.7c.65,1.26,.22,2.39,0,3.7Z"/><path class="c" d="M44.81,90.77c-.13-.24-.28-.46-.47-.65-1.1-.77-1.12-.78-.79-2,.11-.36,.3-.69,.57-.95-.15,.41-.28,.83-.39,1.26-.15,.64-.12,1.23,.64,1.53,.36,.14,.69,.34,.44,.83v-.02Z"/><path class="c" d="M89.87,86.24l-2.51-2.06c.72-.04,1.78,.82,2.51,2.06Z"/><path class="c" d="M102.44,78.31l-2.9-1.13,.09-.23,2.94,1.12-.13,.24Z"/><path class="c" d="M67.16,51.51c-.5-.34-.79-.91-.76-1.51,.21,.1,.4,.24,.57,.39,.26,.33,.46,.7,.68,1l-.49,.12Z"/><path class="c" d="M36.26,46.28c-1.07,.73-1.8,1.86-2,3.14-.03-1.35,.76-2.59,2-3.14Z"/><path class="c" d="M66.26,104.57l-.14-.19-.07,.71c-.29-.95-.11-1.98,.47-2.79l-.26,2.27Z"/><path class="c" d="M41.1,59.53l-.37,.12,1.63-3.34,.19,.09c-.36,.74-.73,1.48-1.07,2.23-.1,.25-.17,.5-.23,.76l-.15,.14Z"/><path class="c" d="M91.54,52l-1.67-2.58,.37,.13,.09-.31,1.27,2.67-.06,.09Z"/><path class="c" d="M77.2,74.82l-1.45-3.52c.4,.08,.42,.13,.89,1.53,.21,.63,.44,1.26,.67,1.89l-.11,.1Z"/><path class="c" d="M51.09,47.1v.2c-.36,.15-.86-.35-1.13,.25-.12,.02-.24,0-.35-.06-.42-.21-.8-.5-1.12-.85l.68,.3,.62,.25,.24-.7c.02-.07,.04-.13,.05-.2,.2,.48,.34,1.01,1.01,.81Z"/><path class="c" d="M77.52,93.08l-1.72-2.88,.2-.12,1.71,2.92-.19,.08Z"/><path class="c" d="M73.8,52.45l-1.9,.71q.08-.73,1.9-.71Z"/><path class="c" d="M87.77,84.93c.35,1.78,.93,2.31,2.51,2.5-1.13,.25-2.25-.46-2.51-1.59-.07-.3-.07-.61,0-.91Z"/><path class="c" d="M41.1,59.53l.15-.14c-.14,.59-.31,1.18-.52,1.75-.26,.56-.59,1.09-1,1.56l1.37-3.17Z"/><path class="c" d="M30.5,83.26l2.24-2.13,.24,.28-2.51,1.83,.03,.02Z"/><path class="c" d="M72.06,120c-.16,0-.43-.06-.46-.14-.29-.91-.54-1.83-.79-2.75,0,0,.06-.11,.09-.17,.39,1,.77,2,1.16,3.07h0Z"/><path class="c" d="M60.03,89.43c-1.54,.59-1.4,2-1.74,3.38-.06-1.81,.42-3.28,1.74-3.38Z"/><path class="c" d="M69.48,78.8c-.15-1.37,.17-2.66-.61-3.76,.66-.04,.93,1.58,.61,3.76Z"/><path class="c" d="M63.37,48s0-.09-.09-.11l-.48-.11,.85-.52,.82,.51-.08,.23h-1.02Z"/><path class="c" d="M79.2,54.29c.09,.6,.22,1.2,.38,1.79,.18,.54,.49,1,.66,1.57-.66-1-1.51-2-1-3.36h-.04Z"/><path class="c" d="M64.14,103c-.27,1.36-.56,2.59,.18,3.77-.78-.77-.87-2.63-.18-3.77Z"/><path class="c" d="M70.54,115.13l-1.31-3,.2-.08,1.32,3-.21,.08Z"/><path class="c" d="M41.25,45.7c0,.47-.07,.94-.09,1.41s0,.7,0,1h-.29l.15-2.47,.23,.06Z"/><path class="c" d="M81.95,75.87l-1.8-2.52,.16-.12,1.86,2.51-.22,.13Z"/><path class="c" d="M46.64,45.25c.64,.21,1.36,.41,2,.7,.37,.21,.71,.47,1,.78-.87-.64-2-.67-2.88-1.26-.06-.06-.1-.14-.12-.22Z"/><path class="c" d="M43.72,59.92l-.76,3.33h-.19l.76-3.33h.19Z"/><path class="c" d="M51.21,60.72l-.4,2h-.26l.26-2.08,.4,.08Z"/><path class="c" d="M46.29,74.84l1.68-2.84c-.23,1.11-.82,2.11-1.68,2.84Z"/><path class="c" d="M44.06,64.83l-1.06,3.17h-.13l1-3.18h.19Z"/><path class="c" d="M27.99,85.48c.14-.39,.34-.75,.61-1.07,.61-.42,1.24-.81,1.9-1.15h0c-.12,.18-.26,.34-.41,.49-.69,.59-1.39,1.16-2.08,1.73h-.02Z"/><path class="c" d="M78.36,78.73l-.33-2.82h.19l.38,2.8-.24,.02Z"/><path class="c" d="M85.48,77.7c-1.27-.27-1.61-1.11-1.09-2.7,0,1.08-.16,2.19,1.06,2.77l.03-.07Z"/><path class="c" d="M54.26,68l.2,3h-.2v-3Z"/><path class="c" d="M64.3,97l.84-3.18h.21l-.89,3.18h-.16Z"/><path class="c" d="M63.38,86.54l1.24,2.6-.16,.07-1.26-2.56,.18-.11Z"/><path class="c" d="M45.24,81l-.87,2.75h-.16l.81-2.76h.22Z"/><path class="c" d="M47.28,66c.18,1.25,0,2.52-.5,3.67,.17-1.2,.35-2.42,.52-3.65l-.02-.02Z"/><path class="c" d="M56.76,69.18l-1.49,1.82c.27-.94,1.05-1.18,1.67-1.6l-.18-.22Z"/><path class="c" d="M77.02,71.67l2,1.85c-.88-.33-1.6-1-2-1.85Z"/><path class="c" d="M70.25,70.55c-.61-.14-.99-.74-.85-1.35,.02-.07,.04-.14,.06-.2l.79,1.55Z"/><path class="c" d="M42.22,71.85l-.44,2c-.41-.05-.36-.39,.44-2Z"/><path class="c" d="M80.97,57.46v-2.37h.27l-.17,2.37h-.1Z"/><path class="c" d="M62.14,61.68l-.46,1.09c-.33-.36-.37-.91-.05-1.11,.15-.09,.42,0,.51,.02Z"/><path class="c" d="M64.65,79.46l-.33-3.28h.19l.28,3.28h-.14Z"/><path class="c" d="M83.94,97.36l.37,2.65h-.13l-.5-2.64h.26Z"/><path class="c" d="M55.61,75.05l.26-2.05h.23l-.24,2-.25,.05Z"/><path class="c" d="M52.06,56.11l1.8-1,.1,.14-1.72,1.13-.18-.27Z"/><path class="c" d="M39.75,75.15l1.18-1.9,.21,.13-1.22,1.91-.17-.14Z"/><path class="c" d="M46.62,61l-1.15,2.35-.16-.08,1.15-2.42,.16,.15Z"/><path class="c" d="M39.6,54.55c.02-.76,.21-1.5,.55-2.17l.24,.08c-.26,.69-.53,1.38-.8,2.07v.02Z"/><path class="c" d="M61.07,51l-.15-1,.34-.26,.46,.44-.23,.26,.15-.49q.23,.65-.57,1.05Z"/><path class="c" d="M58.32,86.46l.39-2.46h.18l-.34,2.43-.23,.03Z"/><path class="c" d="M44.87,40c.16-.15,.3-.4,.48-.43,1.45-.3,2.91-.56,4.38-.82,.17-.01,.35-.01,.52,0v.21l-2.68,.52,.35,.14v.12l-2.6,.27h-.45Z"/><path class="c" d="M64.09,44.89l.53-.21,.06,.17-.87,.28v.09l.55-.07-1.58,.93h-.09l1.67-1.87,.17,.15-.44,.53Z"/><path class="c" d="M62.45,46.69l-.3,.43c-.81-.12-.89-.23-1-1.44,.72,.03,.48,1.17,1.3,1.01Z"/><path class="c" d="M80.13,30.37c.49-.63,.89-.19,1.2,.17,.13,.14,0,.48-.06,.72l.09,.6-1.2-.1v-1.41l-.03,.02Z"/><path class="c" d="M58.19,40h-3.41c1.11-.26,2.26-.34,3.4-.22v.22Z"/><path class="c" d="M85.42,38.26l1.78-.37v-.12h-.88v-.21l3.33-.67,.07,.3c-1.52,.23-2.63,1.81-4.3,1.07Z"/><path class="c" d="M46.06,33.5l10.16-2.5,7.8-1,6.34,.78,6.2,.47,4.8,.6,1.29,1.34,.61,2.67-3.14,2.59s-5.71,.27-6.66,.29-10.49-1.07-10.49-1.07l-5.81-.26-10.61-2.65-.49-1.26Z"/><g><path class="c" d="M26.3,135.87s-.08,0-.12-.02c-.23-.09-.33-.23-.68-.23-.74,0-1.27,.44-1.27,.44l-.09,.19-.53,.45s-.29,.34-.51,.75c-.24,.42-.36,1.02-.36,1.41,0,.23,.16,.65,.16,.65l.28,.23,.09,.17,.15,.2s.73,.3,1.16,.3c.19,0,.35-.06,.35-.06l.31-.15,.22-.04,.24-.14,.18,.09,.04,.15,.12,.15s-.06,.43-.24,.43h-.2s-.18,.06-.38,.14c-.21,.06-.44,.1-.72,.1-.35,0-1.07-.19-1.07-.19l-.29-.05-.4-.38s-.66-.62-.66-1.63c0-.84,.72-2.09,.72-2.09l.45-.72,.17-.11s.19-.21,.34-.36c.44-.36,1.12-.6,1.7-.6s.9,.25,1.08,.53c.03,.05,.05,.1,.05,.15,0,.03-.01,.06-.02,.09-.04,.1-.16,.15-.27,.15Z"/><path class="c" d="M32.01,141.19c0,.34-.21,.73-.49,.73-.11,0-.23-.13-.23-.25,0-.43,.15-1.32,.15-1.32l-.06-.31-.02-.39-.04-.24c-.08-.38-.51-.73-.94-.73-.05,0-.12,0-.2,0-.16,0-.37,.03-.52,.16-.3,.27-.5,.58-.5,.58v.32l-.14,.61-.08,1.25c-.01,.14-.11,.26-.25,.26-.22,0-.28-.11-.28-.43v-.39l.05-.2v-.56l.04-.48-.04-.22,.08-1.72c.02-.3,.04-.6,.04-.92s-.06-.65-.06-1.06v-.13c0-.39,.02-.87,.34-.87,.14,0,.28,.25,.3,.39l.02,.21-.05,.2,.05,.29v.25s-.08,.64-.08,1.14c0,.25,.03,.64,.03,.64l.05,.28,.29,.03,.32-.21,.29-.08,.38-.12,.27,.1s.63,0,.95,.87c.16,.46,.27,1.11,.31,1.79l.02,.52v.02Z"/><path class="c" d="M37.18,141.26s-.06,.02-.1,.02c-.09,0-.17-.03-.17-.03l-.4-.3-.8,.17c-.31,.07-.6,.09-.84,.09-.37,0-.54-.32-.76-.62-.2-.25-.36-.54-.36-.71,0-.92,.66-1.71,.66-1.71l.24-.36,.18-.08s.25-.18,.5-.18c.18,0,.44,.14,.61,.14,.05,0,.09,0,.12-.04l.19-.2s.09-.04,.17-.04c.18,0,.42,.55,.47,.97l.05,.43,.21,.94v.44l.15,.36s0,.66-.12,.71Zm-.82-2.06l-.21-.34-.09-.19s-.36-.25-.73-.25c-.5,0-1.07,.54-1.07,1.14,0,.18,.15,.5,.15,.5l.27,.21,.17,.15s.25,.13,.36,.13c.73,0,1.22-.38,1.22-1.02,0-.14-.07-.33-.07-.33Z"/><path class="c" d="M41.81,137.75c-.85,.18-1.16,.67-1.16,.67l-.05,.3-.21,.5s-.04,.12-.04,.41c0,.51,.17,.94,.17,1.13,0,.22-.11,.62-.36,.62-.1,0-.16-.16-.21-.28l-.09-.26-.11-.21,.02-.6-.04-.19v-.38l-.02-.25,.08-.47-.05-.75-.11-.57-.04-.66v-.02c0-.15,.11-.29,.3-.29,.1,0,.26,.12,.26,.22v.09l.07,.24v.18l.03,.1c.07,.17,.2,.32,.35,.32h.04c.49-.07,.62-.64,1.14-.64,.35,0,.65,.13,.65,.32,0,.2-.28,.4-.62,.47Z"/><path class="c" d="M45.17,136.78v.22l-.06,.41-.03,1.37-.09,.7-.04,.92v.5l-.07,.25-.05,.42c-.04,.28-.2,.63-.44,.63-.15,0-.26-.36-.26-.63s.18-.73,.2-.98l.03-.78-.02-.29,.17-.78,.03-1.32,.09-.47,.02-.43s.1-.28,.12-.48c0-.09,0-.25,0-.37v-.22l.09-.32,.03-.22c.03-.14,.16-.19,.29-.19s.15,.26,.15,.48c0,.16-.01,.29-.01,.29l-.16,1.29Z"/><path class="c" d="M50.19,139.54c-.55,0-1.21-.2-1.63-.2-.44,0-.64,.2-.64,.42,0,.08,.03,.17,.09,.25,.3,.46,1.05,.84,1.05,.84l.33,.1,.26,.02,.13,.13,.17,.14,.02,.33-.1,.1-.08,.13s-.13,.06-.19,.06c-.45,0-1.08-.41-1.08-.41l-.35-.21-.08-.17-.56-.69s-.14-.27-.14-.45,.08-.48,.08-.48l.02-.6c0-.12,.12-.61,.12-.61,0,0,.46-.53,.77-.75,.23-.15,.49-.23,.49-.23l.22-.1,.51-.05c.76,0,1.2,.67,1.2,1.74,0,.36-.26,.69-.61,.69Zm-.48-1.78c-.07-.03-.17-.04-.25-.04s-.15,0-.15,0l-.24,.17-.3,.02s-.42,.28-.42,.48c0,.11,.08,.24,.2,.33,.04,.03,.07,.04,.11,.04,.09,0,.18-.06,.29-.06,.03,0,.05,0,.08,0l.28,.09,.27-.03c.55-.08,.66-.14,.66-.45,0-.29-.25-.47-.53-.57Z"/><path class="c" d="M55.39,138.36l-.41-.5-.22-.1s-.78,.06-.78,.58c0,.16,.08,.28,.23,.36l.58,.27,.14,.19,.23,.11,.17,.45s.09,.42,.09,.54c0,.51-.19,.78-.19,.78l-.09,.25-.54,.3s-.29,.24-.76,.24c-.42,0-1.03-.19-1.54-.43-.16-.09-.36-.3-.36-.53,0-.1,.22-.21,.22-.21l.23,.05h.23l.44,.24h.24s.43,.17,.6,.17c.35,0,.98-.44,.98-.89,0-.19-.15-.38-.43-.62-.68-.59-1.05-.57-1.05-1.06,0-.6,.2-.92,.2-.92l.32-.3,.26-.06s.44-.11,.64-.11c.42,0,.94,.44,.94,.68,0,.52-.37,.52-.37,.52Z"/><path class="c" d="M65.05,137.67l-.68,.6c-.08,.07-.11,.13-.11,.19,0,.03,0,.07,.03,.11l.6,1.36,.36,.43s.05,.11,.05,.19c0,.28-.18,.7-.35,.7-.08,0-.18-.17-.25-.29l-.32-.56-.1-.38-.27-.3-.07-.23-.3-.61c-.08-.17-.12-.22-.27-.22-.12,0-.44,.21-.44,.21l-.25,.02c-.2,.03-.41,.45-.41,.7v.03l.13,1.54v.4c0,.12-.21,.54-.44,.54-.11,0-.2-.2-.2-.32l-.04-2.12-.07-.53v-.32l-.06-.6,.06-.24-.07-.77-.08-.49,.03-.19-.03-.9v-.02c0-.34,.32-.7,.5-.71l1.11-.09,.55-.03,.25,.14,.53,.18,.18,.21s.84,.76,.84,1.58c0,.31-.15,.55-.41,.79Zm-.47-1.4l-.37-.43c-.15-.18-.29-.35-.49-.35-.03,0-.06,0-.09,.01l-.34,.08-.41-.04s-.08-.01-.11-.01c-.35,0-.64,.22-.65,.39v.25l.17,1.26,.04,.55c0,.14,.09,.31,.18,.31,.18,0,.88-.5,.88-.5l.28-.03,.68-.32s.51-.38,.51-.56c0-.16-.11-.42-.28-.61Z"/><path class="c" d="M67.33,141.43c-.31,0-.53-.27-.53-.66,0-.57,.37-.58,.37-.58l.41-.04,.11,.11s.29,.08,.29,.39c0,.41-.32,.78-.65,.78Z"/><path class="c" d="M75.75,140.71l-.69,.23s-.75,.59-1.22,.59c-.36,0-.64-.28-.64-.54,0-.13-.04-.26-.04-.4,0-.05,0-.1,.02-.16l.15-.74,.12-.21,.21-1.45,.08-.27v-.55l.07-.2,.06-.71,.15-.57,.05-.16,.03-.34,.13-.13,.09-.18,.31-.06,.17,.05,.15-.05s1.08,.24,1.56,.5c.82,.49,1.49,1.48,1.49,2.26,0,1.17-.93,2.65-2.25,3.09Zm-.86-5.12c-.1,0-.38,.4-.38,.4v.27l-.14,.66-.03,.39-.14,.6,.03,.24-.22,1.5c-.04,.22-.07,.46-.07,.65,0,.24,.05,.41,.23,.43,.11,.01,.76-.35,.76-.35,0,0,.66-.29,1.04-.54,.33-.21,.78-.59,.78-.59l.15-.46,.15-.16,.09-.28s.23-.32,.23-.47c0-1.29-1.1-2.29-2.48-2.29Z"/><path class="c" d="M83.1,141.26s-.06,.02-.1,.02c-.09,0-.17-.03-.17-.03l-.4-.3-.8,.17c-.31,.07-.6,.09-.84,.09-.37,0-.54-.32-.76-.62-.2-.25-.36-.54-.36-.71,0-.92,.66-1.71,.66-1.71l.24-.36,.18-.08s.25-.18,.5-.18c.18,0,.44,.14,.61,.14,.05,0,.09,0,.12-.04l.19-.2s.09-.04,.17-.04c.18,0,.42,.55,.47,.97l.05,.43,.21,.94v.44l.15,.36s0,.66-.12,.71Zm-.82-2.06l-.21-.34-.09-.19s-.36-.25-.73-.25c-.5,0-1.07,.54-1.07,1.14,0,.18,.15,.5,.15,.5l.27,.21,.17,.15s.25,.13,.36,.13c.73,0,1.22-.38,1.22-1.02,0-.14-.07-.33-.07-.33Z"/><path class="c" d="M87.73,137.75c-.85,.18-1.16,.67-1.16,.67l-.05,.3-.21,.5s-.04,.12-.04,.41c0,.51,.17,.94,.17,1.13,0,.22-.11,.62-.36,.62-.1,0-.16-.16-.21-.28l-.09-.26-.11-.21,.02-.6-.04-.19v-.38l-.02-.25,.08-.47-.05-.75-.11-.57-.04-.66v-.02c0-.15,.11-.29,.3-.29,.1,0,.26,.12,.26,.22v.09l.07,.24v.18l.03,.1c.07,.17,.2,.32,.35,.32h.04c.49-.07,.62-.64,1.14-.64,.35,0,.65,.13,.65,.32,0,.2-.28,.4-.62,.47Z"/><path class="c" d="M95.63,138.53l-.31,.54-.15,.17-.13,.31-.29,.35s-.3,.3-.45,.5c-.14,.17-.21,.47-.33,.47-.13,0-.41-.24-.41-.24l-.14-.1v-.19l-.08-.41-.18-.41-.06-.27c-.03-.13-.14-.21-.27-.21-.11,0-.23,.05-.35,.16-.26,.25-.52,.62-.85,1.02-.32,.4-.54,1.03-.85,1.03-.06,0-.1-.17-.1-.17l-.08-.12-.04-.31-.22-.74-.26-1.6-.07-.63s-.14-.4-.14-.62c0-.09,0-.2,.21-.2,.09,0,.33,.5,.33,.5l.11,.21,.02,.23,.3,1.34c.08,.4,.24,.73,.29,.73,.13,0,.96-1.01,1.46-1.76,.19-.29,.28-.55,.51-.58l.24-.02,.03,.19,.18,.58,.21,1.02s.09,.32,.25,.32c.09,0,.24-.36,.24-.36,0,0,.15-.11,.29-.26,.22-.24,.67-.84,.91-1.24,.13-.21,.26-.3,.36-.3,.14,0,.24,.16,.24,.36,0,.19-.27,.43-.42,.71Z"/><path class="c" d="M98.43,135.9h-.05c-.13,0-.26-.03-.3-.11l-.12-.2,.05-.28,.24-.24,.13-.2,.21,.02c.17,.03,.26,.12,.26,.34,0,.38-.22,.66-.42,.67Zm.42,2.16l.06,1.15-.05,.23s-.1,.36-.1,.6c0,.26,.09,.67,.09,.67l-.05,.21c-.05,.2-.19,.38-.35,.38-.2,0-.25-.13-.25-.4,0-.07,.06-.25,.06-.4l-.03-.65s-.06-.57-.06-1.12c0-.33,.02-.65,.09-.84l.09-.27,.1-.29c.04-.1,.16-.21,.26-.21,.16,0,.17,.26,.17,.26l.05,.16-.08,.52Z"/><path class="c" d="M105.04,139.86l-.03,.47v.06c0,.18,.03,.47,.03,.47l-.18,.16-.13,.15s-.38-.01-.38-.22h0l.02-.32-.05-.31,.06-.54v-.84c0-.11-.16-.83-.73-.83-.38,0-.83,.35-.83,.35l-.16,.2-.36,.28s-.13,.28-.24,.46c-.09,.16-.12,.5-.12,.72,0,.5,.12,.45,.12,.87,0,.22-.09,.58-.36,.58-.15,0-.31-.25-.31-.25l.04-.46-.04-.35,.07-.55-.05-1.73,.08-.37-.02-.32,.09-.11,.08-.16s.43,.05,.42,.16l-.03,.39v.04c0,.08,.05,.17,.22,.17,.16,0,.44-.29,.44-.29l.24-.11s.33-.27,.76-.27c.35,0,.66,.2,.99,.66,.21,.28,.32,.5,.32,.63v.23l.07,.36-.03,.62Z"/></g></svg>