<svg id="Capa_1" data-name="Capa 1" xmlns="http://www.w3.org/2000/svg" viewBox="0 0 65.06 69.48"><defs><style>.cls-1{fill:#edebec;}.cls-2{fill:#efeded;}</style></defs><path class="cls-1" d="M32.4,64.42C16.7,64.11,5.29,53.52,4.28,36.66,3.38,21.61,17.7,8.17,33.1,8.48,48,8.77,60.57,21.38,60.45,35.87,60.3,52.53,48.51,64.53,32.4,64.42ZM33,58.69A22.46,22.46,0,0,0,55,36.33c-.12-11.72-10.63-22-22.51-22.09C20.92,14.18,9.88,24.77,9.62,36.19S21.12,58.78,33,58.69Z"/><path class="cls-2" d="M42.43,29.35a16.69,16.69,0,0,1-2.16,3.08c-3.18,3-2.79,5.59.19,8.42,1.4,1.33,3.12,3.12,1.38,5.1S38,46.49,36.76,45c-3.61-4.43-6.57-3.06-9.67.53-1.11,1.29-2.71,2.17-4.29.66s-1-3.16.29-4.37c3.34-3.22,4.7-6.31.58-10-1.16-1-2.23-2.79-.77-4.37s3.26-.83,4.37.42c3.4,3.84,6.51,3.7,9.88,0a3.06,3.06,0,0,1,4.44-.49C42,27.72,42.09,28.5,42.43,29.35Z"/></svg>