<svg id="Capa_1" data-name="Capa 1" xmlns="http://www.w3.org/2000/svg" viewBox="0 0 666.5 82.89"
      preserveAspectRatio="none">
    <defs>
        <style>.cls-1{fill:#30c4b5;}</style>
    </defs>
    <path class="cls-1"
          d="M45.56,72C73.63,76,102.1,79.2,130.73,77.36c27.67-1.77,53.17-12,81-12.74,28.23-.73,56.54,3.07,83.89,7.91C341.57,80.61,378,70.69,401,60.46V.07H0V64.81C15,67.81,30.48,70,45.56,72Z"/>
    <path class="cls-1"
          d="M666.5,64.81V.07h-401V60.46c23,10.23,59.43,20.15,105.39,12.07,27.34-4.84,55.65-8.64,83.88-7.91,27.83.74,53.34,11,81,12.74C564.4,79.2,592.87,76,620.94,72,636,70,651.5,67.81,666.5,64.81Z"/>
</svg>