<svg id="svg" version="1.1" xmlns="http://www.w3.org/2000/svg" xmlns:xlink="http://www.w3.org/1999/xlink" preserveAspectRatio="none" width="400" height="300.42780748663102" viewBox="0, 0, 400,160.42780748663102"><g id="svgg"><path id="path0" d="M-0.000 58.384 L -0.000 116.768 0.958 116.640 C 2.587 116.422,5.064 116.134,5.458 116.117 C 5.665 116.108,5.833 116.040,5.833 115.967 C 5.833 115.893,5.913 115.833,6.010 115.833 C 6.107 115.833,6.133 115.927,6.069 116.042 C 5.975 116.208,5.996 116.208,6.176 116.042 C 6.299 115.927,6.568 115.833,6.773 115.833 C 6.979 115.833,7.198 115.750,7.261 115.649 C 7.340 115.520,7.418 115.533,7.518 115.691 C 7.604 115.826,7.663 115.841,7.664 115.728 C 7.666 115.623,8.094 115.485,8.625 115.419 C 9.152 115.353,9.638 115.213,9.706 115.108 C 9.789 114.978,9.830 114.997,9.833 115.167 C 9.837 115.346,9.874 115.360,9.966 115.216 C 10.091 115.020,11.051 114.813,11.792 114.824 C 11.998 114.827,12.167 114.755,12.167 114.665 C 12.167 114.574,12.310 114.500,12.486 114.500 C 12.662 114.500,12.831 114.435,12.861 114.355 C 12.908 114.233,14.196 114.018,14.968 114.004 C 15.088 114.002,15.140 113.925,15.083 113.833 C 15.025 113.739,15.165 113.667,15.407 113.667 C 15.641 113.667,15.833 113.605,15.833 113.530 C 15.833 113.455,16.093 113.406,16.411 113.422 C 16.729 113.438,16.950 113.387,16.901 113.309 C 16.853 113.231,17.043 113.167,17.323 113.167 C 17.604 113.167,17.833 113.096,17.833 113.010 C 17.833 112.924,18.171 112.803,18.583 112.741 C 18.996 112.679,19.333 112.562,19.333 112.481 C 19.333 112.400,19.615 112.332,19.958 112.331 C 20.442 112.329,20.527 112.289,20.333 112.154 C 20.147 112.024,20.231 112.003,20.667 112.071 C 20.987 112.122,21.146 112.116,21.018 112.060 C 20.754 111.942,21.684 111.583,22.695 111.412 C 23.046 111.353,23.333 111.236,23.333 111.152 C 23.333 111.068,23.525 111.000,23.760 111.000 C 23.994 111.000,24.144 110.932,24.093 110.849 C 24.042 110.766,24.150 110.737,24.333 110.785 C 24.520 110.834,24.667 110.790,24.667 110.686 C 24.667 110.584,24.859 110.500,25.093 110.500 C 25.328 110.500,25.476 110.430,25.423 110.344 C 25.370 110.258,25.665 110.137,26.078 110.075 C 26.492 110.013,26.789 109.896,26.738 109.815 C 26.688 109.733,26.801 109.667,26.990 109.667 C 27.179 109.667,27.333 109.590,27.333 109.497 C 27.333 109.403,27.521 109.361,27.750 109.402 C 27.979 109.444,28.167 109.408,28.167 109.322 C 28.167 109.237,28.279 109.167,28.417 109.167 C 28.554 109.167,28.668 109.073,28.669 108.958 C 28.671 108.819,28.726 108.833,28.833 109.000 C 28.922 109.138,28.996 109.170,28.997 109.073 C 29.001 108.846,30.657 108.096,31.042 108.148 C 31.202 108.170,31.333 108.126,31.333 108.051 C 31.333 107.898,32.347 107.405,32.542 107.463 C 32.610 107.483,32.667 107.421,32.667 107.323 C 32.667 107.226,32.735 107.189,32.819 107.241 C 32.903 107.293,32.997 107.264,33.027 107.177 C 33.058 107.089,33.344 106.972,33.662 106.917 C 33.981 106.861,34.281 106.752,34.329 106.675 C 34.456 106.471,36.009 105.667,36.275 105.667 C 36.399 105.667,36.500 105.592,36.500 105.500 C 36.500 105.408,36.579 105.333,36.677 105.333 C 36.774 105.333,36.806 105.427,36.747 105.542 C 36.689 105.656,36.750 105.619,36.881 105.458 C 37.013 105.298,37.243 105.167,37.393 105.167 C 37.544 105.167,37.667 105.095,37.667 105.008 C 37.667 104.920,37.929 104.799,38.249 104.739 C 38.569 104.679,38.789 104.563,38.739 104.482 C 38.688 104.400,38.807 104.333,39.002 104.333 C 39.197 104.333,39.470 104.221,39.607 104.083 C 39.745 103.946,40.006 103.833,40.188 103.833 C 40.371 103.833,40.473 103.758,40.417 103.667 C 40.360 103.575,40.454 103.500,40.625 103.500 C 40.796 103.500,41.082 103.390,41.260 103.255 C 41.438 103.121,41.707 103.008,41.857 103.005 C 42.008 103.002,42.176 102.883,42.231 102.739 C 42.286 102.596,42.407 102.526,42.500 102.583 C 42.593 102.641,42.714 102.571,42.769 102.428 C 42.823 102.285,42.930 102.207,43.006 102.254 C 43.082 102.300,43.191 102.263,43.248 102.169 C 43.306 102.076,43.555 101.999,43.802 101.997 C 44.152 101.995,44.196 101.960,44.000 101.833 C 43.798 101.703,43.822 101.671,44.125 101.669 C 44.331 101.668,44.501 101.573,44.503 101.458 C 44.504 101.319,44.559 101.333,44.667 101.500 C 44.756 101.638,44.829 101.664,44.831 101.558 C 44.834 101.306,45.926 100.667,46.353 100.667 C 46.536 100.667,46.648 100.605,46.602 100.531 C 46.529 100.412,47.514 99.708,47.625 99.799 C 47.779 99.925,47.997 99.797,47.899 99.638 C 47.818 99.507,47.870 99.478,48.056 99.550 C 48.209 99.608,48.333 99.584,48.333 99.495 C 48.333 99.406,48.432 99.333,48.552 99.333 C 48.672 99.333,48.935 99.180,49.135 98.994 C 49.370 98.775,49.501 98.730,49.503 98.869 C 49.504 99.020,49.552 99.009,49.663 98.833 C 49.750 98.696,49.902 98.583,50.000 98.583 C 50.098 98.583,50.232 98.508,50.298 98.417 C 50.514 98.113,51.177 97.820,51.382 97.938 C 51.493 98.001,51.528 97.993,51.461 97.918 C 51.393 97.844,51.506 97.695,51.711 97.588 C 51.916 97.481,52.440 97.194,52.875 96.950 C 53.310 96.706,53.667 96.559,53.667 96.624 C 53.667 96.688,53.783 96.574,53.926 96.370 C 54.069 96.167,54.285 96.000,54.406 96.000 C 54.527 96.000,54.715 95.892,54.824 95.761 C 54.934 95.629,55.244 95.473,55.513 95.414 C 55.782 95.355,55.960 95.237,55.908 95.153 C 55.856 95.069,55.968 95.000,56.157 95.000 C 56.346 95.000,56.500 94.925,56.500 94.833 C 56.500 94.742,56.572 94.667,56.659 94.667 C 56.747 94.667,57.093 94.480,57.429 94.252 C 57.765 94.025,58.117 93.886,58.212 93.945 C 58.307 94.003,58.338 93.976,58.281 93.883 C 58.223 93.790,58.455 93.572,58.796 93.399 C 59.138 93.225,59.454 93.046,59.500 93.000 C 59.546 92.954,59.733 92.893,59.917 92.863 C 60.100 92.834,60.333 92.703,60.435 92.572 C 60.537 92.441,60.682 92.333,60.758 92.333 C 60.833 92.333,61.081 92.165,61.308 91.958 C 61.535 91.752,61.662 91.696,61.591 91.833 C 61.519 91.971,61.657 91.865,61.897 91.599 C 62.159 91.309,62.335 91.209,62.339 91.349 C 62.343 91.523,62.401 91.508,62.565 91.292 C 62.687 91.131,62.872 91.000,62.977 91.000 C 63.081 91.000,63.167 90.925,63.167 90.833 C 63.167 90.742,63.279 90.667,63.417 90.667 C 63.554 90.667,63.817 90.517,64.000 90.333 C 64.183 90.150,64.446 90.000,64.583 90.000 C 64.721 90.000,64.833 89.921,64.833 89.823 C 64.833 89.726,64.895 89.685,64.970 89.732 C 65.046 89.778,65.232 89.670,65.385 89.491 C 65.538 89.313,65.801 89.167,65.969 89.167 C 66.138 89.167,66.451 88.979,66.667 88.750 C 66.882 88.521,67.158 88.333,67.279 88.333 C 67.401 88.333,67.500 88.264,67.500 88.180 C 67.500 88.096,67.726 87.977,68.001 87.916 C 68.277 87.856,68.460 87.737,68.408 87.653 C 68.356 87.569,68.423 87.500,68.556 87.500 C 68.689 87.500,68.843 87.383,68.898 87.239 C 68.953 87.096,69.068 87.022,69.154 87.075 C 69.240 87.129,69.360 87.091,69.421 86.992 C 69.537 86.806,70.159 86.524,70.372 86.562 C 70.439 86.574,70.606 86.423,70.743 86.227 C 70.988 85.877,72.177 85.167,72.517 85.167 C 72.760 85.167,73.173 84.728,73.048 84.603 C 72.991 84.546,73.013 84.494,73.097 84.487 C 73.620 84.444,73.910 84.322,74.037 84.094 C 74.118 83.951,74.334 83.833,74.518 83.833 C 74.702 83.833,74.807 83.758,74.750 83.667 C 74.693 83.574,74.818 83.499,75.032 83.497 C 75.341 83.495,75.368 83.463,75.167 83.333 C 74.928 83.179,75.288 83.074,75.595 83.208 C 75.647 83.231,75.764 83.119,75.853 82.958 C 75.943 82.798,76.165 82.667,76.347 82.667 C 76.529 82.667,76.720 82.554,76.773 82.417 C 76.826 82.279,76.967 82.167,77.087 82.167 C 77.207 82.167,77.332 82.088,77.364 81.991 C 77.396 81.894,77.542 81.798,77.688 81.776 C 77.834 81.755,78.082 81.609,78.238 81.452 C 78.395 81.295,78.631 81.167,78.762 81.167 C 78.893 81.167,79.000 81.092,79.000 81.000 C 79.000 80.908,79.104 80.833,79.232 80.833 C 79.360 80.833,79.508 80.720,79.561 80.582 C 79.614 80.443,79.717 80.350,79.790 80.373 C 79.863 80.397,80.107 80.246,80.331 80.038 C 80.555 79.829,80.839 79.697,80.961 79.744 C 81.084 79.791,81.138 79.755,81.082 79.665 C 81.026 79.574,81.073 79.500,81.185 79.500 C 81.298 79.500,81.509 79.393,81.654 79.263 C 81.798 79.133,82.029 79.002,82.167 78.971 C 82.304 78.941,82.516 78.784,82.636 78.622 C 82.757 78.460,82.924 78.369,83.006 78.420 C 83.088 78.471,83.251 78.360,83.368 78.173 C 83.485 77.986,83.708 77.833,83.864 77.833 C 84.019 77.833,84.194 77.757,84.252 77.664 C 84.309 77.571,84.438 77.545,84.537 77.606 C 84.639 77.669,84.671 77.641,84.610 77.543 C 84.516 77.392,84.847 77.142,85.199 77.098 C 85.262 77.090,85.471 76.915,85.664 76.708 C 85.856 76.502,86.123 76.333,86.256 76.333 C 86.390 76.333,86.500 76.258,86.500 76.167 C 86.500 76.075,86.556 76.008,86.625 76.018 C 86.910 76.059,87.489 75.784,87.405 75.648 C 87.355 75.566,87.425 75.500,87.562 75.500 C 87.698 75.500,87.909 75.404,88.030 75.286 C 88.490 74.840,89.292 74.347,89.394 74.449 C 89.452 74.508,89.500 74.468,89.500 74.361 C 89.500 74.254,89.612 74.167,89.750 74.167 C 89.888 74.167,90.000 74.100,90.000 74.018 C 90.000 73.936,90.189 73.822,90.419 73.764 C 90.826 73.662,91.220 73.396,91.858 72.792 C 92.028 72.631,92.282 72.500,92.422 72.500 C 92.562 72.500,92.720 72.387,92.773 72.250 C 92.826 72.112,93.011 72.000,93.184 72.000 C 93.358 72.000,93.500 71.925,93.500 71.833 C 93.500 71.742,93.585 71.667,93.690 71.667 C 93.794 71.667,93.980 71.535,94.101 71.375 C 94.264 71.161,94.324 71.145,94.328 71.316 C 94.331 71.460,94.492 71.377,94.750 71.099 C 94.985 70.845,95.172 70.744,95.178 70.866 C 95.184 70.986,95.268 70.921,95.363 70.723 C 95.470 70.503,95.759 70.322,96.107 70.257 C 96.420 70.198,96.632 70.079,96.578 69.992 C 96.524 69.905,96.597 69.833,96.740 69.833 C 96.883 69.833,97.000 69.761,97.000 69.672 C 97.000 69.583,97.125 69.558,97.277 69.617 C 97.464 69.688,97.515 69.659,97.434 69.528 C 97.358 69.405,97.433 69.333,97.639 69.333 C 97.818 69.333,98.008 69.221,98.060 69.083 C 98.113 68.946,98.313 68.833,98.505 68.833 C 98.696 68.833,98.812 68.766,98.761 68.684 C 98.684 68.560,99.010 68.321,99.333 68.264 C 99.379 68.256,99.653 68.081,99.942 67.875 C 100.232 67.669,100.580 67.500,100.716 67.500 C 100.853 67.500,101.009 67.383,101.064 67.239 C 101.119 67.096,101.240 67.026,101.332 67.083 C 101.424 67.140,101.500 67.110,101.500 67.018 C 101.500 66.925,101.759 66.726,102.076 66.576 C 102.392 66.426,102.739 66.197,102.846 66.068 C 102.953 65.939,103.144 65.833,103.270 65.833 C 103.397 65.833,103.500 65.753,103.500 65.655 C 103.500 65.550,103.644 65.523,103.854 65.590 C 104.093 65.666,104.171 65.642,104.094 65.518 C 104.030 65.413,104.093 65.333,104.240 65.333 C 104.383 65.333,104.653 65.181,104.839 64.994 C 105.026 64.807,105.251 64.699,105.339 64.754 C 105.428 64.808,105.500 64.774,105.500 64.677 C 105.500 64.579,105.612 64.500,105.750 64.500 C 105.888 64.500,106.000 64.417,106.000 64.316 C 106.000 64.214,106.109 64.173,106.241 64.224 C 106.385 64.279,106.523 64.192,106.580 64.009 C 106.640 63.822,106.905 63.659,107.256 63.593 C 107.573 63.534,107.834 63.432,107.834 63.367 C 107.835 63.303,108.063 63.120,108.342 62.962 C 108.642 62.791,108.803 62.757,108.737 62.878 C 108.675 62.991,108.826 62.875,109.072 62.621 C 109.319 62.367,109.591 62.203,109.677 62.256 C 109.763 62.309,109.833 62.276,109.833 62.182 C 109.833 62.088,109.946 62.054,110.083 62.106 C 110.221 62.159,110.333 62.128,110.333 62.037 C 110.333 61.946,110.530 61.743,110.771 61.585 C 111.059 61.396,111.161 61.376,111.072 61.524 C 110.896 61.817,111.522 61.346,111.719 61.038 C 111.793 60.922,111.924 60.870,112.010 60.923 C 112.096 60.976,112.167 60.936,112.167 60.833 C 112.167 60.731,112.232 60.687,112.311 60.736 C 112.390 60.785,112.592 60.675,112.759 60.490 C 112.926 60.306,113.161 60.193,113.281 60.239 C 113.402 60.285,113.500 60.246,113.500 60.152 C 113.500 60.057,113.567 60.022,113.649 60.073 C 113.731 60.123,113.840 60.057,113.890 59.925 C 113.941 59.793,114.249 59.635,114.575 59.574 C 114.900 59.513,115.167 59.396,115.167 59.315 C 115.167 59.233,115.284 59.167,115.427 59.167 C 115.577 59.167,115.637 59.088,115.570 58.978 C 115.500 58.865,115.544 58.820,115.682 58.866 C 115.807 58.908,116.056 58.805,116.236 58.638 C 116.416 58.470,116.693 58.333,116.853 58.333 C 117.012 58.333,117.255 58.221,117.393 58.083 C 117.530 57.946,117.780 57.833,117.948 57.833 C 118.116 57.833,118.456 57.646,118.703 57.417 C 118.950 57.188,119.298 56.978,119.476 56.951 C 119.655 56.923,119.935 56.792,120.099 56.659 C 120.263 56.526,120.345 56.503,120.282 56.609 C 120.195 56.755,120.265 56.755,120.570 56.611 C 120.804 56.501,120.900 56.375,120.798 56.312 C 120.628 56.206,121.610 55.900,121.887 55.972 C 121.963 55.992,121.977 55.931,121.919 55.837 C 121.861 55.744,121.893 55.657,121.990 55.646 C 122.087 55.634,122.242 55.606,122.333 55.583 C 122.425 55.560,122.594 55.532,122.708 55.521 C 122.823 55.509,123.126 55.320,123.382 55.099 C 123.638 54.879,124.181 54.601,124.590 54.480 C 124.999 54.359,125.333 54.204,125.333 54.136 C 125.333 54.067,125.446 54.054,125.583 54.106 C 125.721 54.159,125.833 54.119,125.833 54.018 C 125.833 53.916,125.940 53.833,126.069 53.833 C 126.199 53.833,126.331 53.761,126.361 53.671 C 126.413 53.521,126.908 53.379,127.500 53.343 C 127.701 53.331,127.706 53.300,127.528 53.188 C 127.378 53.092,127.526 53.012,127.986 52.938 C 128.361 52.878,128.667 52.755,128.667 52.665 C 128.667 52.574,128.779 52.500,128.917 52.500 C 129.054 52.500,129.167 52.434,129.167 52.352 C 129.167 52.271,129.504 52.154,129.917 52.092 C 130.329 52.030,130.667 51.913,130.667 51.831 C 130.667 51.749,130.929 51.633,131.249 51.573 C 131.569 51.513,131.789 51.397,131.739 51.315 C 131.660 51.188,131.892 51.130,132.273 51.181 C 132.332 51.189,132.429 51.116,132.489 51.018 C 132.549 50.921,132.745 50.819,132.924 50.791 C 133.103 50.763,133.344 50.682,133.458 50.610 C 133.573 50.539,133.667 50.528,133.667 50.585 C 133.667 50.643,133.781 50.576,133.921 50.436 C 134.062 50.296,134.287 50.223,134.421 50.275 C 134.556 50.327,134.667 50.278,134.667 50.167 C 134.667 50.055,134.779 50.007,134.917 50.060 C 135.054 50.113,135.167 50.084,135.167 49.995 C 135.167 49.906,135.279 49.833,135.417 49.833 C 135.554 49.833,135.667 49.765,135.667 49.681 C 135.667 49.598,135.967 49.479,136.333 49.417 C 136.700 49.355,137.000 49.244,137.000 49.171 C 137.000 49.098,137.339 48.987,137.753 48.925 C 138.167 48.863,138.463 48.742,138.410 48.656 C 138.357 48.570,138.456 48.500,138.629 48.500 C 138.803 48.500,138.997 48.448,139.060 48.384 C 139.187 48.258,139.463 48.183,140.290 48.050 C 140.588 48.003,140.789 47.897,140.739 47.815 C 140.688 47.734,140.801 47.667,140.990 47.667 C 141.179 47.667,141.333 47.597,141.333 47.511 C 141.333 47.425,141.516 47.389,141.739 47.429 C 141.963 47.470,142.192 47.427,142.249 47.335 C 142.306 47.242,142.536 47.167,142.760 47.167 C 142.984 47.167,143.167 47.098,143.167 47.013 C 143.167 46.929,143.410 46.807,143.708 46.742 C 144.006 46.678,144.305 46.540,144.372 46.437 C 144.460 46.304,144.496 46.309,144.497 46.455 C 144.499 46.596,144.686 46.557,145.083 46.333 C 145.404 46.153,145.667 46.051,145.667 46.107 C 145.667 46.162,145.794 46.105,145.949 45.979 C 146.192 45.782,146.211 45.785,146.091 46.000 C 145.977 46.203,145.993 46.211,146.176 46.042 C 146.299 45.927,146.539 45.833,146.710 45.833 C 146.880 45.833,146.979 45.768,146.930 45.687 C 146.843 45.548,147.939 45.273,148.538 45.284 C 148.696 45.287,148.786 45.224,148.736 45.145 C 148.687 45.065,148.834 45.000,149.064 45.000 C 149.293 45.000,149.521 44.935,149.570 44.855 C 149.619 44.775,149.886 44.736,150.163 44.768 C 150.440 44.800,150.667 44.753,150.667 44.663 C 150.667 44.574,150.817 44.500,151.000 44.500 C 151.183 44.500,151.333 44.435,151.333 44.357 C 151.333 44.278,151.721 44.167,152.196 44.111 C 152.670 44.055,153.101 43.947,153.154 43.872 C 153.207 43.797,153.471 43.720,153.741 43.700 C 154.011 43.681,154.276 43.593,154.331 43.504 C 154.386 43.415,154.629 43.379,154.871 43.423 C 155.114 43.467,155.359 43.427,155.416 43.335 C 155.473 43.242,155.690 43.167,155.899 43.167 C 156.107 43.167,156.334 43.110,156.402 43.042 C 156.543 42.901,158.218 42.522,159.292 42.388 C 159.681 42.339,160.000 42.234,160.000 42.154 C 160.000 42.074,160.225 42.053,160.500 42.108 C 160.819 42.172,161.000 42.140,161.000 42.021 C 161.000 41.918,161.248 41.833,161.550 41.833 C 161.853 41.833,162.201 41.740,162.324 41.625 C 162.504 41.458,162.525 41.458,162.431 41.625 C 162.367 41.740,162.393 41.833,162.490 41.833 C 162.587 41.833,162.667 41.768,162.667 41.688 C 162.667 41.608,163.135 41.490,163.707 41.425 C 164.279 41.361,164.856 41.220,164.989 41.112 C 165.177 40.960,165.203 40.963,165.105 41.125 C 165.037 41.240,165.060 41.333,165.157 41.333 C 165.254 41.333,165.333 41.258,165.333 41.167 C 165.333 41.075,165.676 41.000,166.094 41.000 C 166.513 41.000,166.989 40.929,167.152 40.841 C 167.575 40.615,172.869 39.879,173.739 39.926 C 173.974 39.938,174.167 39.892,174.167 39.823 C 174.167 39.754,174.560 39.658,175.042 39.610 C 175.523 39.563,176.104 39.490,176.333 39.450 C 176.960 39.340,181.851 39.087,182.360 39.139 C 182.604 39.164,182.857 39.097,182.922 38.991 C 183.010 38.849,183.080 38.858,183.185 39.024 C 183.290 39.190,183.329 39.195,183.331 39.042 C 183.333 38.878,184.879 38.833,190.500 38.833 C 194.442 38.833,197.667 38.897,197.667 38.974 C 197.667 39.052,199.142 39.168,200.945 39.232 C 202.748 39.296,204.304 39.400,204.403 39.462 C 204.630 39.603,204.690 39.610,205.968 39.641 C 206.593 39.656,206.979 39.732,206.921 39.827 C 206.865 39.917,207.027 39.979,207.286 39.969 C 208.166 39.935,210.990 40.215,210.918 40.331 C 210.879 40.394,211.148 40.458,211.515 40.472 C 212.285 40.502,213.159 40.642,213.362 40.767 C 213.438 40.815,214.007 40.923,214.626 41.007 C 216.700 41.290,218.249 41.563,218.333 41.661 C 218.379 41.714,218.679 41.781,219.000 41.811 C 219.321 41.841,219.677 41.942,219.791 42.036 C 219.905 42.129,220.149 42.167,220.332 42.119 C 220.516 42.071,220.667 42.099,220.667 42.182 C 220.667 42.265,221.009 42.333,221.427 42.333 C 221.891 42.333,222.146 42.398,222.083 42.500 C 222.023 42.597,222.209 42.672,222.532 42.680 C 223.411 42.702,224.068 42.841,224.185 43.030 C 224.254 43.142,224.325 43.123,224.383 42.977 C 224.447 42.816,224.477 42.810,224.487 42.958 C 224.494 43.073,224.683 43.167,224.907 43.167 C 225.131 43.167,225.357 43.237,225.410 43.323 C 225.463 43.409,225.636 43.477,225.795 43.475 C 226.144 43.470,226.990 43.638,227.333 43.780 C 227.875 44.005,228.491 44.139,229.052 44.154 C 229.319 44.161,229.475 44.238,229.417 44.333 C 229.355 44.433,229.557 44.500,229.917 44.500 C 230.286 44.500,230.479 44.566,230.414 44.671 C 230.356 44.765,230.370 44.828,230.446 44.812 C 230.789 44.737,232.317 45.058,232.237 45.188 C 232.187 45.268,232.283 45.340,232.448 45.347 C 233.030 45.373,233.745 45.523,233.830 45.636 C 233.878 45.699,234.067 45.776,234.250 45.808 C 234.433 45.840,234.629 45.941,234.685 46.031 C 234.742 46.121,234.929 46.178,235.102 46.156 C 235.275 46.134,235.604 46.194,235.833 46.289 C 236.063 46.383,236.306 46.428,236.375 46.387 C 236.444 46.347,236.500 46.393,236.500 46.490 C 236.500 46.587,236.556 46.649,236.625 46.627 C 236.901 46.538,238.987 47.238,238.797 47.356 C 238.684 47.426,238.815 47.473,239.097 47.465 C 239.372 47.458,239.782 47.553,240.007 47.678 C 240.232 47.803,240.454 47.912,240.500 47.920 C 241.069 48.025,241.767 48.230,241.833 48.313 C 241.995 48.515,242.700 48.855,242.591 48.679 C 242.530 48.581,242.554 48.500,242.643 48.500 C 242.732 48.500,242.831 48.556,242.861 48.625 C 242.892 48.694,243.467 48.937,244.140 49.166 C 244.814 49.395,245.399 49.639,245.442 49.708 C 245.485 49.777,245.665 49.833,245.843 49.833 C 246.021 49.833,246.167 49.900,246.167 49.981 C 246.167 50.062,246.504 50.179,246.917 50.241 C 247.329 50.303,247.667 50.418,247.667 50.496 C 247.667 50.574,247.967 50.688,248.334 50.750 C 248.701 50.812,248.969 50.916,248.929 50.980 C 248.889 51.045,249.019 51.110,249.217 51.125 C 249.416 51.140,249.604 51.228,249.635 51.321 C 249.666 51.413,249.967 51.540,250.304 51.602 C 250.641 51.663,251.065 51.816,251.245 51.940 C 251.426 52.065,251.707 52.167,251.870 52.167 C 252.033 52.167,252.167 52.242,252.167 52.333 C 252.167 52.425,252.273 52.500,252.403 52.500 C 252.688 52.500,253.701 53.017,253.872 53.250 C 253.947 53.352,253.996 53.332,253.997 53.199 C 253.999 53.032,254.086 53.042,254.370 53.241 C 254.574 53.383,254.874 53.500,255.037 53.500 C 255.200 53.500,255.333 53.575,255.333 53.667 C 255.333 53.758,255.446 53.833,255.583 53.833 C 255.721 53.833,255.833 53.904,255.833 53.990 C 255.833 54.076,255.965 54.138,256.125 54.128 C 256.285 54.118,256.792 54.285,257.250 54.498 C 257.708 54.710,258.174 54.886,258.284 54.887 C 258.395 54.888,258.447 54.951,258.399 55.028 C 258.352 55.104,258.431 55.167,258.573 55.167 C 258.716 55.167,258.833 55.239,258.833 55.328 C 258.833 55.417,258.958 55.442,259.111 55.383 C 259.313 55.305,259.351 55.337,259.250 55.500 C 259.150 55.662,259.186 55.695,259.385 55.619 C 259.534 55.561,259.754 55.611,259.872 55.729 C 259.990 55.847,260.298 55.997,260.557 56.062 C 260.816 56.127,261.320 56.364,261.677 56.590 C 262.034 56.815,262.397 57.000,262.483 57.000 C 262.569 57.000,262.665 57.078,262.697 57.174 C 262.729 57.270,262.923 57.361,263.127 57.376 C 263.332 57.392,263.500 57.468,263.500 57.547 C 263.500 57.625,263.644 57.643,263.820 57.588 C 264.053 57.514,264.171 57.585,264.255 57.848 C 264.345 58.132,264.401 58.161,264.516 57.980 C 264.608 57.835,264.663 57.822,264.664 57.945 C 264.666 58.052,264.892 58.190,265.167 58.250 C 265.442 58.310,265.667 58.429,265.667 58.513 C 265.667 58.598,265.779 58.667,265.917 58.667 C 266.054 58.667,266.167 58.747,266.167 58.845 C 266.167 58.944,266.308 58.978,266.487 58.921 C 266.719 58.847,266.838 58.918,266.921 59.182 C 267.003 59.439,267.074 59.483,267.165 59.335 C 267.263 59.178,267.334 59.197,267.454 59.412 C 267.542 59.568,267.663 59.690,267.723 59.682 C 268.218 59.615,268.406 59.679,268.167 59.833 C 267.973 59.959,268.021 59.995,268.385 59.997 C 268.699 59.999,268.813 60.064,268.732 60.195 C 268.650 60.328,268.705 60.354,268.903 60.278 C 269.233 60.152,269.897 60.541,269.707 60.750 C 269.639 60.825,269.706 60.843,269.857 60.789 C 270.012 60.733,270.283 60.833,270.482 61.019 C 270.682 61.205,270.833 61.261,270.833 61.148 C 270.833 61.038,270.979 61.117,271.158 61.323 C 271.336 61.529,271.550 61.655,271.633 61.604 C 271.715 61.553,271.946 61.664,272.146 61.849 C 272.345 62.035,272.675 62.219,272.879 62.257 C 273.083 62.295,273.374 62.477,273.526 62.662 C 273.677 62.846,273.965 63.022,274.164 63.053 C 274.364 63.083,274.577 63.185,274.639 63.278 C 274.700 63.372,274.972 63.503,275.243 63.569 C 275.513 63.636,275.834 63.832,275.955 64.005 C 276.078 64.179,276.285 64.277,276.421 64.225 C 276.556 64.173,276.667 64.214,276.667 64.316 C 276.667 64.417,276.779 64.500,276.917 64.500 C 277.054 64.500,277.167 64.579,277.167 64.677 C 277.167 64.774,277.236 64.810,277.322 64.757 C 277.407 64.704,277.524 64.737,277.582 64.831 C 277.639 64.924,277.800 65.000,277.938 65.000 C 278.227 65.000,278.689 65.409,278.575 65.563 C 278.534 65.620,278.545 65.635,278.599 65.595 C 278.716 65.511,280.203 66.313,280.352 66.539 C 280.408 66.625,280.502 66.689,280.560 66.681 C 280.904 66.635,281.006 66.689,280.899 66.862 C 280.818 66.993,280.870 67.022,281.057 66.950 C 281.237 66.881,281.410 66.960,281.542 67.171 C 281.762 67.525,282.101 67.639,281.898 67.292 C 281.831 67.177,281.926 67.215,282.109 67.375 C 282.293 67.535,282.526 67.667,282.627 67.667 C 282.728 67.667,282.859 67.818,282.917 68.002 C 282.976 68.187,283.091 68.297,283.172 68.247 C 283.253 68.197,283.489 68.252,283.695 68.369 C 284.062 68.578,284.231 68.701,284.737 69.125 C 284.874 69.240,285.062 69.333,285.156 69.333 C 285.445 69.333,286.338 69.939,286.222 70.056 C 286.161 70.117,286.270 70.167,286.464 70.167 C 286.658 70.167,286.893 70.298,286.987 70.458 C 287.088 70.632,287.159 70.663,287.162 70.535 C 287.166 70.360,287.209 70.360,287.399 70.535 C 287.527 70.653,287.590 70.819,287.538 70.903 C 287.487 70.988,287.563 71.011,287.707 70.956 C 287.858 70.898,288.093 70.993,288.260 71.178 C 288.420 71.355,288.649 71.500,288.768 71.500 C 288.887 71.500,289.168 71.683,289.391 71.907 C 289.615 72.130,289.848 72.264,289.908 72.203 C 289.969 72.143,290.070 72.166,290.134 72.256 C 290.314 72.509,291.573 73.419,291.435 73.197 C 291.368 73.089,291.393 73.000,291.490 73.000 C 291.587 73.000,291.667 73.059,291.667 73.131 C 291.667 73.203,291.873 73.386,292.125 73.539 C 292.377 73.692,292.801 74.008,293.068 74.242 C 293.334 74.475,293.653 74.667,293.776 74.667 C 293.899 74.667,294.000 74.746,294.000 74.843 C 294.000 74.940,294.075 74.973,294.167 74.917 C 294.258 74.860,294.333 74.893,294.333 74.990 C 294.333 75.087,294.428 75.167,294.543 75.167 C 294.659 75.167,294.847 75.317,294.961 75.500 C 295.076 75.683,295.278 75.833,295.410 75.833 C 295.542 75.833,295.727 75.965,295.820 76.125 C 295.914 76.287,295.992 76.324,295.995 76.208 C 295.998 76.068,296.109 76.095,296.333 76.292 C 296.517 76.452,296.810 76.708,296.986 76.861 C 297.162 77.014,297.349 77.095,297.403 77.042 C 297.456 76.988,297.500 77.036,297.500 77.149 C 297.500 77.261,297.562 77.315,297.637 77.268 C 297.712 77.222,297.899 77.330,298.052 77.509 C 298.205 77.687,298.425 77.833,298.542 77.833 C 298.658 77.833,298.846 77.981,298.958 78.162 C 299.071 78.343,299.270 78.450,299.400 78.400 C 299.541 78.346,299.679 78.441,299.740 78.635 C 299.800 78.826,300.052 79.002,300.348 79.061 C 300.883 79.168,301.387 79.557,301.214 79.730 C 301.158 79.787,301.276 79.833,301.477 79.833 C 301.679 79.833,301.886 79.943,301.937 80.077 C 301.989 80.211,302.186 80.370,302.375 80.430 C 302.564 80.490,302.894 80.729,303.109 80.960 C 303.324 81.192,303.502 81.315,303.505 81.233 C 303.508 81.151,303.602 81.202,303.714 81.347 C 303.825 81.493,304.111 81.660,304.348 81.719 C 304.585 81.778,304.861 81.996,304.962 82.205 C 305.062 82.413,305.149 82.486,305.155 82.366 C 305.162 82.241,305.331 82.327,305.558 82.572 C 305.774 82.804,305.987 82.958,306.032 82.913 C 306.076 82.868,306.249 82.982,306.416 83.166 C 306.582 83.350,306.824 83.500,306.952 83.500 C 307.081 83.500,307.139 83.576,307.082 83.669 C 307.024 83.762,307.204 83.882,307.486 83.939 C 307.766 83.995,307.954 84.106,307.904 84.187 C 307.854 84.267,307.890 84.333,307.983 84.333 C 308.075 84.333,308.326 84.508,308.539 84.721 C 308.752 84.934,309.018 85.077,309.130 85.040 C 309.242 85.003,309.333 85.053,309.333 85.153 C 309.333 85.252,309.408 85.333,309.500 85.333 C 309.592 85.333,309.804 85.465,309.973 85.625 C 310.141 85.785,310.423 86.013,310.598 86.131 C 310.773 86.249,310.811 86.294,310.683 86.230 C 310.530 86.155,310.490 86.182,310.567 86.308 C 310.633 86.413,310.797 86.500,310.932 86.500 C 311.067 86.500,311.218 86.606,311.267 86.735 C 311.317 86.864,311.540 87.016,311.762 87.071 C 311.985 87.127,312.167 87.247,312.167 87.337 C 312.167 87.426,312.284 87.500,312.427 87.500 C 312.582 87.500,312.638 87.578,312.566 87.695 C 312.484 87.828,312.538 87.854,312.738 87.778 C 312.946 87.698,313.056 87.761,313.118 87.997 C 313.165 88.180,313.265 88.292,313.338 88.247 C 313.412 88.201,313.697 88.389,313.972 88.665 C 314.305 88.997,314.501 89.096,314.557 88.958 C 314.606 88.835,314.646 88.869,314.654 89.042 C 314.661 89.202,314.782 89.333,314.922 89.333 C 315.062 89.333,315.220 89.445,315.273 89.582 C 315.325 89.719,315.426 89.796,315.496 89.752 C 315.664 89.649,316.666 90.609,316.669 90.876 C 316.671 91.032,316.706 91.030,316.810 90.865 C 316.915 90.701,317.017 90.752,317.228 91.073 C 317.382 91.308,317.647 91.500,317.817 91.500 C 317.987 91.500,318.436 91.800,318.813 92.167 C 319.191 92.533,319.613 92.833,319.750 92.833 C 319.888 92.833,320.000 92.946,320.000 93.083 C 320.000 93.221,320.085 93.333,320.189 93.333 C 320.293 93.333,320.514 93.490,320.680 93.682 C 320.846 93.874,321.056 93.985,321.146 93.930 C 321.236 93.874,321.357 93.979,321.416 94.164 C 321.474 94.348,321.712 94.547,321.944 94.605 C 322.256 94.683,322.307 94.747,322.141 94.853 C 321.980 94.955,322.025 94.996,322.302 94.997 C 322.513 94.999,322.641 95.073,322.586 95.162 C 322.531 95.251,322.674 95.371,322.904 95.428 C 323.134 95.486,323.306 95.616,323.286 95.717 C 323.266 95.819,323.344 95.914,323.458 95.930 C 323.573 95.946,323.737 95.968,323.822 95.979 C 323.908 95.991,324.025 96.150,324.083 96.333 C 324.142 96.517,324.270 96.667,324.368 96.667 C 324.466 96.667,324.654 96.798,324.786 96.958 C 324.917 97.119,324.969 97.143,324.902 97.013 C 324.823 96.863,324.934 96.893,325.205 97.097 C 325.440 97.273,325.598 97.473,325.556 97.542 C 325.515 97.610,325.602 97.667,325.750 97.667 C 325.898 97.667,325.977 97.736,325.924 97.821 C 325.872 97.906,325.998 98.030,326.206 98.095 C 326.779 98.276,327.677 99.015,327.559 99.207 C 327.501 99.300,327.551 99.344,327.671 99.304 C 327.791 99.264,328.089 99.423,328.334 99.657 C 329.019 100.312,330.167 101.242,330.384 101.318 C 330.688 101.426,330.995 101.783,330.881 101.897 C 330.824 101.954,330.928 102.000,331.112 102.000 C 331.296 102.000,331.685 102.262,331.977 102.583 C 332.269 102.904,332.580 103.167,332.667 103.167 C 332.755 103.167,333.197 103.542,333.651 104.000 C 334.104 104.458,334.594 104.833,334.738 104.833 C 334.882 104.833,335.000 104.905,335.000 104.992 C 335.000 105.201,336.170 106.333,336.386 106.333 C 336.478 106.333,336.771 106.577,337.037 106.875 C 337.303 107.173,337.591 107.426,337.677 107.437 C 337.763 107.449,337.908 107.468,338.000 107.479 C 338.092 107.491,338.167 107.608,338.167 107.740 C 338.167 107.872,338.253 108.034,338.359 108.099 C 338.488 108.179,338.507 108.141,338.417 107.984 C 338.343 107.855,338.434 107.900,338.620 108.083 C 338.805 108.267,338.925 108.473,338.886 108.542 C 338.846 108.610,338.968 108.667,339.157 108.667 C 339.346 108.667,339.500 108.775,339.500 108.907 C 339.500 109.039,339.587 109.201,339.692 109.266 C 339.821 109.345,339.841 109.307,339.753 109.151 C 339.680 109.022,339.965 109.273,340.386 109.708 C 340.806 110.144,341.242 110.500,341.354 110.500 C 341.466 110.500,341.969 110.931,342.473 111.458 C 342.977 111.985,343.325 112.304,343.246 112.167 C 343.119 111.944,343.138 111.944,343.422 112.167 C 343.889 112.532,344.500 113.196,344.500 113.338 C 344.500 113.406,344.658 113.502,344.850 113.553 C 345.043 113.603,345.151 113.724,345.090 113.822 C 345.027 113.924,345.115 114.000,345.296 114.000 C 345.469 114.000,345.886 114.316,346.222 114.702 C 346.558 115.088,346.833 115.350,346.833 115.285 C 346.833 115.101,347.429 115.741,347.549 116.054 C 347.608 116.208,347.781 116.333,347.934 116.333 C 348.222 116.333,349.000 117.067,349.000 117.339 C 349.000 117.424,349.185 117.540,349.411 117.597 C 349.637 117.654,349.806 117.776,349.786 117.870 C 349.766 117.963,349.899 118.064,350.080 118.094 C 350.262 118.124,350.440 118.236,350.476 118.343 C 350.511 118.450,350.690 118.661,350.872 118.811 C 351.354 119.207,351.553 119.415,351.828 119.813 C 351.963 120.007,352.180 120.167,352.311 120.167 C 352.441 120.167,353.046 120.692,353.655 121.333 C 354.265 121.975,354.892 122.500,355.048 122.500 C 355.205 122.500,355.333 122.579,355.333 122.677 C 355.333 122.774,355.247 122.799,355.141 122.734 C 355.021 122.660,354.994 122.688,355.069 122.810 C 355.135 122.918,355.260 122.962,355.345 122.910 C 355.430 122.857,355.501 122.949,355.503 123.115 C 355.505 123.352,355.536 123.367,355.651 123.186 C 355.765 123.006,355.821 123.033,355.910 123.314 C 355.973 123.511,356.075 123.641,356.137 123.603 C 356.292 123.510,356.672 123.940,356.546 124.066 C 356.490 124.121,356.572 124.167,356.727 124.167 C 356.883 124.167,357.054 124.279,357.106 124.417 C 357.159 124.554,357.302 124.667,357.425 124.667 C 357.547 124.667,357.701 124.753,357.766 124.859 C 357.846 124.989,357.809 125.007,357.651 124.914 C 357.522 124.838,357.560 124.939,357.734 125.138 C 358.086 125.540,358.246 125.612,358.074 125.292 C 358.013 125.177,358.346 125.483,358.815 125.971 C 359.283 126.460,359.667 126.813,359.667 126.757 C 359.667 126.578,360.275 127.237,360.380 127.529 C 360.435 127.682,360.653 127.834,360.865 127.866 C 361.077 127.898,361.229 128.022,361.204 128.141 C 361.179 128.261,361.235 128.311,361.330 128.252 C 361.424 128.194,361.574 128.339,361.663 128.573 C 361.752 128.808,361.869 129.000,361.922 129.000 C 361.976 129.000,361.964 128.906,361.897 128.792 C 361.829 128.677,362.328 129.146,363.005 129.833 C 363.682 130.521,364.168 130.971,364.086 130.833 C 363.957 130.618,363.975 130.615,364.216 130.811 C 364.370 130.936,364.461 131.094,364.419 131.163 C 364.376 131.232,364.502 131.430,364.699 131.603 C 364.896 131.775,365.002 131.823,364.935 131.708 C 364.868 131.594,364.893 131.500,364.990 131.500 C 365.087 131.500,365.176 131.575,365.188 131.667 C 365.199 131.758,365.218 131.927,365.229 132.042 C 365.241 132.156,365.344 132.259,365.458 132.271 C 365.573 132.282,365.746 132.301,365.843 132.312 C 365.940 132.324,365.977 132.403,365.924 132.488 C 365.872 132.573,365.961 132.690,366.123 132.747 C 366.284 132.805,366.679 133.175,367.000 133.570 C 367.321 133.965,367.634 134.260,367.696 134.225 C 367.758 134.190,367.858 134.314,367.917 134.500 C 367.976 134.686,368.094 134.795,368.179 134.743 C 368.264 134.690,368.333 134.714,368.333 134.795 C 368.333 134.877,368.518 135.043,368.744 135.164 C 368.970 135.285,369.128 135.429,369.095 135.483 C 369.062 135.538,369.140 135.680,369.267 135.798 C 369.395 135.916,369.500 135.965,369.500 135.907 C 369.500 135.848,369.850 136.145,370.277 136.567 C 370.705 136.988,371.118 137.333,371.194 137.333 C 371.271 137.333,371.333 137.404,371.333 137.491 C 371.333 137.578,371.533 137.860,371.777 138.116 C 372.021 138.373,372.164 138.484,372.093 138.363 C 371.987 138.180,372.025 138.180,372.316 138.361 C 372.509 138.482,372.667 138.637,372.667 138.707 C 372.667 138.776,372.668 138.870,372.669 138.914 C 372.676 139.138,373.764 140.102,373.853 139.963 C 373.910 139.874,374.005 139.996,374.064 140.234 C 374.124 140.472,374.252 140.667,374.348 140.667 C 374.445 140.667,374.622 140.760,374.741 140.875 C 374.861 140.990,375.114 141.191,375.304 141.322 C 375.494 141.453,375.614 141.617,375.572 141.685 C 375.530 141.753,375.647 141.858,375.833 141.917 C 376.019 141.976,376.132 142.088,376.083 142.167 C 376.035 142.245,376.142 142.356,376.322 142.413 C 376.502 142.470,376.696 142.664,376.753 142.844 C 376.811 143.024,376.908 143.141,376.970 143.103 C 377.125 143.010,377.505 143.440,377.379 143.566 C 377.323 143.621,377.442 143.667,377.643 143.667 C 377.879 143.667,378.064 143.814,378.167 144.083 C 378.254 144.313,378.426 144.500,378.550 144.500 C 378.815 144.500,379.403 145.117,379.560 145.559 C 379.634 145.767,379.763 145.832,379.955 145.758 C 380.112 145.698,380.189 145.699,380.128 145.761 C 379.996 145.893,380.239 146.156,380.874 146.571 C 381.125 146.735,381.288 146.938,381.236 147.022 C 381.184 147.106,381.204 147.161,381.279 147.144 C 381.547 147.085,382.000 147.372,382.000 147.601 C 382.000 147.729,382.059 147.815,382.131 147.792 C 382.204 147.769,382.469 147.956,382.722 148.208 C 382.975 148.460,383.253 148.667,383.341 148.667 C 383.428 148.667,383.481 148.757,383.458 148.867 C 383.435 148.978,383.510 149.081,383.625 149.097 C 383.740 149.112,383.903 149.134,383.989 149.146 C 384.074 149.157,384.189 149.309,384.244 149.482 C 384.299 149.655,384.499 149.838,384.689 149.887 C 384.908 149.945,384.988 150.052,384.908 150.181 C 384.832 150.303,384.851 150.342,384.954 150.278 C 385.156 150.154,386.374 151.070,386.217 151.228 C 386.159 151.286,386.240 151.333,386.397 151.333 C 386.555 151.333,386.951 151.615,387.278 151.958 C 387.605 152.302,387.821 152.490,387.760 152.375 C 387.585 152.051,387.740 152.126,388.279 152.625 C 389.040 153.331,389.655 153.830,389.792 153.854 C 390.125 153.912,390.323 154.048,390.250 154.167 C 390.180 154.280,390.649 154.562,390.804 154.500 C 390.834 154.488,390.984 154.621,391.138 154.797 C 391.291 154.972,391.697 155.247,392.040 155.409 C 392.385 155.572,392.616 155.781,392.556 155.877 C 392.493 155.979,392.529 156.002,392.642 155.932 C 392.870 155.791,393.372 156.233,393.200 156.424 C 393.136 156.495,393.174 156.501,393.286 156.437 C 393.397 156.373,393.634 156.468,393.813 156.647 C 393.992 156.826,394.181 156.930,394.232 156.879 C 394.284 156.828,394.373 156.909,394.431 157.059 C 394.488 157.210,394.632 157.333,394.750 157.333 C 394.868 157.333,395.005 157.439,395.054 157.568 C 395.104 157.696,395.374 157.852,395.655 157.914 C 395.937 157.976,396.167 158.096,396.167 158.180 C 396.167 158.264,396.284 158.333,396.427 158.333 C 396.569 158.333,396.640 158.408,396.583 158.500 C 396.527 158.592,396.600 158.667,396.745 158.667 C 396.891 158.667,397.054 158.779,397.106 158.917 C 397.159 159.054,397.347 159.167,397.523 159.167 C 397.699 159.167,397.887 159.279,397.940 159.417 C 397.992 159.554,398.220 159.667,398.444 159.667 C 398.674 159.667,398.808 159.740,398.750 159.833 C 398.657 159.983,398.876 160.072,399.208 160.020 C 399.277 160.009,399.333 160.059,399.333 160.131 C 399.333 160.203,399.483 160.274,399.667 160.288 C 400.000 160.313,400.000 160.210,400.000 80.156 L 400.000 0.000 200.000 0.000 L 0.000 0.000 -0.000 58.384 " stroke="none" fill="#34c4b4" fill-rule="evenodd"></path><path id="path1" d="M176.000 39.500 C 175.798 39.631,175.822 39.662,176.125 39.664 C 176.331 39.666,176.500 39.592,176.500 39.500 C 176.500 39.291,176.323 39.291,176.000 39.500 M331.455 102.333 C 331.612 102.517,331.811 102.667,331.896 102.667 C 331.982 102.667,331.916 102.517,331.750 102.333 C 331.584 102.150,331.386 102.000,331.309 102.000 C 331.233 102.000,331.298 102.150,331.455 102.333 M332.879 103.500 C 333.112 103.683,333.366 103.832,333.443 103.830 C 333.625 103.825,332.797 103.175,332.603 103.170 C 332.521 103.168,332.646 103.317,332.879 103.500 M2.000 116.500 C 1.602 116.627,1.607 116.634,2.115 116.650 C 2.408 116.659,2.693 116.592,2.750 116.500 C 2.868 116.308,2.598 116.308,2.000 116.500 M0.083 116.833 C -0.048 117.046,0.338 117.046,0.667 116.833 C 0.870 116.702,0.848 116.671,0.552 116.669 C 0.351 116.668,0.140 116.742,0.083 116.833 M352.583 120.500 C 352.749 120.683,352.948 120.833,353.024 120.833 C 353.101 120.833,353.035 120.683,352.878 120.500 C 352.721 120.317,352.523 120.167,352.437 120.167 C 352.352 120.167,352.417 120.317,352.583 120.500 M358.000 125.199 C 358.000 125.245,358.150 125.455,358.333 125.667 C 358.517 125.878,358.667 125.976,358.667 125.885 C 358.667 125.793,358.517 125.583,358.333 125.417 C 358.150 125.251,358.000 125.153,358.000 125.199 M360.833 128.000 C 360.833 128.092,360.938 128.167,361.066 128.167 C 361.193 128.167,361.345 128.290,361.403 128.441 C 361.461 128.591,361.556 128.667,361.614 128.608 C 361.733 128.489,361.192 127.833,360.974 127.833 C 360.897 127.833,360.833 127.908,360.833 128.000 M365.167 131.917 C 365.382 132.146,365.586 132.333,365.620 132.333 C 365.759 132.333,365.072 131.510,364.929 131.505 C 364.845 131.502,364.951 131.688,365.167 131.917 M372.201 138.493 C 372.435 138.868,372.859 139.094,372.738 138.780 C 372.695 138.668,372.510 138.482,372.326 138.368 C 372.018 138.175,372.008 138.185,372.201 138.493 M378.948 144.981 C 379.206 145.245,379.448 145.433,379.487 145.397 C 379.584 145.307,378.810 144.500,378.627 144.500 C 378.546 144.500,378.690 144.716,378.948 144.981 M381.372 147.153 C 381.672 147.420,381.944 147.612,381.977 147.578 C 382.055 147.501,381.128 146.679,380.956 146.672 C 380.886 146.669,381.073 146.885,381.372 147.153 M392.451 155.820 C 392.846 156.192,393.000 156.250,393.000 156.027 C 393.000 155.950,392.794 155.794,392.542 155.680 L 392.083 155.474 392.451 155.820 " stroke="none" fill="#38c4b4" fill-rule="evenodd"></path><path id="path2" d="M176.000 39.500 C 175.798 39.631,175.822 39.662,176.125 39.664 C 176.331 39.666,176.500 39.592,176.500 39.500 C 176.500 39.291,176.323 39.291,176.000 39.500 M331.455 102.333 C 331.612 102.517,331.811 102.667,331.896 102.667 C 331.982 102.667,331.916 102.517,331.750 102.333 C 331.584 102.150,331.386 102.000,331.309 102.000 C 331.233 102.000,331.298 102.150,331.455 102.333 M332.879 103.500 C 333.112 103.683,333.366 103.832,333.443 103.830 C 333.625 103.825,332.797 103.175,332.603 103.170 C 332.521 103.168,332.646 103.317,332.879 103.500 M2.000 116.500 C 1.602 116.627,1.607 116.634,2.115 116.650 C 2.408 116.659,2.693 116.592,2.750 116.500 C 2.868 116.308,2.598 116.308,2.000 116.500 M0.083 116.833 C -0.048 117.046,0.338 117.046,0.667 116.833 C 0.870 116.702,0.848 116.671,0.552 116.669 C 0.351 116.668,0.140 116.742,0.083 116.833 M352.583 120.500 C 352.749 120.683,352.948 120.833,353.024 120.833 C 353.101 120.833,353.035 120.683,352.878 120.500 C 352.721 120.317,352.523 120.167,352.437 120.167 C 352.352 120.167,352.417 120.317,352.583 120.500 M358.000 125.199 C 358.000 125.245,358.150 125.455,358.333 125.667 C 358.517 125.878,358.667 125.976,358.667 125.885 C 358.667 125.793,358.517 125.583,358.333 125.417 C 358.150 125.251,358.000 125.153,358.000 125.199 M360.833 128.000 C 360.833 128.092,360.938 128.167,361.066 128.167 C 361.193 128.167,361.345 128.290,361.403 128.441 C 361.461 128.591,361.556 128.667,361.614 128.608 C 361.733 128.489,361.192 127.833,360.974 127.833 C 360.897 127.833,360.833 127.908,360.833 128.000 M365.167 131.917 C 365.382 132.146,365.586 132.333,365.620 132.333 C 365.759 132.333,365.072 131.510,364.929 131.505 C 364.845 131.502,364.951 131.688,365.167 131.917 M372.201 138.493 C 372.435 138.868,372.859 139.094,372.738 138.780 C 372.695 138.668,372.510 138.482,372.326 138.368 C 372.018 138.175,372.008 138.185,372.201 138.493 M378.948 144.981 C 379.206 145.245,379.448 145.433,379.487 145.397 C 379.584 145.307,378.810 144.500,378.627 144.500 C 378.546 144.500,378.690 144.716,378.948 144.981 M381.372 147.153 C 381.672 147.420,381.944 147.612,381.977 147.578 C 382.055 147.501,381.128 146.679,380.956 146.672 C 380.886 146.669,381.073 146.885,381.372 147.153 M392.451 155.820 C 392.846 156.192,393.000 156.250,393.000 156.027 C 393.000 155.950,392.794 155.794,392.542 155.680 L 392.083 155.474 392.451 155.820 " stroke="none" fill="#38c4b4" fill-rule="evenodd"></path><path id="path3" d="M176.000 39.500 C 175.798 39.631,175.822 39.662,176.125 39.664 C 176.331 39.666,176.500 39.592,176.500 39.500 C 176.500 39.291,176.323 39.291,176.000 39.500 M331.455 102.333 C 331.612 102.517,331.811 102.667,331.896 102.667 C 331.982 102.667,331.916 102.517,331.750 102.333 C 331.584 102.150,331.386 102.000,331.309 102.000 C 331.233 102.000,331.298 102.150,331.455 102.333 M332.879 103.500 C 333.112 103.683,333.366 103.832,333.443 103.830 C 333.625 103.825,332.797 103.175,332.603 103.170 C 332.521 103.168,332.646 103.317,332.879 103.500 M2.000 116.500 C 1.602 116.627,1.607 116.634,2.115 116.650 C 2.408 116.659,2.693 116.592,2.750 116.500 C 2.868 116.308,2.598 116.308,2.000 116.500 M0.083 116.833 C -0.048 117.046,0.338 117.046,0.667 116.833 C 0.870 116.702,0.848 116.671,0.552 116.669 C 0.351 116.668,0.140 116.742,0.083 116.833 M352.583 120.500 C 352.749 120.683,352.948 120.833,353.024 120.833 C 353.101 120.833,353.035 120.683,352.878 120.500 C 352.721 120.317,352.523 120.167,352.437 120.167 C 352.352 120.167,352.417 120.317,352.583 120.500 M358.000 125.199 C 358.000 125.245,358.150 125.455,358.333 125.667 C 358.517 125.878,358.667 125.976,358.667 125.885 C 358.667 125.793,358.517 125.583,358.333 125.417 C 358.150 125.251,358.000 125.153,358.000 125.199 M360.833 128.000 C 360.833 128.092,360.938 128.167,361.066 128.167 C 361.193 128.167,361.345 128.290,361.403 128.441 C 361.461 128.591,361.556 128.667,361.614 128.608 C 361.733 128.489,361.192 127.833,360.974 127.833 C 360.897 127.833,360.833 127.908,360.833 128.000 M365.167 131.917 C 365.382 132.146,365.586 132.333,365.620 132.333 C 365.759 132.333,365.072 131.510,364.929 131.505 C 364.845 131.502,364.951 131.688,365.167 131.917 M372.201 138.493 C 372.435 138.868,372.859 139.094,372.738 138.780 C 372.695 138.668,372.510 138.482,372.326 138.368 C 372.018 138.175,372.008 138.185,372.201 138.493 M378.948 144.981 C 379.206 145.245,379.448 145.433,379.487 145.397 C 379.584 145.307,378.810 144.500,378.627 144.500 C 378.546 144.500,378.690 144.716,378.948 144.981 M381.372 147.153 C 381.672 147.420,381.944 147.612,381.977 147.578 C 382.055 147.501,381.128 146.679,380.956 146.672 C 380.886 146.669,381.073 146.885,381.372 147.153 M392.451 155.820 C 392.846 156.192,393.000 156.250,393.000 156.027 C 393.000 155.950,392.794 155.794,392.542 155.680 L 392.083 155.474 392.451 155.820 " stroke="none" fill="#38c4b4" fill-rule="evenodd"></path><path id="path4" d="M176.000 39.500 C 175.798 39.631,175.822 39.662,176.125 39.664 C 176.331 39.666,176.500 39.592,176.500 39.500 C 176.500 39.291,176.323 39.291,176.000 39.500 M331.455 102.333 C 331.612 102.517,331.811 102.667,331.896 102.667 C 331.982 102.667,331.916 102.517,331.750 102.333 C 331.584 102.150,331.386 102.000,331.309 102.000 C 331.233 102.000,331.298 102.150,331.455 102.333 M332.879 103.500 C 333.112 103.683,333.366 103.832,333.443 103.830 C 333.625 103.825,332.797 103.175,332.603 103.170 C 332.521 103.168,332.646 103.317,332.879 103.500 M2.000 116.500 C 1.602 116.627,1.607 116.634,2.115 116.650 C 2.408 116.659,2.693 116.592,2.750 116.500 C 2.868 116.308,2.598 116.308,2.000 116.500 M0.083 116.833 C -0.048 117.046,0.338 117.046,0.667 116.833 C 0.870 116.702,0.848 116.671,0.552 116.669 C 0.351 116.668,0.140 116.742,0.083 116.833 M352.583 120.500 C 352.749 120.683,352.948 120.833,353.024 120.833 C 353.101 120.833,353.035 120.683,352.878 120.500 C 352.721 120.317,352.523 120.167,352.437 120.167 C 352.352 120.167,352.417 120.317,352.583 120.500 M358.000 125.199 C 358.000 125.245,358.150 125.455,358.333 125.667 C 358.517 125.878,358.667 125.976,358.667 125.885 C 358.667 125.793,358.517 125.583,358.333 125.417 C 358.150 125.251,358.000 125.153,358.000 125.199 M360.833 128.000 C 360.833 128.092,360.938 128.167,361.066 128.167 C 361.193 128.167,361.345 128.290,361.403 128.441 C 361.461 128.591,361.556 128.667,361.614 128.608 C 361.733 128.489,361.192 127.833,360.974 127.833 C 360.897 127.833,360.833 127.908,360.833 128.000 M365.167 131.917 C 365.382 132.146,365.586 132.333,365.620 132.333 C 365.759 132.333,365.072 131.510,364.929 131.505 C 364.845 131.502,364.951 131.688,365.167 131.917 M372.201 138.493 C 372.435 138.868,372.859 139.094,372.738 138.780 C 372.695 138.668,372.510 138.482,372.326 138.368 C 372.018 138.175,372.008 138.185,372.201 138.493 M378.948 144.981 C 379.206 145.245,379.448 145.433,379.487 145.397 C 379.584 145.307,378.810 144.500,378.627 144.500 C 378.546 144.500,378.690 144.716,378.948 144.981 M381.372 147.153 C 381.672 147.420,381.944 147.612,381.977 147.578 C 382.055 147.501,381.128 146.679,380.956 146.672 C 380.886 146.669,381.073 146.885,381.372 147.153 M392.451 155.820 C 392.846 156.192,393.000 156.250,393.000 156.027 C 393.000 155.950,392.794 155.794,392.542 155.680 L 392.083 155.474 392.451 155.820 " stroke="none" fill="#38c4b4" fill-rule="evenodd"></path></g></svg>