<svg id="Capa_1" data-name="Capa 1" xmlns="http://www.w3.org/2000/svg" viewBox="0 0 1561.98 2789.18" preserveAspectRatio="none"><defs><style>.cls-1{fill:#ef916c;}.cls-2{fill:#2b7ea5;}</style></defs><path class="cls-1" d="M0,2060.53V0H1562q0,919.88,0,1839.76c0,4.6-.12,9.2-.19,13.79-4.26-1-7.92-3.32-11.67-5.42a1507.62,1507.62,0,0,0-151.06-73.59c-75.91-32-154.07-57.59-233.64-79.11a1726.36,1726.36,0,0,0-175.13-37.56c-40.93-6.62-81.92-12.56-123.31-15.91-36.41-2.94-72.81-5.37-109.36-5q-19.43.18-38.82,1a580.06,580.06,0,0,0-91.8,11.19c-81.81,16.9-159.37,45.55-233.46,83.71-53.81,27.71-104.31,60.51-153,96.05-33.15,24.18-64.26,50.84-94.8,78.2-28.6,25.63-55.21,53.13-81.06,81.36-19.15,20.91-38.09,42-55.15,64.72C7.19,2056.26,5.83,2061.51,0,2060.53Z"/><path class="cls-2" d="M0,2060.53c5.83,1,7.19-4.33,9.5-7.44,17.06-23,36-44.43,55.15-65.64,25.85-28.63,52.46-56.52,81.06-82.5,30.54-27.75,61.65-54.79,94.8-79.31,48.71-36,99.21-69.29,153-97.4,74.09-38.7,151.65-67.76,233.46-84.89a571.08,571.08,0,0,1,91.8-11.34q19.43-.87,38.82-1.06c36.55-.34,72.95,2.13,109.36,5.11,41.39,3.39,82.38,9.42,123.31,16.13a1704.37,1704.37,0,0,1,175.13,38.1c79.57,21.82,157.73,47.81,233.64,80.21a1500.76,1500.76,0,0,1,151.06,74.63c3.75,2.13,7.41,4.46,11.67,5.51l2.2,1.93v935.81H0Z"/></svg>