<svg id="Capa_1" data-name="Capa 1" xmlns="http://www.w3.org/2000/svg" viewBox="0 0 200.34 240.22"><defs><style>.cls-1{fill:#a9a5c5;stroke:#a9a5c5;}.cls-2{fill:none;stroke:#30c4b5;stroke-width:3px;}</style></defs><path class="cls-1" d="M110.76,200.92s-11.23-8.46-19-13c-7.16-4.19-11.12-6.9-19-9.5-6.61-2.18-10.57-2.76-17.5-3.5-8.15-.87-12.9-1.31-21,0-5.19.84-8.19,1.37-13,3.5a54.71,54.71,0,0,0-8.5,5c-2.59,1.67-6.5,4.5-6.5,4.5l6.5,27.5,8.5,9.5,13,7,16.5,5,22,2.5,15-2.5,14-8.5,5.5-7,3.5-10.5Z"/><path class="cls-2" d="M105,2,45,4.27s-22.91,3.67-31.49,14C2.68,31.41,11,44.7,9.34,61.61c-2.7,28-6.78,43.55-6.91,71.67s-4.31,45.47,6.18,71.42c0,0,3.7,11.82,8.65,17.72,9.73,11.58,36,14.26,36,14.26s22.05,4.81,34.5-.34c8.36-3.46,13.47-6.41,18.5-13.92,6-8.88,5.2-26.89,5.2-26.89l3.31-34.34c1.29-13.41,7.62-31.07,17.74-48.52,9.18-15.84,16.25-23.83,29.62-36.33,7.56-7.08,12-9.89,20.69-16.59s17.43-12.61,15.83-23.59c-.81-5.58-3.5-8.16-6.81-12.71-5-6.89-8.63-10.67-16.17-14.62-11.41-6-19.69-5.42-32.51-6.65C128.39.75,105,2,105,2Z"/></svg>