<svg id="Capa_1" data-name="Capa 1" xmlns="http://www.w3.org/2000/svg" xmlns:xlink="http://www.w3.org/1999/xlink" width="100%"
     viewBox="0 0 1939.25 1065.12" >
    <defs>
        <style>.cls-1{fill:none;}.cls-2{clip-path:url(#clip-path);}.cls-3{fill:#f0906c;}</style>
        <clipPath id="clip-path" transform="translate(-0.41 0)">
            <rect class="cls-1" width="1940.06" height="1065.12"/>
        </clipPath>
    </defs>
    <g class="cls-2">
        <path class="cls-3"
              d="M1939.53,302.82q0,376.89.13,753.59c0,7.28-.9,8.71-5.51,8.71q-964.11-.33-1928.24,0c-4.6,0-5.5-1.43-5.5-8.71Q.64,687.08.54,317.73c3.41,1.49,6-1.94,8.86-3.75,26.93-17.25,53.87-35.09,80.88-51.92C152,223.74,214.56,189.24,277.47,156.55c63.69-33.05,127.94-63.16,193.4-86C594.19,27.68,719.06,6,845.13,1.06a1475.39,1475.39,0,0,1,191.71,5.33,1736.83,1736.83,0,0,1,194.22,28.7c74.07,15,147.7,34.8,220.86,58.3q104.55,33.56,207.63,76.66,126.78,53.12,251.17,119.1C1920.24,294.17,1929.37,301.31,1939.53,302.82Z"
              transform="translate(-0.41 0)"/>
    </g>
</svg>